<?xml version="1.0" standalone="no"?>
<!DOCTYPE svg PUBLIC "-//W3C//DTD SVG 20010904//EN"
 "http://www.w3.org/TR/2001/REC-SVG-20010904/DTD/svg10.dtd">
<svg version="1.0" xmlns="http://www.w3.org/2000/svg"
 width="800.000000pt" height="800.000000pt" viewBox="0 0 800.000000 800.000000"
 preserveAspectRatio="xMidYMid meet">

<g transform="translate(0.000000,800.000000) scale(0.100000,-0.100000)"
fill="#000000" stroke="none">
<path d="M4103 7038 c-28 -31 -36 -61 -28 -108 7 -43 47 -90 77 -90 49 0 106
57 115 115 5 30 1 39 -30 70 -44 44 -101 49 -134 13z m94 -61 c21 -46 -22 -88
-55 -55 -17 17 -15 54 3 72 19 19 39 12 52 -17z"/>
<path d="M4445 7028 c-27 -14 -55 -49 -55 -69 0 -9 11 -21 24 -27 24 -11 28
-22 41 -109 7 -43 27 -69 44 -58 34 20 37 166 7 240 -16 37 -28 42 -61 23z"/>
<path d="M3491 7004 c-54 -38 -81 -186 -46 -254 37 -72 111 -91 158 -42 89 92
44 312 -63 312 -14 0 -36 -7 -49 -16z m77 -134 c5 -112 -18 -143 -58 -77 -26
42 -25 88 1 121 35 45 54 31 57 -44z"/>
<path d="M3786 6999 c-34 -27 -35 -66 -2 -79 26 -9 33 -39 39 -165 2 -51 16
-65 45 -46 30 19 39 241 11 292 -13 25 -59 25 -93 -2z"/>
<path d="M3198 6921 l-42 -39 28 -23 c23 -21 28 -35 35 -104 10 -96 17 -115
42 -115 25 0 34 49 34 181 0 149 -21 171 -97 100z"/>
<path d="M4808 6918 c-21 -12 -45 -37 -54 -57 -16 -34 -16 -37 6 -78 25 -47
73 -83 111 -83 51 0 119 69 119 120 0 52 -69 120 -120 120 -14 0 -42 -10 -62
-22z m100 -50 c19 -19 14 -59 -10 -85 -28 -30 -42 -29 -56 2 -24 53 -9 95 33
95 12 0 26 -5 33 -12z"/>
<path d="M2896 6793 l-47 -48 35 -10 c19 -6 40 -15 46 -21 6 -6 15 -50 21 -99
6 -49 15 -98 19 -109 16 -42 30 32 30 157 0 183 -23 211 -104 130z"/>
<path d="M2720 6781 c-13 -25 -13 -380 0 -401 18 -29 33 7 42 107 9 91 4 267
-9 299 -7 20 -20 17 -33 -5z"/>
<path d="M5208 6779 c-45 -23 -68 -64 -68 -120 0 -77 100 -147 172 -120 35 13
78 79 85 128 4 32 0 45 -22 71 -53 63 -103 75 -167 41z m100 -82 c28 -59 -23
-112 -69 -71 -25 22 -24 55 2 83 26 28 50 24 67 -12z"/>
<path d="M2284 6727 c-38 -22 -104 -80 -121 -106 -10 -14 -20 -48 -23 -76 -5
-50 -5 -50 -53 -65 l-47 -15 42 -42 c35 -36 40 -44 29 -57 -8 -9 -23 -16 -35
-16 -32 0 -48 -15 -44 -41 2 -18 14 -28 46 -39 62 -21 54 -56 -23 -91 -48 -23
-44 -45 12 -61 40 -12 48 -17 48 -38 0 -18 -10 -30 -39 -46 -76 -43 -72 -80 8
-70 79 9 86 -3 36 -58 -24 -26 -40 -50 -36 -53 16 -17 120 54 220 150 58 56
106 108 106 114 0 7 -18 22 -40 33 -46 23 -45 39 5 63 45 21 44 40 -1 66 -31
19 -35 25 -29 49 9 35 5 33 66 41 l53 6 -42 28 c-56 37 -55 61 2 88 56 26 63
43 28 68 -17 12 -32 35 -39 63 -8 31 -25 56 -53 81 -44 41 -46 41 -76 24z"/>
<path d="M4123 6710 c-12 -5 -29 -22 -37 -39 -49 -93 25 -216 111 -185 35 12
73 68 73 108 0 44 -34 95 -75 112 -39 16 -42 16 -72 4z m62 -93 c6 -29 -7 -87
-19 -87 -15 0 -36 36 -36 60 0 41 10 60 31 60 13 0 20 -10 24 -33z"/>
<path d="M3782 6587 c-82 -87 21 -248 116 -181 12 8 32 34 43 56 18 34 19 44
8 69 -30 74 -122 104 -167 56z"/>
<path d="M5550 6584 c-54 -46 -74 -109 -50 -155 13 -22 80 -59 110 -59 57 0
120 65 120 124 0 21 -12 41 -44 72 -52 53 -88 58 -136 18z m71 -64 c38 -21 14
-86 -28 -78 -20 4 -28 28 -19 64 7 26 17 29 47 14z"/>
<path d="M3460 6563 c-8 -3 -34 -19 -57 -36 l-41 -29 -66 16 c-75 19 -123 12
-162 -25 -35 -33 -31 -78 9 -131 42 -56 71 -60 132 -18 63 44 101 58 217 81
104 21 145 36 167 63 35 42 -29 86 -124 85 -33 0 -67 -3 -75 -6z"/>
<path d="M4566 6505 c-19 -19 -41 -53 -47 -76 -8 -25 -26 -52 -48 -70 l-35
-29 26 -27 c33 -36 26 -51 -23 -59 -45 -8 -49 -22 -14 -52 14 -12 25 -28 25
-35 0 -19 -21 -37 -42 -37 -15 0 -18 -9 -18 -50 l0 -50 -40 2 c-50 2 -57 -5
-40 -38 16 -30 7 -50 -33 -74 -14 -8 -37 -29 -50 -45 -31 -38 -110 -82 -163
-90 -46 -8 -80 4 -152 52 -112 74 -344 171 -477 199 -373 79 -835 -19 -1179
-250 -383 -258 -589 -690 -522 -1096 45 -273 174 -408 520 -545 l139 -55 482
0 482 0 149 50 c283 96 455 200 584 354 68 80 107 110 133 100 7 -2 24 -23 36
-44 29 -52 39 -56 53 -26 15 35 21 33 41 -13 18 -40 45 -60 52 -38 2 6 6 24 9
40 10 42 34 33 43 -15 11 -55 34 -60 56 -13 20 42 40 41 47 -1 8 -43 37 -43
55 0 19 45 32 45 51 0 18 -43 46 -43 54 1 7 41 31 38 51 -5 23 -48 42 -44 55
9 13 56 30 63 48 19 8 -18 18 -36 22 -40 14 -14 34 14 34 49 0 45 23 53 58 20
37 -35 50 -36 65 -7 7 14 41 44 76 67 77 51 81 56 81 111 0 34 -6 49 -34 79
l-34 37 -107 -13 c-60 -7 -123 -20 -141 -27 -41 -17 -294 -19 -429 -4 -103 12
-165 42 -191 92 -29 57 -15 127 35 172 21 19 21 19 58 -23 39 -47 45 -45 57
22 7 38 26 52 26 18 0 -24 39 -73 54 -68 6 2 13 26 16 53 6 61 27 65 47 9 27
-79 53 -69 53 20 l0 50 35 -37 c18 -21 39 -38 45 -38 17 0 22 24 10 55 -6 15
-9 29 -7 31 1 2 24 -11 49 -27 26 -17 52 -28 58 -24 8 5 9 28 5 71 -4 35 -4
64 1 64 4 0 36 -16 71 -35 35 -19 68 -35 73 -35 16 0 11 33 -10 65 -23 35 -24
45 -7 69 13 17 16 17 71 -13 32 -17 62 -28 67 -25 20 12 8 54 -21 76 -36 26
-37 33 -6 53 23 15 27 15 66 -5 22 -11 45 -18 50 -15 12 8 -6 54 -32 82 -31
33 -18 52 31 46 39 -5 41 -4 41 20 0 14 12 47 26 75 20 39 24 57 19 86 -14 70
-79 123 -137 111 -16 -4 -54 -29 -84 -56 -30 -27 -61 -49 -68 -49 -8 0 -25
-19 -38 -42 -13 -24 -37 -50 -54 -58 -17 -8 -48 -34 -69 -58 -74 -83 -308
-172 -451 -172 -67 0 -76 2 -108 30 -39 35 -61 88 -52 126 7 28 20 30 70 9 49
-21 59 -12 51 41 -3 24 -3 44 0 44 4 0 20 -11 37 -25 51 -43 77 -28 38 22 -11
14 -20 32 -20 41 0 15 10 14 67 -9 44 -18 52 -5 25 41 -26 46 -27 63 -7 80 11
10 24 9 62 -4 25 -9 53 -16 60 -16 20 0 16 29 -13 77 -14 24 -22 48 -18 54 4
7 32 9 84 4 58 -5 80 -4 86 6 8 13 1 20 -66 62 -20 13 -35 31 -35 42 0 20 9
23 145 52 l25 5 -30 15 c-39 20 -75 53 -75 70 0 13 23 21 80 25 28 2 36 8 38
25 3 17 -6 28 -32 44 -42 24 -45 41 -12 62 67 44 25 212 -68 268 -47 29 -80
24 -120 -16z m-1599 -590 c19 -39 7 -65 -31 -65 -41 0 -58 38 -36 81 17 31 48
23 67 -16z m600 -1 c8 -21 -19 -46 -40 -38 -20 7 -22 25 -5 42 17 17 37 15 45
-4z m-332 -14 c9 -15 -43 -36 -56 -23 -6 6 -8 16 -5 22 9 14 53 14 61 1z
m-717 -66 c18 -13 21 -19 11 -30 -15 -19 -58 -18 -65 1 -6 15 11 45 25 45 4 0
17 -7 29 -16z m1207 -49 c14 -13 25 -30 25 -38 0 -19 -21 -37 -45 -37 -28 0
-45 19 -45 50 0 26 16 50 32 50 5 0 20 -11 33 -25z m-949 -10 c9 -35 -1 -53
-31 -61 -47 -12 -72 31 -38 68 24 27 61 23 69 -7z m640 4 c11 -18 7 -69 -7
-85 -6 -8 -23 -14 -37 -14 -52 0 -81 59 -46 94 18 18 79 21 90 5z m-352 -114
c31 -29 33 -58 5 -86 -15 -15 -28 -19 -47 -14 -63 16 -81 68 -36 104 34 27 45
26 78 -4z m-776 -4 c21 -13 10 -46 -16 -49 -27 -4 -40 22 -22 43 14 17 20 18
38 6z m252 -26 c18 -21 5 -47 -22 -43 -26 3 -37 36 -16 49 18 12 24 11 38 -6z
m1444 -51 c20 -19 20 -28 2 -44 -32 -26 -87 7 -73 44 8 20 51 21 71 0z m-1240
-40 c23 -23 20 -51 -8 -69 -33 -22 -66 -5 -66 33 0 49 42 69 74 36z m924 -35
c6 -52 -50 -61 -69 -12 -12 33 -3 45 34 41 26 -2 33 -8 35 -29z m-328 -14 c30
-32 18 -60 -25 -60 -37 0 -53 25 -37 59 15 33 32 33 62 1z m-972 -17 c17 -17
15 -45 -4 -52 -20 -8 -44 10 -44 34 0 31 26 40 48 18z m-232 -23 c15 -23 15
-27 0 -50 -9 -14 -23 -25 -31 -25 -9 0 -21 11 -27 25 -13 30 3 75 27 75 8 0
22 -11 31 -25z m1024 -51 c11 -13 10 -19 -7 -36 -26 -25 -53 -18 -53 15 0 13
3 27 7 30 11 12 40 7 53 -9z m708 -21 c4 -25 -32 -83 -50 -83 -6 0 -20 7 -30
17 -39 35 -8 96 46 91 23 -2 32 -9 34 -25z m-960 -26 c2 -12 -3 -17 -17 -17
-12 0 -21 6 -21 13 0 31 32 34 38 4z m632 8 c20 -25 4 -48 -28 -40 -38 9 -46
20 -27 39 20 20 39 20 55 1z m485 -1 c14 -15 15 -19 2 -31 -17 -17 -57 -9 -57
11 0 13 20 36 31 36 4 0 15 -7 24 -16z m-2067 -22 c2 -14 -2 -22 -12 -22 -19
0 -29 17 -22 36 8 22 30 12 34 -14z m602 -13 c0 -5 -6 -9 -14 -9 -15 0 -28 24
-19 34 7 7 33 -13 33 -25z m2178 8 c2 -11 -3 -17 -17 -17 -23 0 -35 15 -26 31
10 15 39 6 43 -14z m-1908 -18 c0 -12 -29 -24 -37 -16 -3 4 -3 13 0 21 6 16
37 11 37 -5z m1370 -109 c13 -25 4 -60 -16 -60 -23 0 -40 46 -24 65 17 20 27
19 40 -5z m-779 -25 c59 -20 114 -67 142 -118 29 -55 31 -175 3 -227 -25 -49
-74 -98 -121 -123 -57 -31 -193 -31 -250 0 -82 44 -134 129 -135 219 0 65 49
166 101 207 71 56 171 72 260 42z m-1260 -41 c46 -45 59 -84 59 -179 0 -96
-13 -137 -59 -178 -68 -61 -167 -58 -238 7 -35 31 -36 36 -41 114 -7 116 3
166 41 209 52 59 84 75 145 70 45 -3 58 -9 93 -43z m1739 27 c24 -47 0 -88
-45 -77 -36 9 -45 54 -15 78 29 23 47 23 60 -1z m251 -97 c11 -14 10 -18 -6
-30 -24 -18 -30 -18 -45 1 -10 12 -10 18 0 30 16 19 34 19 51 -1z m-97 -90
c37 -14 3 -98 -37 -92 -30 4 -37 66 -11 85 20 15 26 16 48 7z m-174 -115 c14
-26 -4 -51 -34 -47 -21 3 -32 28 -22 54 8 21 44 17 56 -7z m238 -91 c-3 -25
-34 -36 -51 -19 -14 14 9 41 35 41 14 0 19 -6 16 -22z m-397 -54 c11 -14 10
-18 -6 -30 -24 -18 -30 -18 -45 1 -10 12 -10 18 0 30 16 19 34 19 51 -1z m259
-44 c24 -24 25 -39 6 -66 -18 -23 -42 -12 -66 29 -12 21 -12 28 -1 41 18 21
37 20 61 -4z m-2096 -41 c19 -27 10 -49 -20 -49 -32 0 -47 30 -27 52 21 23 29
23 47 -3z m1886 -91 c11 -12 20 -30 20 -40 0 -21 -44 -41 -71 -33 -24 8 -32
36 -20 69 13 32 43 34 71 4z m-1762 -96 c3 -32 -11 -62 -29 -62 -5 0 -16 11
-25 25 -15 23 -15 27 0 51 23 35 50 28 54 -14z m1489 16 c13 -12 23 -29 23
-38 0 -25 -35 -52 -62 -48 -19 2 -24 10 -26 42 -2 21 -1 44 2 52 8 21 36 17
63 -8z m-459 -27 c69 -10 81 -16 65 -32 -22 -22 -201 -31 -528 -27 -323 4
-375 9 -375 37 0 8 35 25 75 35 31 8 693 -3 763 -13z"/>
<path d="M3388 5079 c-34 -19 -11 -109 27 -109 17 0 45 38 45 62 0 18 -33 58
-47 58 -5 0 -16 -5 -25 -11z"/>
<path d="M5090 6455 c-6 -8 -12 -30 -12 -49 0 -96 56 -146 109 -96 46 42 34
93 -31 138 -38 26 -49 27 -66 7z"/>
<path d="M2894 6325 c-20 -49 -18 -64 12 -75 58 -23 104 34 70 86 -25 37 -64
32 -82 -11z"/>
<path d="M5885 6349 c-32 -18 -85 -72 -85 -86 0 -8 13 -13 34 -13 41 0 46 -7
66 -85 24 -97 48 -67 48 60 -1 122 -15 150 -63 124z"/>
<path d="M4080 6337 c-29 -15 -70 -72 -70 -99 0 -30 54 -78 87 -78 36 0 71 24
84 57 15 40 -6 100 -41 118 -34 18 -29 18 -60 2z m56 -81 c8 -32 -2 -46 -31
-46 -25 0 -39 23 -30 51 10 29 53 25 61 -5z"/>
<path d="M3506 6301 c-23 -25 -17 -52 15 -70 24 -13 29 -13 53 3 22 14 27 24
24 49 -3 29 -7 32 -39 35 -25 2 -40 -3 -53 -17z"/>
<path d="M3792 6275 c-23 -49 -8 -105 28 -105 70 0 100 88 41 119 -33 18 -57
13 -69 -14z"/>
<path d="M5307 6282 c-32 -35 -21 -57 69 -137 121 -108 188 -149 244 -149 40
-1 45 2 54 27 14 39 -7 70 -89 134 -76 58 -222 143 -246 143 -9 0 -23 -8 -32
-18z"/>
<path d="M1560 6207 c-31 -15 -78 -109 -87 -172 -5 -41 -3 -50 26 -85 l31 -39
-26 -20 c-32 -25 -26 -48 13 -57 65 -14 69 -23 23 -51 -31 -18 -39 -41 -17
-47 6 -3 24 -7 40 -10 32 -8 34 -22 6 -52 -24 -26 -18 -44 14 -44 12 0 32 -3
44 -6 l23 -6 -25 -30 c-43 -51 -23 -76 35 -43 29 17 66 19 75 5 7 -11 -17 -61
-39 -79 -9 -8 -16 -17 -16 -22 0 -17 39 -9 67 15 15 13 45 31 65 39 42 18 56
39 65 102 5 38 1 55 -25 108 -17 34 -33 74 -36 88 -3 15 -17 31 -32 38 -26 11
-26 12 -8 38 17 27 17 27 -16 54 -30 26 -32 30 -21 56 10 25 9 36 -8 74 -11
24 -21 52 -21 61 0 9 -17 35 -38 58 -41 42 -68 49 -112 27z"/>
<path d="M5115 6100 c-8 -38 3 -90 21 -97 17 -6 69 14 85 33 10 12 7 20 -12
40 -21 23 -69 54 -83 54 -2 0 -7 -13 -11 -30z"/>
<path d="M6146 6105 c-64 -48 -74 -134 -26 -207 39 -59 66 -71 130 -57 58 12
105 47 114 84 13 51 -60 162 -122 186 -34 13 -74 11 -96 -6z m91 -80 c51 -36
50 -125 -2 -125 -50 0 -84 83 -48 122 20 22 23 22 50 3z"/>
<path d="M5755 5903 c-99 -50 -139 -111 -139 -208 0 -221 262 -291 367 -98 67
124 45 224 -67 304 -49 36 -94 37 -161 2z"/>
<path d="M6435 5797 c-45 -45 -53 -91 -26 -151 16 -37 29 -51 63 -66 38 -17
45 -17 77 -4 47 20 62 33 78 72 18 43 4 98 -34 134 -64 59 -110 63 -158 15z
m110 -107 c0 -55 -25 -75 -54 -45 -32 32 -36 70 -11 95 19 19 24 20 43 7 17
-11 22 -24 22 -57z"/>
<path d="M6186 5674 c-20 -20 -20 -22 5 -97 54 -160 182 -357 222 -341 42 16
33 93 -26 225 -52 115 -98 184 -140 210 -39 23 -41 23 -61 3z"/>
<path d="M1166 5554 c-33 -34 -47 -82 -35 -131 5 -21 9 -53 9 -72 0 -32 2 -33
30 -28 38 8 50 -11 20 -33 -36 -27 -20 -50 34 -50 52 0 59 -12 38 -57 -19 -41
-10 -51 31 -34 18 7 44 16 60 18 32 6 35 -11 12 -77 -25 -71 -1 -80 65 -25 24
20 48 34 54 32 18 -6 18 -53 1 -87 -9 -18 -14 -38 -11 -46 7 -19 32 -6 86 42
43 39 56 42 65 15 7 -23 -2 -50 -28 -79 -15 -16 -18 -25 -10 -33 17 -17 50 22
68 83 21 70 40 200 32 220 -3 9 -25 25 -49 36 -24 10 -88 53 -144 95 -56 43
-106 77 -111 77 -6 0 -14 15 -17 33 -6 33 -60 94 -103 116 -35 18 -69 13 -97
-15z"/>
<path d="M6658 5473 c-50 -42 -68 -66 -65 -88 2 -17 8 -20 38 -17 31 2 41 -2
60 -29 13 -17 38 -47 56 -66 27 -29 35 -33 53 -23 11 6 20 20 20 31 0 38 -99
219 -120 219 -5 0 -23 -12 -42 -27z"/>
<path d="M5984 5428 c-51 -24 -50 -86 2 -127 34 -26 54 -27 88 0 42 33 35 99
-15 124 -32 17 -46 18 -75 3z"/>
<path d="M5523 5383 c-39 -27 -28 -59 68 -213 121 -194 186 -317 265 -501 74
-174 99 -217 132 -225 29 -8 62 20 62 53 0 53 -97 306 -185 483 -100 203 -207
361 -270 400 -38 24 -43 24 -72 3z"/>
<path d="M5318 5139 c-10 -5 -18 -20 -18 -32 0 -51 147 -312 217 -385 36 -38
44 -42 62 -33 11 6 25 20 31 31 30 55 -135 357 -225 412 -34 20 -43 21 -67 7z"/>
<path d="M6112 5114 c-34 -23 -28 -63 32 -240 62 -178 93 -295 132 -482 55
-271 83 -335 131 -304 40 26 39 117 -3 352 -63 345 -191 690 -257 690 -7 0
-23 -7 -35 -16z"/>
<path d="M6455 5097 c-17 -13 -17 -18 8 -128 15 -63 44 -181 66 -264 50 -193
67 -296 86 -535 16 -204 30 -302 46 -332 12 -23 62 -24 80 -1 24 28 17 404
-10 583 -29 191 -65 351 -107 478 -60 182 -110 241 -169 199z"/>
<path d="M6812 5080 c-46 -19 -66 -117 -37 -185 28 -69 112 -71 178 -4 36 35
39 43 34 76 -8 45 -59 100 -107 113 -41 11 -38 11 -68 0z m78 -79 c24 -46 5
-113 -27 -93 -26 17 -44 88 -26 105 13 14 43 7 53 -12z"/>
<path d="M1030 4960 c-16 -10 -6 -38 15 -47 21 -7 37 9 30 30 -8 20 -28 28
-45 17z"/>
<path d="M992 4760 c-7 -11 -22 -20 -35 -20 -12 0 -29 -5 -37 -10 -13 -9 -10
-15 19 -41 28 -26 32 -35 27 -62 -17 -79 -17 -95 -6 -102 17 -11 59 33 86 90
26 54 32 133 12 153 -18 18 -52 14 -66 -8z"/>
<path d="M6935 4701 c-68 -42 -88 -99 -33 -93 31 3 48 -20 48 -65 0 -45 20
-103 35 -103 20 0 29 59 22 150 -6 77 -20 130 -34 130 -5 0 -21 -8 -38 -19z"/>
<path d="M1322 4578 c-30 -30 -3 -77 63 -111 48 -24 187 -67 217 -67 20 0 32
7 39 23 26 57 -50 124 -172 151 -81 19 -131 20 -147 4z"/>
<path d="M5600 4551 c-31 -59 2 -111 70 -111 76 0 108 66 54 109 -36 28 -109
29 -124 2z"/>
<path d="M5400 4414 c-31 -36 -7 -108 34 -102 17 2 22 11 24 46 5 62 -28 93
-58 56z"/>
<path d="M960 4383 c-30 -12 -92 -67 -101 -91 -21 -54 41 -142 99 -142 38 1
108 34 121 58 39 72 -49 201 -119 175z m58 -95 c16 -16 15 -40 -2 -63 -12 -17
-17 -18 -40 -7 -27 12 -51 56 -40 73 8 13 68 11 82 -3z"/>
<path d="M4199 4284 c-93 -101 -423 -267 -661 -333 -42 -12 -139 -31 -215 -42
-154 -22 -176 -27 -168 -39 7 -12 275 -123 370 -154 220 -71 387 -75 429 -11
40 61 6 132 -84 178 -83 41 -63 55 95 64 150 9 245 -23 245 -82 0 -76 -109
-262 -187 -319 -55 -41 -184 -86 -247 -86 -77 0 -146 -34 -146 -72 0 -10 1
-18 3 -18 1 0 27 -9 57 -19 50 -17 55 -21 54 -47 -1 -16 -11 -55 -23 -86 -26
-70 -27 -116 -4 -125 12 -5 35 13 83 65 96 104 112 99 116 -36 4 -129 30 -136
92 -23 19 35 41 65 49 68 9 4 30 -10 53 -36 21 -22 43 -41 49 -41 22 0 42 49
50 124 10 84 16 96 99 194 130 151 187 246 217 363 32 122 4 265 -70 361 -49
63 -196 178 -228 178 -2 0 -14 -12 -28 -26z m82 -145 c13 -26 -8 -53 -34 -43
-18 7 -31 39 -22 54 11 17 44 11 56 -11z m113 -125 c10 -4 16 -18 16 -40 0
-27 -4 -34 -19 -34 -20 0 -39 49 -26 70 7 12 8 12 29 4z m-766 -180 c29 -20
28 -32 -3 -40 -29 -7 -55 10 -55 37 0 23 27 25 58 3z m202 -49 c17 -20 -3 -45
-36 -45 -23 0 -41 30 -29 50 9 15 51 12 65 -5z"/>
<path d="M5155 4296 c-16 -12 -17 -16 -6 -30 18 -21 28 -20 40 3 15 27 -9 46
-34 27z"/>
<path d="M6040 4290 c-14 -27 -28 -227 -40 -595 -6 -170 -17 -350 -25 -400
-33 -208 -7 -299 60 -211 87 114 121 381 113 880 -5 281 -12 320 -55 337 -34
13 -41 12 -53 -11z"/>
<path d="M4882 4281 c-21 -13 -10 -46 16 -49 27 -4 40 22 22 43 -14 17 -20 18
-38 6z"/>
<path d="M5705 4250 c-38 -39 -38 -40 -26 -80 15 -50 49 -74 91 -65 67 15 82
95 26 151 -19 19 -38 34 -43 34 -5 0 -26 -18 -48 -40z"/>
<path d="M6916 4249 c-45 -39 -55 -84 -30 -136 11 -20 34 -46 51 -56 43 -25
89 -10 137 44 48 53 48 86 -2 139 -33 34 -45 40 -80 40 -32 0 -49 -7 -76 -31z
m103 -61 c31 -55 -28 -107 -63 -56 -20 29 -20 47 1 70 22 24 44 19 62 -14z"/>
<path d="M1284 4226 c-12 -31 0 -51 31 -51 24 0 31 5 33 24 6 36 -51 60 -64
27z"/>
<path d="M5429 4183 c-34 -41 -13 -403 25 -442 15 -14 19 -14 43 -1 33 19 41
48 49 180 8 127 -7 249 -32 267 -25 18 -69 16 -85 -4z"/>
<path d="M5146 4099 c-55 -43 -19 -145 49 -137 31 3 60 38 71 80 4 21 0 33
-20 52 -30 31 -64 33 -100 5z"/>
<path d="M4861 4066 c-27 -27 -32 -40 -27 -60 8 -34 44 -66 74 -66 28 0 82 53
82 80 0 20 -63 80 -83 80 -7 0 -28 -15 -46 -34z"/>
<path d="M1611 4014 c-39 -50 -23 -202 44 -409 58 -181 106 -247 169 -231 40
10 41 42 3 146 -38 106 -64 201 -103 369 -34 147 -67 184 -113 125z"/>
<path d="M928 3971 c-81 -51 -97 -129 -39 -185 37 -35 86 -42 131 -19 68 35
75 113 17 180 -47 54 -58 56 -109 24z m73 -87 c5 -15 7 -35 4 -45 -14 -42 -85
-29 -85 16 0 41 11 55 41 55 23 0 32 -6 40 -26z"/>
<path d="M5751 3974 c-50 -64 -49 -230 3 -282 20 -20 27 -22 45 -13 27 15 39
39 51 102 14 74 2 155 -27 190 -30 36 -46 36 -72 3z"/>
<path d="M1257 3969 c-29 -22 -52 -88 -42 -119 11 -34 64 -70 103 -70 80 0
121 49 102 120 -21 76 -107 114 -163 69z m91 -51 c16 -16 15 -53 -2 -67 -8 -7
-27 -11 -43 -9 -38 4 -45 49 -11 72 27 19 40 20 56 4z"/>
<path d="M6366 3937 c-26 -26 -31 -54 -46 -232 -14 -175 -13 -297 4 -320 12
-16 17 -17 44 -6 55 23 82 147 82 378 0 170 -30 234 -84 180z"/>
<path d="M6940 3919 c-46 -28 -90 -70 -90 -86 0 -8 13 -13 35 -13 44 0 51 -13
59 -117 3 -45 9 -89 12 -98 9 -23 43 -18 54 9 13 36 23 207 16 270 -7 49 -10
56 -29 56 -12 0 -38 -10 -57 -21z"/>
<path d="M2707 3849 c-36 -32 -57 -119 -57 -235 0 -109 3 -119 91 -304 46 -97
74 -171 84 -223 18 -90 34 -129 49 -124 6 2 26 32 45 67 39 73 26 79 114 -55
36 -54 60 -81 75 -83 21 -3 22 0 22 61 0 35 -7 86 -15 113 -8 27 -15 52 -15
57 0 20 45 2 92 -36 75 -61 105 -80 118 -72 19 12 10 54 -30 131 -42 81 -41
94 6 94 24 0 85 39 91 57 7 21 -35 34 -140 43 -56 5 -116 14 -132 20 -50 19
-94 59 -119 108 -46 94 -42 135 23 233 23 34 41 65 41 69 0 4 -43 27 -97 50
-124 55 -206 64 -246 29z m133 -114 c10 -12 10 -18 0 -30 -25 -30 -61 -7 -46
30 3 8 12 15 19 15 8 0 20 -7 27 -15z m6 -229 c9 -24 -15 -58 -38 -54 -30 4
-45 32 -29 52 17 20 60 21 67 2z"/>
<path d="M5147 3832 c-23 -26 -38 -116 -35 -209 l3 -78 33 -3 c18 -2 39 2 47
8 16 13 55 172 55 224 0 64 -65 100 -103 58z"/>
<path d="M4846 3783 c-59 -118 -165 -455 -153 -487 10 -25 69 -20 100 8 37 34
94 177 137 348 25 96 25 119 -1 152 -31 40 -55 34 -83 -21z"/>
<path d="M6642 3636 c-30 -35 -35 -50 -47 -140 -4 -27 -22 -120 -41 -208 -40
-189 -44 -252 -14 -268 68 -36 122 80 180 383 28 149 27 197 -6 236 -14 17
-29 31 -34 31 -4 0 -21 -15 -38 -34z"/>
<path d="M1147 3633 c-4 -3 -7 -21 -7 -39 0 -18 -5 -36 -10 -39 -6 -4 -39 4
-74 16 -34 12 -70 20 -79 16 -23 -9 -22 -61 3 -114 23 -51 48 -56 57 -13 7 36
8 36 64 10 61 -27 95 -26 115 5 14 22 15 31 4 71 -18 64 -54 107 -73 87z"/>
<path d="M1396 3584 c-11 -29 -6 -71 10 -85 13 -11 20 -11 42 2 33 18 39 42
18 74 -19 28 -61 34 -70 9z"/>
<path d="M5423 3578 c-24 -28 -44 -78 -78 -199 -50 -175 -52 -219 -15 -239 56
-30 150 156 166 331 11 111 -24 161 -73 107z"/>
<path d="M5747 3582 c-30 -33 -50 -104 -51 -185 -1 -72 1 -80 23 -98 31 -26
59 -21 85 14 17 23 21 45 24 130 3 111 -8 150 -44 155 -11 2 -28 -5 -37 -16z"/>
<path d="M6881 3464 c-42 -30 -65 -119 -41 -164 15 -27 73 -60 108 -60 36 0
86 52 97 99 9 40 -18 95 -60 121 -39 24 -73 25 -104 4z m93 -86 c15 -25 -4
-72 -31 -76 -22 -3 -53 30 -53 58 0 40 62 53 84 18z"/>
<path d="M5025 3403 c-39 -38 10 -117 69 -111 27 3 31 7 34 34 2 24 -4 39 -28
63 -36 35 -51 38 -75 14z"/>
<path d="M1485 3366 c-19 -28 -11 -54 20 -62 58 -14 84 22 45 64 -27 28 -46
28 -65 -2z"/>
<path d="M1187 3346 c-3 -8 -2 -29 3 -47 5 -18 8 -34 7 -35 -2 -2 -31 6 -66
16 -34 11 -83 20 -107 20 -36 0 -44 -3 -44 -19 0 -26 17 -38 101 -67 101 -34
159 -45 182 -32 29 15 20 118 -13 153 -26 28 -55 33 -63 11z"/>
<path d="M1896 3259 c-35 -28 -33 -58 10 -116 92 -123 263 -274 420 -371 215
-134 523 -259 661 -269 80 -6 103 3 103 42 0 36 -50 70 -140 94 -139 38 -258
88 -404 169 -170 95 -289 183 -476 350 -63 57 -122 108 -131 113 -12 6 -25 2
-43 -12z"/>
<path d="M6281 3212 c-10 -19 -45 -153 -56 -216 -8 -47 9 -93 38 -102 29 -9
72 41 91 105 22 74 31 184 17 210 -15 27 -76 30 -90 3z"/>
<path d="M1584 3196 c-3 -8 -4 -27 -2 -43 2 -22 8 -28 27 -28 13 0 29 8 35 17
8 14 5 22 -14 43 -27 28 -38 31 -46 11z"/>
<path d="M4601 3196 c-7 -8 -11 -32 -9 -53 3 -33 6 -38 28 -38 35 0 50 44 26
79 -19 30 -29 32 -45 12z"/>
<path d="M4913 3166 c-60 -68 -88 -131 -77 -175 17 -68 124 -106 182 -65 49
34 68 127 38 197 -14 35 -69 87 -91 87 -7 0 -31 -20 -52 -44z m87 -97 c25 -46
-18 -102 -60 -79 -26 14 -25 40 1 74 25 31 44 33 59 5z"/>
<path d="M5623 3181 c-125 -91 -81 -271 67 -271 62 0 106 25 130 74 25 52 25
69 1 123 -23 49 -91 103 -131 103 -15 0 -45 -13 -67 -29z m99 -68 c26 -30 30
-60 13 -93 -20 -38 -39 -38 -76 0 -23 23 -29 35 -24 52 10 32 35 58 55 58 9 0
24 -8 32 -17z"/>
<path d="M1045 3067 c-30 -17 -40 -29 -40 -47 0 -21 6 -26 35 -30 29 -4 38
-12 53 -45 40 -89 53 -110 67 -110 9 0 16 11 18 28 6 52 -57 227 -82 227 -6 0
-29 -11 -51 -23z"/>
<path d="M1362 3077 c-6 -7 -15 -24 -21 -39 -12 -32 2 -48 44 -48 56 0 72 40
32 78 -27 25 -40 27 -55 9z"/>
<path d="M6810 3028 c-11 -18 -20 -43 -20 -55 0 -19 6 -23 30 -23 40 0 66 38
53 77 -14 40 -39 40 -63 1z"/>
<path d="M4400 3015 c-57 -33 -160 -134 -160 -156 0 -10 12 -27 26 -38 30 -23
46 -19 127 32 83 53 125 113 115 164 -5 28 -56 27 -108 -2z"/>
<path d="M1696 3014 c-19 -18 -21 -55 -4 -72 29 -29 77 -2 78 44 0 41 -44 58
-74 28z"/>
<path d="M5205 2985 c-32 -31 -33 -78 -3 -99 31 -22 101 -21 121 2 40 44 -1
122 -63 122 -19 0 -40 -9 -55 -25z"/>
<path d="M5896 2887 c-47 -62 -119 -228 -120 -277 -1 -43 0 -45 30 -48 26 -3
36 3 61 35 42 54 87 138 113 210 21 59 22 64 6 88 -24 36 -59 33 -90 -8z"/>
<path d="M4625 2874 c-49 -53 -42 -130 17 -179 34 -29 73 -32 108 -8 38 26 49
45 50 82 0 27 -9 43 -49 82 -57 57 -89 63 -126 23z m95 -66 c11 -18 20 -39 20
-45 0 -19 -31 -16 -67 7 -35 21 -41 38 -21 58 21 21 48 13 68 -20z"/>
<path d="M1458 2834 c-13 -28 -5 -50 26 -68 33 -21 63 53 34 82 -20 20 -48 14
-60 -14z"/>
<path d="M1849 2822 c-68 -68 -59 -124 25 -166 50 -24 85 -13 108 34 28 55 24
106 -11 141 -41 41 -74 38 -122 -9z m86 -53 c4 -5 4 -21 1 -35 -5 -20 -12 -25
-34 -22 -27 3 -39 25 -28 54 6 16 52 19 61 3z"/>
<path d="M5435 2818 c-39 -30 -85 -106 -85 -140 0 -37 49 -91 112 -122 59 -30
104 -33 136 -10 31 21 82 113 82 147 0 43 -14 61 -81 106 -72 48 -120 54 -164
19z m112 -90 c75 -73 10 -150 -66 -79 -37 34 -39 56 -9 88 28 30 36 29 75 -9z"/>
<path d="M4047 2771 c-9 -16 -17 -38 -17 -49 0 -26 46 -63 68 -55 71 26 85 79
30 113 -45 27 -61 25 -81 -9z"/>
<path d="M5032 2773 c-7 -3 -19 -18 -28 -34 -18 -35 -6 -66 30 -75 40 -10 66
11 66 54 0 53 -24 73 -68 55z"/>
<path d="M6484 2761 c-39 -24 -70 -63 -84 -107 -16 -48 14 -109 78 -155 85
-62 183 -41 227 49 20 41 13 78 -26 132 -33 45 -111 100 -143 100 -12 0 -35
-9 -52 -19z m100 -111 c24 -16 46 -36 49 -44 13 -33 -65 -71 -99 -48 -31 20
-44 88 -22 110 17 17 24 15 72 -18z"/>
<path d="M6144 2724 c-42 -44 -154 -265 -154 -304 0 -35 21 -53 54 -44 80 20
230 300 196 364 -17 32 -58 25 -96 -16z"/>
<path d="M1192 2719 c-79 -52 -84 -153 -8 -184 104 -44 209 94 132 173 -32 33
-83 38 -124 11z m78 -60 c17 -30 -11 -69 -49 -69 -40 0 -45 23 -15 60 30 35
49 38 64 9z"/>
<path d="M1583 2694 c-19 -30 -8 -59 23 -59 25 0 46 43 33 67 -14 25 -36 22
-56 -8z"/>
<path d="M3785 2675 c-30 -29 -33 -70 -6 -85 36 -19 90 -12 116 15 14 13 25
29 25 35 0 23 -49 60 -80 60 -19 0 -40 -9 -55 -25z"/>
<path d="M4368 2660 c-42 -42 -43 -60 -2 -60 38 0 61 -16 90 -61 19 -30 31
-39 47 -37 18 2 21 9 19 32 -6 55 -72 166 -99 166 -8 0 -33 -18 -55 -40z"/>
<path d="M2084 2646 c-43 -19 -74 -62 -74 -103 0 -27 8 -43 35 -70 32 -32 39
-35 78 -30 57 8 97 52 97 107 0 29 -7 47 -27 69 -34 37 -68 45 -109 27z m64
-58 c17 -17 15 -38 -5 -60 -18 -21 -44 -23 -60 -7 -19 19 14 73 48 78 3 1 10
-4 17 -11z"/>
<path d="M3516 2609 c-29 -34 -31 -42 -16 -70 8 -14 21 -19 53 -19 53 0 70 11
70 44 0 31 -38 76 -64 76 -9 0 -29 -14 -43 -31z"/>
<path d="M4856 2594 c-20 -53 10 -93 57 -75 30 12 39 43 20 70 -17 25 -68 28
-77 5z"/>
<path d="M3260 2580 c-25 -25 -25 -27 0 -67 23 -39 48 -42 78 -10 29 31 28 40
-9 71 -37 31 -43 32 -69 6z"/>
<path d="M2348 2545 c-23 -50 20 -82 60 -44 33 30 26 63 -15 67 -27 3 -35 -1
-45 -23z"/>
<path d="M4069 2511 c-148 -65 -184 -97 -165 -147 5 -14 16 -16 63 -10 100 12
184 38 227 70 46 36 55 65 32 102 -23 33 -54 30 -157 -15z"/>
<path d="M1690 2515 c-14 -17 -7 -43 15 -51 25 -10 65 5 65 24 0 39 -55 57
-80 27z"/>
<path d="M5182 2505 c-43 -36 -76 -107 -68 -149 10 -52 95 -117 172 -132 67
-12 162 83 150 150 -7 38 -74 119 -117 141 -45 24 -103 19 -137 -10z m119 -85
c56 -55 22 -138 -38 -94 -37 27 -50 65 -35 99 15 33 37 32 73 -5z"/>
<path d="M2570 2464 c-14 -35 -13 -46 6 -72 18 -27 45 -28 67 -4 22 25 21 44
-4 76 -26 33 -57 34 -69 0z"/>
<path d="M4630 2466 c-30 -13 -104 -46 -165 -74 -107 -49 -192 -82 -345 -136
-109 -39 -175 -77 -175 -101 0 -31 60 -57 115 -50 94 12 467 154 605 230 86
48 101 66 85 105 -12 28 -37 50 -57 50 -4 0 -33 -11 -63 -24z"/>
<path d="M1442 2410 c-44 -27 -73 -77 -70 -120 2 -26 11 -40 37 -57 19 -13 45
-23 58 -23 38 0 87 27 106 59 28 47 22 88 -17 127 -39 39 -67 43 -114 14z m62
-66 c40 -15 4 -74 -45 -74 -35 0 -40 29 -9 60 21 21 29 23 54 14z"/>
<path d="M2229 2387 c-46 -31 -52 -85 -15 -122 34 -34 103 -35 133 -2 41 44
31 106 -21 131 -45 21 -57 20 -97 -7z"/>
<path d="M6275 2397 c-39 -18 -89 -107 -79 -140 31 -104 220 -182 288 -118 48
45 41 132 -16 197 -54 61 -135 87 -193 61z m117 -105 c25 -26 32 -45 29 -84
-2 -32 -48 -21 -96 23 -45 41 -59 81 -32 93 24 10 72 -5 99 -32z"/>
<path d="M1863 2375 c-27 -19 -30 -59 -9 -110 16 -37 57 -56 85 -38 23 14 61
73 61 93 0 53 -91 89 -137 55z"/>
<path d="M2792 2378 c-7 -7 -12 -24 -12 -38 0 -49 51 -68 83 -32 34 37 15 82
-33 82 -14 0 -31 -5 -38 -12z"/>
<path d="M5695 2356 c-67 -29 -105 -106 -90 -183 8 -47 63 -100 111 -109 68
-13 147 43 175 124 21 61 -24 133 -103 166 -45 19 -54 19 -93 2z m65 -76 c0
-13 -7 -20 -20 -20 -19 0 -27 20 -13 33 13 14 33 6 33 -13z m-2 -92 c7 -7 12
-23 12 -36 0 -19 -5 -23 -22 -20 -23 3 -34 28 -24 54 7 17 18 18 34 2z"/>
<path d="M3003 2324 c-27 -42 -3 -74 72 -97 133 -40 358 -60 418 -38 14 6 28
20 32 32 11 33 -21 54 -107 74 -62 14 -349 55 -385 55 -7 0 -20 -12 -30 -26z"/>
<path d="M3659 2281 c-51 -51 -28 -101 47 -101 84 0 117 70 52 110 -45 27 -64
25 -99 -9z"/>
<path d="M4940 2198 c-38 -53 -38 -72 4 -114 45 -45 84 -46 120 -3 35 41 34
80 -5 124 -44 50 -79 48 -119 -7z"/>
<path d="M2477 2213 c-34 -62 6 -114 137 -178 121 -60 149 -65 171 -31 16 24
16 28 1 50 -43 67 -290 193 -309 159z"/>
<path d="M4687 2160 c-14 -11 -35 -36 -47 -55 -19 -31 -20 -39 -10 -71 16 -48
80 -114 111 -114 56 0 99 59 99 136 0 41 -5 51 -39 85 -44 44 -75 49 -114 19z
m78 -80 c22 -42 20 -80 -4 -80 -27 0 -51 37 -51 77 0 44 33 46 55 3z"/>
<path d="M2124 2150 c-11 -4 -33 -22 -47 -40 -55 -65 -25 -150 59 -166 51 -9
85 11 102 61 34 100 -29 180 -114 145z m46 -69 c22 -42 1 -89 -34 -75 -16 6
-22 48 -10 78 8 22 31 20 44 -3z"/>
<path d="M1665 2109 c-45 -39 -63 -96 -45 -139 18 -43 56 -70 100 -70 47 0 83
28 104 81 47 117 -67 209 -159 128z m89 -55 c36 -14 2 -74 -41 -74 -34 0 -40
27 -13 56 25 26 30 27 54 18z"/>
<path d="M3729 2107 c-9 -7 -21 -22 -27 -34 -16 -30 9 -55 52 -51 27 3 31 7
34 34 2 19 -3 38 -13 48 -19 19 -25 19 -46 3z"/>
<path d="M5422 2083 c-83 -49 -194 -138 -210 -169 -11 -22 -10 -27 13 -50 29
-29 39 -27 123 14 64 31 173 128 195 174 20 41 7 68 -31 68 -15 0 -56 -17 -90
-37z"/>
<path d="M2915 2065 c-58 -61 -55 -139 6 -170 60 -32 109 -15 133 45 25 63 21
114 -10 139 -42 33 -90 28 -129 -14z m93 -58 c6 -51 -69 -92 -76 -41 -3 23 42
77 61 71 6 -2 13 -15 15 -30z"/>
<path d="M6024 2082 c-59 -37 -80 -121 -47 -189 38 -81 138 -116 208 -73 83
51 65 156 -42 244 -43 36 -81 41 -119 18z m100 -113 c18 -21 26 -42 26 -70 0
-34 -3 -39 -23 -39 -32 0 -62 24 -81 65 -33 70 27 105 78 44z"/>
<path d="M4432 2064 c-27 -19 -52 -65 -52 -96 0 -34 33 -82 74 -108 32 -19 41
-20 65 -10 51 21 76 56 76 107 0 39 -5 49 -42 84 -46 43 -83 50 -121 23z m83
-68 c32 -48 -1 -118 -39 -87 -16 14 -23 91 -9 104 13 14 33 6 48 -17z"/>
<path d="M3204 2021 c-43 -26 -49 -39 -29 -61 12 -13 17 -35 16 -73 0 -56 17
-95 38 -83 40 25 63 182 32 220 -17 20 -19 20 -57 -3z"/>
<path d="M3428 1985 c-14 -8 -36 -35 -48 -60 -19 -39 -20 -50 -10 -80 12 -35
55 -79 90 -90 30 -9 73 16 93 55 50 97 -39 222 -125 175z m66 -87 c19 -53 -16
-104 -49 -72 -19 20 -19 54 1 82 19 28 36 24 48 -10z"/>
<path d="M2340 1962 c-28 -22 -31 -71 -9 -118 29 -57 78 -57 137 2 28 28 33
39 27 62 -10 41 -38 64 -86 69 -34 4 -50 1 -69 -15z"/>
<path d="M4190 1955 l-35 -26 -210 3 c-174 1 -216 -1 -247 -14 -80 -35 -49
-99 54 -111 76 -9 259 10 326 33 84 30 88 29 122 -46 31 -70 48 -78 62 -28 13
43 -1 170 -20 194 l-17 21 -35 -26z"/>
<path d="M5686 1871 c-57 -38 -69 -87 -37 -149 33 -64 66 -87 122 -86 69 1 99
30 99 96 0 93 -40 145 -117 154 -27 4 -46 -1 -67 -15z m93 -76 c33 -38 37 -55
21 -86 -16 -28 -38 -23 -60 14 -27 44 -27 107 1 107 4 0 21 -16 38 -35z"/>
<path d="M4825 1851 c-63 -39 -115 -117 -115 -172 0 -43 25 -102 56 -135 31
-34 32 -34 123 -34 110 0 140 12 176 73 32 55 34 136 6 183 -52 86 -176 129
-246 85z m99 -137 c33 -32 6 -103 -28 -75 -17 14 -30 66 -21 81 9 15 31 12 49
-6z"/>
<path d="M1939 1827 c-75 -50 -71 -161 7 -193 69 -29 129 2 163 85 11 25 11
37 1 61 -29 69 -106 91 -171 47z m89 -79 c5 -42 -15 -70 -46 -66 -35 4 -40 35
-11 72 26 33 53 30 57 -6z"/>
<path d="M2716 1788 c-65 -49 -65 -130 0 -187 46 -41 74 -40 112 4 56 63 52
131 -11 179 -41 31 -63 32 -101 4z"/>
<path d="M2259 1643 c-48 -44 -72 -87 -64 -114 10 -31 83 -79 120 -79 40 0 80
30 105 80 23 45 16 77 -28 123 -38 40 -81 37 -133 -10z m95 -49 c9 -8 16 -21
16 -27 0 -24 -31 -57 -54 -57 -44 0 -61 47 -29 82 20 22 46 23 67 2z"/>
<path d="M2997 1652 c-24 -26 -21 -65 6 -90 101 -95 979 -182 1092 -108 32 21
33 60 3 80 -25 16 -157 32 -343 41 -251 12 -511 44 -670 81 -75 17 -69 17 -88
-4z"/>
<path d="M5423 1638 c-51 -56 -52 -94 -3 -83 26 6 32 2 56 -37 60 -93 94 -113
94 -55 0 33 -50 149 -77 180 -22 23 -45 22 -70 -5z"/>
<path d="M4400 1634 c-91 -16 -128 -31 -141 -56 -28 -53 38 -93 140 -86 36 3
81 13 98 22 39 20 66 57 57 79 -5 15 -65 59 -75 56 -2 -1 -38 -7 -79 -15z"/>
<path d="M5145 1501 c-75 -14 -87 -186 -17 -242 49 -38 150 -11 172 47 40 105
-47 215 -155 195z m67 -78 c23 -20 25 -95 3 -113 -13 -10 -19 -9 -35 5 -29 26
-47 90 -30 110 16 20 39 19 62 -2z"/>
<path d="M2540 1460 c0 -12 18 -38 41 -58 l41 -38 -21 -59 c-25 -71 -25 -65
-1 -65 37 0 112 134 97 174 -8 20 -99 66 -132 66 -18 0 -25 -5 -25 -20z"/>
<path d="M2909 1393 c-56 -48 -75 -134 -45 -207 30 -71 107 -89 156 -36 60 64
60 182 0 242 -36 35 -69 36 -111 1z m73 -79 c9 -20 9 -34 -3 -66 -14 -41 -42
-69 -55 -55 -13 13 -16 104 -5 126 16 29 49 27 63 -5z"/>
<path d="M4778 1375 c-48 -33 -65 -88 -49 -159 21 -90 78 -136 145 -118 49 13
70 53 74 135 3 83 -8 111 -57 144 -44 29 -68 29 -113 -2z m103 -113 c9 -27 8
-37 -5 -57 -20 -30 -26 -31 -60 -4 -32 25 -34 61 -5 108 l21 35 19 -25 c10
-13 24 -39 30 -57z"/>
<path d="M3259 1313 c-40 -34 -59 -79 -59 -140 1 -82 51 -163 101 -163 26 0
77 47 99 91 37 72 19 174 -38 219 -34 27 -64 25 -103 -7z m91 -82 c18 -35 12
-79 -18 -112 -26 -30 -29 -30 -45 -15 -23 23 -23 103 0 128 21 24 50 23 63 -1z"/>
<path d="M4404 1321 c-18 -11 -44 -36 -60 -56 -36 -47 -38 -119 -7 -180 28
-55 54 -76 101 -82 71 -10 129 39 153 130 12 43 11 49 -20 111 -46 93 -100
118 -167 77z m96 -101 c13 -24 13 -86 0 -111 -15 -27 -54 -24 -74 6 -38 57 -4
161 44 135 11 -6 24 -19 30 -30z"/>
<path d="M3639 1260 c-47 -25 -69 -72 -69 -150 0 -81 19 -116 70 -130 136 -37
212 158 103 266 -38 39 -53 41 -104 14z m69 -148 c-5 -58 -29 -95 -49 -75 -21
21 -24 110 -4 139 16 25 17 25 37 7 17 -15 19 -27 16 -71z"/>
<path d="M4000 1258 c-50 -34 -72 -83 -67 -146 4 -63 28 -100 82 -126 35 -17
42 -18 78 -5 52 18 79 55 85 118 8 87 -56 181 -124 181 -12 0 -36 -10 -54 -22z
m87 -88 c26 -51 10 -130 -26 -130 -42 0 -74 77 -51 121 25 46 56 50 77 9z"/>
</g>
</svg>
