<?xml version="1.0" standalone="no"?>
<!DOCTYPE svg PUBLIC "-//W3C//DTD SVG 20010904//EN"
 "http://www.w3.org/TR/2001/REC-SVG-20010904/DTD/svg10.dtd">
<svg version="1.0" xmlns="http://www.w3.org/2000/svg"
 width="500.000000pt" height="500.000000pt" viewBox="0 0 500.000000 500.000000"
 preserveAspectRatio="xMidYMid meet">

<g transform="translate(0.000000,500.000000) scale(0.100000,-0.100000)"
fill="#000000" stroke="none">
<path d="M2427 4483 c-25 -38 -69 -96 -99 -130 -29 -34 -77 -90 -107 -125 -29
-35 -142 -153 -250 -263 -264 -270 -352 -364 -399 -427 -22 -29 -65 -84 -97
-123 -134 -166 -280 -438 -335 -625 -47 -161 -60 -254 -60 -439 0 -275 50
-495 157 -691 91 -168 269 -375 405 -471 80 -56 273 -155 361 -184 97 -32 248
-65 303 -65 23 0 56 -3 73 -6 l31 -7 0 -148 0 -149 70 0 70 0 0 219 0 219 43
35 c96 82 233 194 268 222 21 17 38 38 39 48 1 56 72 98 122 72 29 -14 31 -13
88 32 47 38 59 54 64 84 13 81 111 117 175 63 56 -47 50 -138 -12 -170 -36
-19 -92 -21 -112 -4 -12 10 -19 8 -38 -6 -13 -11 -44 -35 -69 -54 -25 -19 -51
-47 -57 -61 -14 -33 -60 -53 -98 -45 -25 6 -40 -2 -110 -61 -45 -37 -97 -81
-117 -96 -36 -28 -36 -29 -36 -103 l0 -75 38 7 c158 27 363 100 469 167 24 15
45 27 49 27 20 0 149 106 237 194 257 257 396 574 423 966 16 239 -58 538
-194 784 -143 259 -321 475 -713 866 -259 259 -376 385 -454 493 -38 53 -73
96 -76 96 -4 1 -27 -29 -52 -66z m-22 -2082 c-4 -9 -17 2 -40 32 l-35 46 0
817 0 818 38 39 37 38 3 -888 c1 -488 0 -894 -3 -902z m284 1664 c46 -23 56
-83 21 -128 -16 -20 -20 -40 -20 -104 l0 -80 -67 -64 -68 -64 -3 48 c-3 45 0
52 32 83 33 32 36 40 36 94 0 52 -3 62 -30 88 -38 39 -40 83 -5 117 27 28 63
32 104 10z m-429 -296 l0 -261 -23 29 c-13 15 -57 72 -98 126 -41 54 -82 108
-92 121 l-18 23 108 111 c59 61 111 111 116 111 4 1 7 -116 7 -260z m714 20
c31 -34 56 -66 56 -71 0 -16 -66 -37 -101 -32 -32 4 -44 -5 -204 -147 l-170
-151 -3 46 c-3 45 -1 48 54 98 31 29 77 68 102 88 95 73 162 143 162 167 0 28
20 63 36 63 7 0 37 -28 68 -61z m-932 -124 c35 -44 84 -107 108 -140 25 -33
59 -78 77 -99 l33 -40 0 -253 c0 -181 -3 -252 -11 -247 -6 3 -32 34 -57 69
-26 34 -74 95 -107 135 l-59 73 -4 121 c-3 103 -1 124 12 135 50 42 -18 127
-79 99 -44 -20 -51 -93 -10 -115 13 -8 15 -24 13 -87 l-3 -78 -87 110 c-132
168 -126 157 -92 195 45 51 198 207 200 204 1 -1 30 -38 66 -82z m949 -145
c23 -13 49 -61 49 -93 0 -71 -48 -117 -122 -117 -26 0 -44 -11 -84 -48 -83
-77 -272 -242 -278 -242 -3 0 -6 20 -6 44 0 41 4 46 67 102 55 49 159 141 197
175 6 5 10 36 10 70 1 56 4 63 34 90 35 31 94 39 133 19z m187 -16 c42 -29 19
-78 -35 -72 -23 2 -29 9 -31 33 -3 19 2 33 14 42 22 16 25 16 52 -3z m-1396
-166 c40 -53 127 -161 194 -240 66 -79 157 -189 202 -245 l82 -102 0 -149 c0
-136 2 -152 21 -176 29 -37 12 -33 -62 16 -35 23 -131 82 -214 131 -82 49
-158 96 -167 105 -16 13 -18 35 -18 175 0 125 3 164 14 176 8 9 17 28 21 42 9
38 -36 89 -79 89 -71 0 -103 -85 -51 -134 24 -23 25 -27 25 -160 0 -75 -3
-136 -7 -136 -20 0 -114 86 -153 140 -25 34 -71 95 -103 135 l-58 73 48 72
c124 185 204 291 219 288 7 -2 45 -47 86 -100z m1510 65 c25 -22 23 -50 -6
-68 -34 -23 -66 -5 -66 35 0 44 39 63 72 33z m-598 -19 c9 -8 16 -19 16 -24 0
-5 -7 -16 -16 -24 -19 -20 -29 -20 -48 0 -16 15 -14 24 7 52 13 16 22 15 41
-4z m684 -130 c25 -17 29 -46 8 -64 -21 -17 -56 -9 -73 17 -13 19 -12 24 6 42
25 25 30 26 59 5z m-215 -48 c51 -21 69 -49 70 -105 0 -29 -5 -56 -14 -67 -18
-22 -71 -44 -107 -44 -23 0 -35 -9 -58 -42 -25 -38 -29 -51 -26 -107 3 -84
-19 -111 -86 -111 -41 0 -52 -6 -111 -58 -36 -31 -88 -75 -115 -96 -27 -22
-75 -64 -107 -94 l-59 -54 0 49 c0 55 9 67 126 159 120 96 184 159 184 180 0
26 34 71 60 79 11 3 40 36 65 73 40 61 44 71 36 100 -18 62 15 124 75 142 16
4 30 9 32 9 1 1 17 -5 35 -13z m-299 -137 c14 -17 26 -41 26 -54 0 -37 -39
-75 -87 -83 -40 -7 -96 -46 -215 -151 l-38 -33 0 45 c0 44 2 48 85 123 68 63
85 84 85 107 0 40 40 77 84 77 26 0 40 -7 60 -31z m635 7 c15 -8 35 -30 46
-49 16 -31 17 -40 6 -77 -19 -64 -96 -100 -151 -70 -19 10 -56 -14 -169 -115
-54 -48 -230 -196 -486 -411 -66 -55 -136 -115 -155 -133 l-35 -32 -3 46 c-3
44 -1 48 45 90 27 24 74 62 104 86 29 23 90 75 134 114 44 39 103 88 130 110
28 22 87 71 131 110 45 38 119 101 163 139 54 46 80 75 76 84 -10 27 16 83 49
103 37 23 77 24 115 5z m-2019 -185 c36 -46 75 -98 87 -116 14 -20 67 -61 140
-106 269 -165 422 -258 496 -301 64 -38 87 -58 130 -118 80 -111 78 -105 75
-239 l-3 -120 -61 77 c-34 42 -111 147 -172 232 -83 115 -121 160 -149 175
-21 11 -87 51 -148 89 -60 38 -150 92 -200 121 -49 29 -151 91 -225 138 -103
65 -134 91 -133 105 1 11 19 55 38 98 30 66 38 76 48 64 7 -9 41 -53 77 -99z
m2200 -116 c54 -28 77 -107 44 -153 -23 -33 -71 -54 -114 -50 -34 3 -45 -3
-109 -57 l-71 -60 0 -110 0 -111 -52 -39 c-29 -22 -86 -69 -127 -105 -41 -36
-103 -87 -137 -115 -92 -73 -280 -229 -431 -355 l-133 -111 0 48 c0 47 2 49
77 113 41 36 99 83 128 105 28 22 94 75 146 118 52 43 103 86 114 95 49 40
199 166 216 181 10 9 43 36 73 61 l56 44 0 107 0 107 83 71 82 70 -3 46 c-4
40 0 49 31 80 39 39 78 45 127 20z m-2281 -109 c139 -85 374 -227 479 -287
129 -75 124 -69 271 -278 29 -42 99 -137 155 -211 l101 -135 2 -325 3 -325
-34 38 c-32 36 -34 41 -40 144 -4 58 -4 169 -1 247 l7 141 -74 100 c-41 55
-80 109 -86 121 -6 11 -41 33 -79 49 -37 16 -74 33 -82 39 -7 6 -42 53 -77
106 -111 167 -162 234 -206 267 -24 18 -48 33 -54 33 -7 0 -38 19 -70 43 -33
23 -121 83 -197 132 -76 48 -140 92 -143 97 -3 5 -2 22 1 39 8 37 9 36 124
-35z m1948 -42 c17 -26 16 -27 -10 -50 -51 -44 -119 13 -71 60 24 25 61 20 81
-10z m-2003 -101 c44 -31 147 -98 228 -149 l147 -91 80 -112 c99 -138 98 -136
80 -128 -214 90 -294 123 -342 139 -41 14 -61 27 -67 43 -20 53 -89 71 -128
35 -46 -43 -37 -107 20 -140 25 -13 31 -13 62 4 l35 18 188 -80 c103 -45 202
-86 218 -92 17 -6 80 -34 141 -61 120 -55 113 -48 219 -203 l40 -59 0 -144 c0
-79 -3 -143 -6 -143 -3 0 -26 28 -51 63 -43 59 -54 67 -209 150 -163 88 -164
89 -202 151 -21 35 -45 70 -55 78 -11 9 -84 23 -197 38 -260 33 -235 22 -268
115 -46 132 -60 238 -54 420 5 163 11 205 29 205 6 0 47 -26 92 -57z m1856
-82 c52 -38 51 -135 -3 -175 -20 -15 -43 -21 -80 -21 -57 0 -44 9 -236 -156
-40 -35 -101 -86 -135 -112 -33 -27 -91 -76 -128 -109 l-68 -60 0 51 c0 46 3
52 43 85 23 19 94 79 159 133 64 54 152 128 196 165 69 57 79 70 75 92 -10 52
19 104 72 127 27 12 75 3 105 -20z m538 17 c20 -20 15 -66 -9 -73 -28 -9 -66
2 -73 21 -16 41 51 83 82 52z m-137 -104 c9 -11 10 -20 2 -32 -15 -24 -44 -27
-59 -7 -28 38 27 75 57 39z m-771 -69 c18 -22 3 -57 -23 -53 -22 3 -33 28 -23
54 7 18 30 18 46 -1z m868 -91 c72 -50 28 -153 -65 -155 -29 0 -85 -41 -262
-191 -51 -43 -97 -78 -102 -78 -6 0 -24 -14 -40 -31 -25 -27 -34 -30 -73 -27
-49 3 -57 -2 -335 -238 -59 -50 -125 -103 -147 -119 -21 -16 -58 -47 -81 -69
l-43 -40 0 49 0 50 98 82 c53 44 171 143 262 218 116 95 167 144 172 164 18
65 96 95 141 53 l22 -21 80 65 c203 163 240 198 241 234 2 60 79 91 132 54z
m-115 -316 c15 -23 1 -48 -28 -48 -14 0 -25 2 -25 4 0 2 -3 11 -6 19 -6 16 23
50 39 44 6 -2 15 -10 20 -19z m-2118 -98 c50 -5 120 -15 157 -21 l67 -11 41
-63 c48 -74 87 -101 315 -221 71 -37 72 -38 185 -193 36 -49 40 -61 40 -113 0
-32 -4 -58 -9 -58 -9 0 -30 27 -127 162 -40 56 -66 83 -97 98 -23 11 -91 48
-152 83 -80 47 -111 71 -118 90 -6 19 -18 28 -43 33 -49 9 -84 -16 -84 -61 0
-51 25 -70 87 -65 13 1 35 -7 50 -18 16 -10 75 -43 131 -73 97 -50 108 -58
168 -136 35 -46 64 -85 64 -87 0 -2 -29 4 -64 14 -159 42 -406 203 -523 339
-80 93 -157 200 -189 264 -28 55 -36 52 101 37z m2006 0 c37 -20 18 -80 -26
-80 -43 0 -63 58 -27 79 22 13 29 13 53 1z"/>
<path d="M1934 3635 c-7 -18 3 -35 21 -35 15 0 28 27 19 41 -8 14 -34 11 -40
-6z"/>
<path d="M2107 3444 c-4 -4 -7 -16 -7 -26 0 -13 7 -18 26 -18 21 0 25 4 22 22
-3 23 -27 35 -41 22z"/>
<path d="M2150 3296 c-10 -13 -10 -19 0 -32 12 -14 15 -14 29 0 14 15 14 17 0
32 -14 14 -17 14 -29 0z"/>
<path d="M2104 3185 c-4 -9 -2 -21 4 -27 16 -16 47 -5 47 17 0 26 -42 34 -51
10z"/>
<path d="M2900 3445 c-30 -36 25 -82 61 -49 23 21 24 28 3 48 -19 20 -48 20
-64 1z"/>
<path d="M1664 3239 c-10 -17 13 -36 27 -22 12 12 4 33 -11 33 -5 0 -12 -5
-16 -11z"/>
<path d="M1564 3186 c-10 -26 1 -51 22 -54 30 -4 48 21 34 47 -12 24 -48 28
-56 7z"/>
<path d="M1571 3036 c-6 -7 -8 -21 -5 -30 9 -24 58 -17 62 8 6 31 -36 48 -57
22z"/>
<path d="M1930 2971 c0 -11 4 -22 8 -25 14 -9 35 12 29 28 -9 23 -37 20 -37
-3z"/>
<path d="M1901 2886 c-16 -19 -6 -36 20 -36 15 0 20 6 17 22 -4 27 -21 33 -37
14z"/>
<path d="M2075 2850 c-9 -15 4 -30 26 -30 12 0 19 7 19 20 0 21 -33 29 -45 10z"/>
<path d="M1932 2788 c-19 -19 -14 -63 9 -84 19 -17 23 -17 47 -3 15 8 28 25
30 38 7 45 -55 80 -86 49z"/>
<path d="M2098 2723 c-22 -5 -35 -50 -21 -72 13 -21 57 -26 72 -7 27 33 -9 89
-51 79z"/>
<path d="M3090 3121 c-14 -26 -3 -50 26 -57 42 -11 72 34 42 64 -18 18 -56 14
-68 -7z"/>
<path d="M3417 3013 c-12 -12 -7 -50 8 -63 32 -26 74 16 53 54 -9 16 -49 22
-61 9z"/>
<path d="M3601 2706 c-8 -10 -11 -26 -7 -42 5 -20 12 -25 33 -22 14 2 31 11
37 21 23 36 -36 76 -63 43z"/>
<path d="M1920 2251 c0 -24 25 -34 40 -16 15 18 5 35 -21 35 -12 0 -19 -7 -19
-19z"/>
<path d="M2021 2126 c-15 -18 -3 -46 19 -46 24 0 33 15 25 40 -7 23 -28 26
-44 6z"/>
<path d="M1293 2424 c-7 -18 6 -45 24 -51 6 -2 18 3 27 12 12 12 13 21 6 36
-13 23 -48 25 -57 3z"/>
<path d="M1537 2314 c-16 -16 -7 -44 14 -44 15 0 20 5 17 22 -3 22 -19 33 -31
22z"/>
<path d="M1647 2223 c-14 -13 -6 -33 13 -33 13 0 20 7 20 20 0 19 -20 27 -33
13z"/>
<path d="M1324 2029 c-10 -17 23 -46 37 -32 7 7 9 19 6 27 -7 18 -33 21 -43 5z"/>
<path d="M1443 2013 c-18 -7 -16 -38 3 -53 12 -11 18 -10 32 4 25 25 -2 63
-35 49z"/>
<path d="M1587 2003 c-26 -26 12 -80 47 -67 21 8 30 42 16 59 -13 15 -51 20
-63 8z"/>
<path d="M1765 1926 c-27 -19 -13 -66 20 -66 25 0 46 26 38 48 -8 23 -39 32
-58 18z"/>
<path d="M1950 1765 c-26 -32 13 -81 48 -59 24 16 27 45 6 61 -23 17 -39 16
-54 -2z"/>
<path d="M2077 1682 c-20 -22 -22 -63 -5 -80 20 -20 76 -15 88 7 15 29 12 49
-10 71 -25 25 -52 26 -73 2z"/>
<path d="M3096 2372 c-11 -34 4 -53 38 -50 27 3 31 7 31 33 0 26 -4 30 -32 33
-24 2 -33 -1 -37 -16z"/>
<path d="M1567 1669 c-40 -23 -6 -90 35 -68 10 5 18 21 18 34 0 29 -28 47 -53
34z"/>
<path d="M3252 1571 c-8 -4 -12 -19 -10 -32 2 -19 9 -24 32 -24 36 0 56 26 37
49 -15 18 -39 20 -59 7z"/>
</g>
</svg>
