<?xml version="1.0" standalone="no"?>
<!DOCTYPE svg PUBLIC "-//W3C//DTD SVG 20010904//EN"
 "http://www.w3.org/TR/2001/REC-SVG-20010904/DTD/svg10.dtd">
<svg version="1.0" xmlns="http://www.w3.org/2000/svg"
 width="500.000000pt" height="500.000000pt" viewBox="0 0 500.000000 500.000000"
 preserveAspectRatio="xMidYMid meet">

<g transform="translate(0.000000,500.000000) scale(0.100000,-0.100000)"
fill="#000000" stroke="none">
<path d="M2400 3960 c-197 -28 -347 -73 -511 -155 -160 -80 -248 -143 -379
-275 -235 -235 -367 -491 -421 -817 -18 -108 -20 -156 -16 -303 6 -191 18
-264 73 -429 74 -222 196 -414 372 -583 393 -377 945 -504 1461 -337 312 101
593 310 766 569 99 149 180 346 222 540 26 121 26 478 0 598 -42 194 -126 389
-240 556 -76 111 -231 270 -352 359 -165 123 -407 228 -600 261 -114 20 -291
28 -375 16z m390 -199 c285 -65 508 -219 610 -423 21 -42 44 -103 50 -135 26
-125 -10 -304 -88 -432 -112 -185 -315 -301 -458 -262 -22 6 -78 38 -123 70
-101 73 -135 86 -231 86 -110 0 -145 -20 -276 -155 -107 -111 -162 -149 -214
-150 -21 0 -15 10 55 80 72 72 77 79 47 69 -57 -20 -151 -6 -223 32 -165 88
-292 271 -329 472 -54 295 175 595 544 717 39 13 115 31 170 41 128 24 340 19
466 -10z m975 -1089 c0 -172 -13 -230 -79 -367 -117 -245 -340 -420 -700 -551
l-91 -33 48 -1 c200 -2 599 159 756 304 45 42 27 8 -34 -64 -151 -176 -345
-273 -673 -337 -118 -22 -171 -26 -383 -30 -339 -7 -556 19 -778 94 -126 42
-182 69 -279 136 -66 46 -212 189 -212 208 0 5 33 -16 74 -45 195 -140 538
-268 708 -265 l43 0 -65 23 c-496 175 -785 482 -807 857 -6 108 4 229 19 229
6 0 8 -6 5 -13 -3 -8 -1 -54 5 -103 29 -269 232 -527 540 -689 l76 -40 226
220 c258 251 282 271 335 280 93 15 106 6 454 -328 l175 -168 74 37 c109 55
184 108 277 198 168 163 258 348 264 543 1 48 5 69 12 62 6 -6 10 -72 10 -157z
m-2090 -1026 c135 -54 263 -88 448 -118 124 -20 178 -23 422 -23 243 1 297 4
410 23 200 34 407 94 525 151 57 27 62 26 25 -4 -148 -125 -295 -189 -540
-237 -110 -21 -147 -23 -425 -23 -275 0 -317 2 -425 23 -66 12 -151 32 -190
43 -97 29 -236 100 -317 161 -65 50 -82 66 -55 55 6 -3 62 -26 122 -51z m475
-300 c336 -49 773 -23 1073 63 37 11 67 18 67 16 0 -9 -126 -89 -204 -130
-316 -165 -772 -167 -1100 -4 -64 32 -206 123 -206 132 0 2 57 -12 128 -29 70
-17 179 -39 242 -48z"/>
<path d="M2460 3501 c-56 -12 -140 -62 -175 -106 -51 -62 -70 -118 -70 -210 0
-101 32 -172 106 -239 60 -54 121 -76 210 -76 131 0 241 68 294 183 37 78 35
190 -3 272 -33 68 -93 128 -158 156 -48 22 -150 32 -204 20z"/>
<path d="M2765 2184 c-14 -15 -25 -30 -25 -34 0 -4 51 -57 114 -118 115 -113
145 -129 174 -100 29 29 12 56 -107 167 -65 61 -122 111 -125 111 -4 0 -18
-12 -31 -26z"/>
<path d="M2653 2068 l-32 -33 114 -107 c69 -66 121 -108 134 -108 11 0 28 12
37 26 l17 25 -114 115 c-62 63 -116 114 -119 114 -4 0 -20 -15 -37 -32z"/>
<path d="M2194 1978 c-54 -53 -84 -89 -84 -103 0 -26 29 -55 54 -55 10 0 53
35 97 78 59 58 79 84 79 104 0 25 -31 58 -53 58 -5 0 -47 -37 -93 -82z"/>
<path d="M2551 1946 l-31 -32 99 -97 c54 -53 103 -97 109 -97 39 0 69 38 53
68 -5 9 -52 56 -104 104 l-94 87 -32 -33z"/>
<path d="M2312 1866 c-40 -41 -72 -80 -72 -88 0 -21 22 -45 49 -53 20 -6 34 4
97 70 41 43 74 84 74 92 0 30 -21 53 -49 53 -21 0 -44 -17 -99 -74z"/>
<path d="M2478 1796 c-17 -8 -24 -21 -26 -48 -3 -30 1 -40 23 -54 32 -21 69
-8 87 30 22 49 -34 97 -84 72z"/>
</g>
</svg>
