<?xml version="1.0" standalone="no"?>
<!DOCTYPE svg PUBLIC "-//W3C//DTD SVG 20010904//EN"
 "http://www.w3.org/TR/2001/REC-SVG-20010904/DTD/svg10.dtd">
<svg version="1.0" xmlns="http://www.w3.org/2000/svg"
 width="2083.000000pt" height="2083.000000pt" viewBox="0 0 2083.000000 2083.000000"
 preserveAspectRatio="xMidYMid meet">

<g transform="translate(0.000000,2083.000000) scale(0.100000,-0.100000)"
fill="#000000" stroke="none">
<path d="M10640 16588 c-54 -37 -80 -98 -80 -187 0 -157 91 -260 202 -231 84
23 177 130 192 220 12 75 -52 169 -140 206 -53 22 -135 18 -174 -8z m139 -104
c31 -22 53 -77 45 -112 -24 -102 -144 -90 -144 15 0 46 21 98 42 106 22 9 33
7 57 -9z"/>
<path d="M11336 16555 c-45 -16 -109 -75 -126 -115 -19 -45 -9 -74 28 -86 60
-19 65 -30 93 -220 24 -165 94 -180 134 -27 33 128 1 387 -55 443 -23 23 -23
23 -74 5z"/>
<path d="M9401 16509 c-46 -28 -67 -53 -101 -122 -53 -108 -63 -268 -25 -378
49 -142 210 -214 313 -140 85 62 138 243 112 389 -35 205 -178 325 -299 251z
m115 -147 c35 -23 44 -118 24 -257 -14 -97 -18 -105 -45 -105 -33 0 -91 71
-111 135 -15 47 -15 56 0 106 17 57 35 84 76 112 27 19 39 21 56 9z"/>
<path d="M10012 16504 c-29 -14 -61 -38 -72 -54 -38 -53 -18 -120 35 -120 48
0 57 -34 65 -228 4 -107 11 -186 19 -199 15 -29 63 -31 90 -4 36 36 45 96 45
311 1 176 -2 212 -17 253 -29 74 -75 86 -165 41z"/>
<path d="M8872 16393 c-18 -9 -63 -44 -100 -79 l-67 -63 47 -43 c25 -24 52
-54 58 -67 7 -13 16 -80 21 -150 11 -169 35 -241 78 -241 52 0 70 76 78 319 6
198 -3 270 -38 315 -24 30 -32 31 -77 9z"/>
<path d="M12130 16361 c-126 -39 -210 -129 -210 -226 0 -100 103 -221 217
-255 57 -17 117 6 182 69 121 118 121 233 0 346 -72 67 -124 86 -189 66z m123
-152 c32 -34 33 -59 8 -114 -24 -52 -68 -95 -97 -95 -31 0 -64 63 -71 134 -4
42 -1 56 16 78 36 46 99 44 144 -3z"/>
<path d="M8260 16144 c-30 -20 -180 -166 -180 -175 0 -3 30 -11 66 -17 112
-19 121 -37 148 -284 22 -194 51 -255 78 -165 18 59 18 525 0 584 -22 72 -60
91 -112 57z"/>
<path d="M7836 16067 c-26 -19 -35 -75 -42 -282 -6 -176 7 -499 22 -552 13
-46 54 -17 74 52 16 58 28 394 20 582 -5 126 -10 167 -24 187 -19 29 -25 31
-50 13z"/>
<path d="M12874 16052 c-141 -68 -202 -222 -138 -350 45 -91 136 -151 239
-160 101 -8 164 36 225 158 16 32 34 79 41 104 16 62 -5 116 -69 178 -99 97
-194 120 -298 70z m161 -129 c25 -24 35 -58 35 -118 0 -67 -34 -115 -82 -115
-46 0 -108 66 -108 114 0 94 102 172 155 119z"/>
<path d="M6971 15948 c-82 -30 -298 -233 -321 -302 -9 -27 -9 -49 -1 -87 18
-81 -3 -101 -138 -134 l-75 -18 50 -41 c85 -70 114 -105 114 -136 0 -37 -28
-56 -95 -65 -27 -4 -58 -14 -67 -23 -46 -40 2 -109 94 -136 94 -27 111 -61 57
-114 -17 -17 -57 -41 -88 -53 -80 -32 -101 -48 -101 -75 0 -28 30 -45 107 -64
88 -20 125 -66 90 -112 -7 -9 -40 -32 -74 -52 -62 -37 -113 -87 -113 -112 0
-7 11 -21 26 -30 22 -15 36 -16 112 -6 92 11 132 4 132 -24 0 -9 -34 -52 -76
-95 -54 -55 -75 -83 -70 -95 13 -34 127 19 248 115 111 88 431 406 426 423 -2
7 -22 21 -44 31 -124 56 -140 73 -109 108 11 12 45 32 75 46 59 26 70 36 70
71 0 19 -12 29 -65 53 -81 36 -90 52 -68 115 8 27 19 53 24 58 4 5 54 11 111
15 l103 6 -55 39 c-116 83 -142 123 -102 158 9 9 47 29 84 46 106 48 122 95
45 137 -41 21 -67 62 -67 102 0 46 -46 130 -102 187 -59 58 -100 78 -137 64z"/>
<path d="M10651 15893 c-64 -32 -106 -127 -99 -227 12 -191 195 -301 318 -190
72 65 102 170 75 262 -39 129 -187 207 -294 155z m121 -143 c29 -57 17 -193
-17 -206 -39 -15 -85 51 -85 121 0 34 19 83 43 113 17 21 41 9 59 -28z"/>
<path d="M10035 15700 c-68 -21 -128 -119 -127 -207 1 -72 51 -176 101 -210
98 -66 219 -19 285 111 33 66 35 109 7 164 -54 106 -174 170 -266 142z"/>
<path d="M13605 15686 c-54 -24 -123 -94 -154 -158 -49 -98 -39 -173 33 -236
85 -75 181 -99 258 -64 89 39 168 143 168 222 0 76 -66 170 -154 221 -56 32
-103 36 -151 15z m96 -179 c19 -12 35 -32 37 -44 5 -36 -28 -93 -64 -111 -33
-15 -35 -15 -59 8 -58 54 -38 170 29 170 13 0 38 -10 57 -23z"/>
<path d="M9342 15605 c-67 -19 -81 -26 -137 -75 -57 -50 -84 -57 -155 -41 -30
7 -82 20 -115 27 -111 26 -222 -1 -282 -69 -75 -85 -45 -211 76 -320 64 -57
118 -49 239 37 102 73 213 114 389 145 209 37 314 74 366 127 23 23 27 34 23
59 -7 37 -55 79 -115 101 -65 23 -222 28 -289 9z"/>
<path d="M11625 15542 c-76 -36 -146 -131 -174 -238 -10 -39 -39 -72 -137
-153 l-28 -23 29 -25 c75 -61 76 -62 73 -90 -4 -34 -34 -50 -111 -58 -80 -9
-83 -25 -18 -87 28 -28 54 -61 57 -74 8 -32 -19 -72 -54 -80 -56 -12 -62 -16
-68 -39 -3 -13 -2 -50 3 -83 13 -86 8 -92 -82 -85 -104 8 -131 -16 -80 -71 30
-32 32 -60 5 -103 -13 -22 -31 -35 -59 -43 -24 -6 -49 -22 -63 -41 -84 -110
-179 -180 -305 -225 -129 -45 -206 -28 -378 86 -224 148 -634 325 -911 394
-568 141 -1282 63 -1919 -209 -647 -277 -1144 -740 -1402 -1307 -147 -324
-212 -630 -200 -948 19 -515 190 -857 547 -1091 149 -99 299 -168 711 -328
l105 -41 974 0 974 0 280 96 c495 170 738 293 981 496 104 87 151 136 258 271
155 195 225 211 300 69 20 -38 44 -75 53 -83 23 -19 45 -1 62 49 7 23 18 42
23 42 5 0 26 -34 46 -77 21 -42 50 -85 66 -97 25 -18 29 -19 43 -5 8 9 19 42
23 73 4 32 15 65 25 74 16 16 18 16 37 -7 11 -13 19 -38 19 -60 0 -54 29 -106
60 -106 21 0 30 11 56 64 35 73 60 93 81 65 7 -10 13 -30 13 -45 0 -42 20 -79
47 -85 32 -8 49 9 68 66 9 26 24 55 34 64 18 16 20 16 38 -8 11 -13 28 -45 37
-70 13 -34 24 -48 44 -53 32 -8 62 26 62 71 0 17 7 42 16 54 12 18 19 20 35
11 19 -10 33 -34 60 -107 31 -85 99 -52 99 48 0 43 15 91 32 101 22 14 41 -6
73 -76 35 -76 55 -94 79 -69 15 14 20 37 30 124 6 53 28 75 60 58 11 -6 44
-33 73 -59 28 -27 60 -49 70 -49 26 0 43 19 43 49 0 34 61 89 156 140 130 70
166 115 167 210 1 103 -64 201 -157 236 -43 16 -50 17 -111 1 -35 -9 -121 -23
-189 -31 -89 -10 -143 -22 -188 -41 -58 -25 -76 -28 -225 -32 -192 -5 -583 13
-720 34 -116 17 -186 47 -252 109 -66 62 -91 115 -91 192 0 85 25 136 116 241
l29 32 75 -94 c41 -53 78 -95 81 -96 4 0 19 50 34 110 15 61 31 112 35 115 4
2 15 -23 24 -57 13 -48 27 -72 62 -107 31 -31 48 -41 55 -34 6 6 14 52 18 102
7 83 20 121 42 121 19 0 48 -45 63 -98 27 -96 66 -131 86 -76 6 14 10 73 10
132 l1 107 37 -45 c75 -91 100 -112 129 -108 35 4 41 35 19 109 -9 29 -14 55
-11 57 3 3 35 -15 73 -40 84 -57 105 -68 131 -68 29 0 35 36 22 113 -15 88
-14 167 2 167 7 0 48 -21 92 -46 121 -69 172 -94 195 -94 33 0 26 56 -15 120
-19 30 -35 66 -35 81 0 38 19 86 37 93 8 4 57 -18 111 -49 76 -43 105 -55 132
-53 32 3 35 6 38 38 3 45 -26 92 -78 125 -22 14 -40 31 -40 39 0 8 13 28 29
45 39 42 73 40 165 -10 42 -22 80 -38 86 -34 31 19 -2 109 -65 176 -76 82 -57
118 52 98 88 -16 95 -13 96 51 2 41 9 67 32 105 44 73 53 103 54 170 1 76 -30
146 -87 197 -57 51 -93 68 -149 68 -70 -1 -119 -28 -216 -118 -47 -45 -98 -84
-114 -88 -41 -10 -62 -32 -95 -101 -28 -59 -70 -103 -100 -103 -27 0 -77 -40
-117 -93 -23 -30 -69 -74 -101 -98 -170 -124 -486 -244 -733 -278 -171 -24
-255 -8 -336 65 -61 55 -101 134 -101 199 0 50 23 105 44 105 7 0 43 -13 79
-30 120 -54 144 -37 124 89 -6 39 -8 74 -4 77 3 4 28 -12 56 -35 106 -89 200
-88 122 1 -38 45 -51 71 -51 107 0 41 16 40 94 -4 76 -42 126 -47 126 -11 0
13 -16 44 -35 69 -59 77 -72 139 -35 172 23 21 53 18 161 -15 87 -27 129 -23
129 12 0 12 -23 62 -51 110 -63 109 -62 132 1 136 25 2 88 -1 140 -7 112 -12
164 -5 168 25 3 22 -37 54 -108 88 -49 23 -106 71 -113 95 -13 50 49 77 244
106 59 8 110 15 115 15 5 0 -29 21 -76 46 -106 57 -140 88 -140 126 0 40 46
58 144 58 54 0 79 4 90 16 37 37 10 84 -73 127 -58 30 -66 37 -66 63 0 23 7
33 37 49 51 27 70 66 76 149 5 83 -16 182 -52 255 -25 49 -116 140 -167 167
-48 24 -109 27 -154 6z m-3354 -1183 c29 -15 79 -98 79 -131 0 -36 -33 -58
-93 -60 -64 -3 -87 19 -87 84 0 91 44 138 101 107z m1263 -62 c20 -56 -27 -99
-90 -83 -34 9 -32 52 3 88 36 37 73 35 87 -5z m-683 -17 c25 -14 24 -46 -1
-60 -12 -6 -42 -10 -68 -8 -40 3 -47 6 -50 25 -6 39 73 67 119 43z m-1463
-131 c36 -12 65 -52 57 -78 -15 -49 -155 -35 -155 15 0 14 51 74 63 74 2 0 18
-5 35 -11z m2440 -89 c58 -35 86 -104 62 -150 -12 -23 -70 -43 -103 -35 -30 8
-62 41 -70 73 -11 47 30 132 66 132 6 0 27 -9 45 -20z m-1909 -14 c12 -13 25
-42 28 -64 5 -34 1 -45 -20 -66 -44 -44 -107 -46 -147 -6 -32 32 -25 67 24
116 50 51 81 56 115 20z m1309 -30 c22 -21 23 -112 2 -150 -41 -78 -162 -70
-205 13 -31 61 -12 120 49 147 41 19 131 13 154 -10z m-705 -235 c31 -34 37
-47 37 -85 0 -117 -136 -155 -220 -60 -51 59 -35 126 44 176 46 28 92 18 139
-31z m-1573 -6 c23 -12 30 -22 30 -46 0 -59 -104 -73 -124 -16 -8 22 -6 31 14
52 27 29 40 31 80 10z m504 -46 c29 -23 34 -60 10 -80 -24 -20 -84 -16 -100 6
-20 27 -17 42 11 70 29 30 45 31 79 4z m2894 -83 c69 -36 79 -91 22 -121 -71
-37 -140 2 -140 79 0 51 59 72 118 42z m-2480 -101 c56 -47 50 -117 -13 -151
-77 -41 -158 24 -134 109 19 68 91 89 147 42z m1849 -20 c28 -19 38 -68 23
-106 -33 -78 -150 -24 -150 70 0 18 7 34 18 40 26 15 85 13 109 -4z m-664 -59
c38 -28 70 -81 62 -105 -7 -23 -63 -51 -102 -51 -18 0 -38 9 -53 25 -46 48 -7
178 48 158 9 -4 30 -16 45 -27z m-1948 -57 c38 -34 44 -62 18 -91 -24 -27 -68
-23 -92 8 -25 32 -27 61 -5 92 20 30 37 28 79 -9z m-467 -39 c62 -91 -35 -207
-105 -126 -29 34 -30 89 -3 134 17 28 25 33 52 30 24 -2 39 -12 56 -38z m2076
-110 c20 -20 20 -20 1 -56 -24 -45 -67 -69 -96 -54 -41 23 -48 107 -11 130 24
15 82 4 106 -20z m1399 9 c30 -16 37 -28 37 -65 0 -29 -39 -101 -74 -136 -27
-27 -61 -22 -100 16 -42 39 -46 71 -14 127 33 58 100 84 151 58z m-1921 -76
c23 -21 23 -36 -2 -58 -22 -20 -44 -15 -60 14 -8 17 -7 24 10 41 24 24 28 25
52 3z m1291 -15 c21 -25 22 -61 2 -78 -13 -11 -27 -10 -76 5 -33 10 -62 22
-65 27 -8 13 24 58 49 68 30 13 69 3 90 -22z m980 4 c37 -32 6 -92 -48 -92
-30 0 -65 28 -65 51 0 11 11 31 25 45 27 27 54 26 88 -4z m-4194 -18 c24 -30
27 -54 9 -72 -28 -28 -68 2 -68 52 0 54 26 62 59 20z m1215 -23 c21 -23 18
-54 -6 -59 -22 -4 -58 32 -58 58 0 26 41 27 64 1z m4414 10 c18 -11 12 -51
-10 -65 -22 -13 -71 21 -76 53 -3 18 1 21 35 21 21 0 44 -4 51 -9z m-3864 -53
c22 -35 -27 -74 -59 -48 -18 15 -20 56 -2 64 22 9 50 1 61 -16z m2770 -217
c23 -25 33 -96 16 -116 -31 -37 -100 4 -100 60 0 63 48 95 84 56z m-1625 -46
c91 -22 197 -80 262 -145 93 -92 139 -206 139 -345 0 -255 -155 -451 -406
-515 -166 -43 -331 -12 -464 86 -195 143 -252 388 -144 623 105 231 362 355
613 296z m-2570 -35 c55 -28 141 -113 164 -162 27 -57 37 -130 37 -263 0 -130
-13 -222 -37 -269 -25 -49 -105 -126 -158 -154 -44 -24 -62 -27 -145 -27 -88
0 -101 3 -162 33 -87 43 -152 107 -166 164 -31 127 -22 395 17 482 36 82 142
180 230 213 53 20 166 12 220 -17z m3593 -1 c50 -66 37 -148 -27 -169 -46 -15
-84 -1 -108 39 -33 57 -15 105 51 141 46 24 60 22 84 -11z m506 -195 c45 -31
13 -94 -47 -94 -29 0 -61 26 -61 49 0 52 62 78 108 45z m-166 -211 c10 -9 18
-25 18 -35 0 -43 -73 -148 -102 -148 -43 0 -86 75 -74 126 4 14 19 37 33 50
31 29 97 33 125 7z m-412 -179 c40 -24 64 -68 50 -94 -22 -41 -78 -52 -119
-24 -20 14 -22 23 -18 56 5 38 30 78 50 78 5 0 21 -7 37 -16z m515 -188 c19
-14 19 -16 3 -50 -29 -59 -99 -61 -106 -3 -6 52 59 85 103 53z m-807 -136 c26
-25 28 -43 6 -64 -41 -42 -114 -27 -114 23 0 58 64 82 108 41z m539 -95 c31
-31 35 -40 30 -71 -12 -71 -66 -114 -104 -83 -29 25 -73 102 -73 130 0 35 32
59 78 59 26 0 43 -9 69 -35z m-4241 -76 c20 -23 23 -71 4 -93 -20 -25 -77 -20
-105 9 -39 38 -27 84 26 103 29 11 53 5 75 -19z m3790 -171 c95 -84 67 -173
-53 -173 -35 0 -49 5 -64 24 -44 54 -4 181 57 181 13 0 40 -15 60 -32z m-3550
-170 c50 -96 -45 -218 -102 -130 -39 60 -3 162 56 162 23 0 33 -7 46 -32z
m3009 1 c43 -38 68 -83 60 -108 -10 -31 -71 -82 -106 -87 -66 -11 -103 54 -85
151 15 77 71 96 131 44z m-1150 -49 c191 -12 333 -29 358 -41 29 -16 21 -46
-15 -58 -87 -28 -195 -34 -781 -38 -613 -5 -895 4 -973 30 -113 37 -33 100
151 118 108 10 1060 2 1260 -11z"/>
<path d="M9183 12610 c-60 -24 -69 -118 -19 -185 33 -43 67 -53 102 -31 65 43
58 183 -11 214 -30 14 -42 14 -72 2z"/>
<path d="M12614 15383 c-12 -19 -20 -52 -22 -98 -4 -82 22 -166 66 -210 69
-70 212 16 212 128 0 61 -70 146 -157 191 -47 24 -78 20 -99 -11z"/>
<path d="M8207 15172 c-30 -32 -57 -100 -57 -147 0 -48 25 -65 99 -65 81 0
111 26 111 94 0 122 -86 188 -153 118z"/>
<path d="M14222 15168 c-56 -29 -161 -124 -173 -157 -15 -38 12 -54 79 -47 86
10 98 -5 122 -147 14 -85 38 -147 56 -147 30 0 38 52 39 240 0 220 -11 280
-54 280 -14 0 -46 -10 -69 -22z"/>
<path d="M10560 15143 c-40 -21 -105 -102 -121 -152 -21 -62 24 -151 93 -187
61 -32 164 -15 211 34 49 51 58 110 32 198 -30 102 -129 152 -215 107z m111
-132 c47 -47 31 -112 -30 -126 -58 -12 -100 41 -81 101 20 60 65 70 111 25z"/>
<path d="M9448 15099 c-52 -27 -72 -60 -64 -104 9 -49 47 -75 107 -75 67 0
109 36 116 102 5 40 2 50 -20 72 -32 32 -85 34 -139 5z"/>
<path d="M10030 15067 c-36 -18 -60 -73 -60 -135 0 -65 20 -105 59 -122 43
-17 79 -5 123 41 64 67 59 137 -14 193 -43 32 -77 39 -108 23z"/>
<path d="M13077 15060 c-40 -32 -69 -85 -61 -114 7 -30 93 -118 224 -231 213
-184 348 -266 449 -273 54 -4 59 -2 89 28 25 25 32 40 32 71 0 56 -18 85 -99
162 -114 107 -539 377 -595 377 -7 0 -25 -9 -39 -20z"/>
<path d="M5484 14886 c-38 -18 -58 -35 -81 -72 -42 -69 -83 -175 -101 -266
-15 -71 -15 -79 0 -111 9 -19 37 -58 62 -86 25 -29 46 -58 46 -66 0 -8 -17
-25 -38 -39 -56 -35 -67 -52 -54 -81 12 -25 63 -45 119 -45 30 0 63 -21 63
-40 0 -11 -49 -50 -89 -72 -21 -12 -31 -24 -31 -41 0 -33 16 -45 77 -53 90
-11 106 -57 38 -109 -63 -47 -33 -95 60 -95 59 0 95 -9 95 -22 0 -6 -17 -31
-39 -57 -93 -113 -74 -152 48 -96 179 84 227 22 102 -130 -47 -57 -51 -75 -16
-75 41 0 88 24 143 73 34 30 65 48 89 53 21 3 49 13 61 21 34 21 72 110 79
185 8 89 -10 161 -62 247 -25 41 -47 91 -50 110 -11 64 -32 99 -75 121 -39 20
-53 51 -30 65 17 11 40 63 34 79 -3 8 -30 29 -60 47 -30 18 -57 41 -60 51 -3
10 6 33 20 55 32 47 33 75 2 116 -26 36 -46 89 -46 124 0 52 -69 150 -144 205
-49 35 -93 36 -162 4z"/>
<path d="M12674 14719 c-4 -7 -7 -56 -7 -110 1 -110 15 -149 56 -149 12 0 55
16 95 35 63 30 72 37 72 62 0 32 -85 120 -149 152 -46 24 -57 26 -67 10z"/>
<path d="M14774 14685 c-55 -27 -89 -68 -125 -149 -27 -61 -23 -160 8 -221 31
-60 99 -141 139 -166 31 -19 45 -21 107 -16 127 9 235 65 274 140 41 80 -2
208 -107 320 -101 109 -202 140 -296 92z m172 -170 c53 -34 85 -189 48 -232
-29 -33 -55 -35 -104 -11 -55 28 -92 88 -92 153 -2 94 72 139 148 90z"/>
<path d="M14076 14319 c-70 -17 -210 -97 -268 -154 -189 -187 -183 -467 14
-650 71 -66 145 -96 238 -96 205 -1 377 161 426 401 38 191 -10 310 -172 426
-97 69 -164 90 -238 73z"/>
<path d="M15400 14104 c-45 -20 -96 -69 -123 -119 -17 -31 -22 -58 -22 -120 0
-70 4 -87 30 -135 33 -61 90 -109 160 -136 44 -16 49 -16 100 0 116 36 195
134 195 240 0 137 -145 287 -274 286 -17 -1 -47 -8 -66 -16z m136 -168 c30
-30 34 -41 34 -84 0 -152 -96 -179 -164 -45 -21 41 -20 82 0 113 41 61 80 66
130 16z"/>
<path d="M14833 13806 c-22 -19 -27 -31 -26 -65 3 -64 58 -212 148 -396 182
-373 316 -509 380 -385 31 60 8 168 -77 370 -117 275 -232 443 -333 486 -47
19 -59 18 -92 -10z"/>
<path d="M4725 13602 c-17 -11 -44 -34 -59 -53 -66 -78 -79 -152 -51 -284 8
-39 15 -94 15 -123 l0 -52 68 2 c62 3 67 1 70 -19 2 -16 -7 -28 -38 -48 -52
-33 -59 -51 -31 -78 19 -19 31 -22 92 -19 38 1 79 -2 89 -8 29 -16 25 -58 -11
-114 -56 -90 -19 -108 102 -51 47 22 89 35 106 33 24 -3 28 -8 31 -40 2 -22
-9 -72 -28 -128 -26 -73 -30 -94 -20 -105 27 -33 87 -9 166 66 84 78 134 76
134 -5 0 -25 -12 -66 -30 -104 -37 -79 -40 -122 -7 -122 31 0 70 26 156 104
77 69 103 79 121 47 28 -53 7 -117 -66 -204 -32 -38 -30 -47 9 -47 75 0 126
114 173 388 27 160 30 230 12 255 -7 9 -39 25 -70 37 -73 27 -183 99 -321 209
-59 47 -138 104 -175 127 -59 36 -68 46 -76 80 -16 72 -30 97 -82 148 -108
106 -216 148 -279 108z"/>
<path d="M15855 13448 c-11 -6 -48 -34 -83 -62 -77 -62 -124 -129 -120 -171
l3 -30 76 0 c52 0 81 -5 94 -15 10 -8 44 -54 76 -101 65 -98 99 -129 139 -129
37 0 80 35 80 65 0 60 -177 396 -232 442 -9 8 -19 8 -33 1z"/>
<path d="M14445 13315 c-68 -24 -115 -93 -101 -148 17 -70 114 -157 174 -157
147 0 197 216 67 291 -44 26 -94 31 -140 14z"/>
<path d="M13525 13238 c-11 -6 -35 -24 -52 -41 -60 -57 -43 -110 114 -347 239
-361 426 -716 612 -1159 124 -295 180 -381 248 -383 42 -1 89 35 103 78 15 46
-1 119 -75 329 -127 362 -280 697 -453 995 -148 254 -325 475 -416 519 -48 24
-54 24 -81 9z"/>
<path d="M13065 12708 c-24 -28 -26 -38 -21 -77 8 -56 81 -211 182 -383 171
-292 256 -407 322 -435 30 -12 38 -12 70 4 56 27 71 78 49 169 -37 156 -252
526 -380 655 -104 105 -173 126 -222 67z"/>
<path d="M14702 12685 c-28 -13 -56 -33 -62 -46 -21 -39 -3 -132 61 -318 175
-506 224 -679 309 -1096 117 -571 161 -676 260 -635 54 23 65 57 64 210 -1
474 -268 1485 -477 1807 -25 40 -59 79 -75 87 -26 14 -33 13 -80 -9z"/>
<path d="M15378 12644 c-20 -10 -28 -22 -28 -42 0 -50 58 -307 124 -553 162
-602 179 -702 236 -1389 44 -531 61 -601 144 -608 94 -8 112 19 128 186 14
151 5 581 -17 777 -64 597 -197 1164 -340 1461 -66 136 -112 184 -178 184 -23
-1 -54 -8 -69 -16z"/>
<path d="M16121 12610 c-84 -20 -120 -88 -121 -231 0 -103 20 -175 57 -211
128 -119 395 11 395 192 0 87 -70 178 -172 223 -66 30 -113 38 -159 27z m116
-142 c28 -31 43 -81 43 -142 0 -58 -12 -76 -50 -76 -31 0 -63 31 -85 82 -21
52 -19 100 6 132 25 32 59 33 86 4z"/>
<path d="M4392 12358 c-18 -18 -15 -33 14 -67 39 -47 94 -38 94 16 0 48 -75
84 -108 51z"/>
<path d="M4362 11990 c-12 -5 -26 -20 -31 -33 -11 -28 -23 -34 -91 -43 -89
-12 -93 -60 -10 -114 29 -19 53 -42 56 -56 4 -14 -5 -58 -20 -104 -55 -171
-12 -219 93 -105 73 79 131 231 131 343 0 66 -12 90 -55 108 -39 16 -42 16
-73 4z"/>
<path d="M16333 11829 c-85 -55 -125 -104 -121 -149 l3 -35 63 0 c78 0 88 -11
97 -103 21 -217 61 -297 103 -204 36 80 13 439 -33 508 -21 33 -41 30 -112
-17z"/>
<path d="M5014 11606 c-36 -16 -44 -32 -44 -86 0 -53 40 -97 127 -143 140 -72
438 -166 489 -153 14 4 33 21 44 39 74 121 -60 248 -335 317 -141 36 -239 45
-281 26z"/>
<path d="M13688 11564 c-27 -12 -41 -26 -52 -55 -51 -127 24 -210 176 -196
109 10 161 63 138 141 -29 98 -159 153 -262 110z"/>
<path d="M13240 11258 c-27 -45 -35 -93 -21 -138 20 -67 88 -101 125 -64 23
22 29 56 24 124 -3 45 -10 66 -28 85 -34 37 -75 34 -100 -7z"/>
<path d="M4231 11175 c-63 -36 -137 -100 -162 -141 -37 -60 -16 -176 45 -242
77 -85 243 -83 345 5 53 45 71 80 71 138 0 65 -21 107 -87 176 -91 96 -133
109 -212 64z m143 -168 c34 -23 36 -80 3 -128 -35 -52 -60 -50 -118 10 -39 41
-49 58 -49 85 0 23 6 39 18 46 24 15 115 7 146 -13z"/>
<path d="M10781 10967 c-95 -89 -171 -145 -305 -222 -201 -115 -451 -232 -701
-327 -271 -103 -450 -146 -805 -193 -204 -27 -265 -39 -275 -55 -16 -27 568
-273 828 -349 239 -70 333 -86 512 -86 157 0 161 0 211 28 94 52 129 131 101
227 -25 85 -64 123 -181 180 -103 49 -133 71 -121 89 23 38 318 69 488 52 117
-12 219 -41 262 -75 80 -64 19 -279 -152 -534 -138 -205 -357 -337 -603 -363
-184 -19 -235 -29 -289 -57 -66 -33 -96 -70 -87 -106 9 -35 54 -61 139 -80 76
-17 107 -37 107 -68 0 -11 -19 -67 -41 -125 -50 -126 -69 -195 -69 -246 0
-122 82 -98 217 65 95 113 138 150 171 146 40 -4 51 -50 51 -208 1 -194 21
-246 81 -215 31 16 64 63 113 162 74 145 111 164 174 86 96 -119 124 -134 167
-88 32 34 46 90 56 221 8 102 12 120 44 182 21 38 87 127 152 202 251 293 350
448 424 667 41 118 54 214 48 351 -7 137 -43 265 -105 370 -92 155 -389 416
-500 438 -28 6 -38 0 -112 -69z m187 -253 c24 -27 29 -73 10 -92 -16 -16 -59
-15 -84 3 -12 8 -27 29 -34 46 -13 30 -12 33 14 56 33 28 60 24 94 -13z m235
-263 c33 -13 53 -63 41 -108 -17 -69 -66 -70 -89 -2 -24 69 -26 87 -9 103 18
19 24 19 57 7z m-1577 -347 c99 -41 99 -104 1 -104 -49 0 -87 33 -87 74 0 52
19 58 86 30z m432 -110 c32 -21 28 -57 -9 -88 -35 -30 -39 -30 -74 -14 -32 14
-58 62 -50 89 13 39 81 46 133 13z"/>
<path d="M12747 11020 c-32 -26 -34 -50 -7 -75 28 -25 71 -10 84 28 20 56 -29
85 -77 47z"/>
<path d="M14549 11024 c-9 -11 -19 -27 -22 -36 -25 -70 -53 -549 -67 -1143
-12 -503 -24 -667 -75 -995 -32 -203 -8 -350 57 -350 62 0 175 188 222 371 67
259 96 674 96 1369 0 651 -25 783 -150 797 -36 4 -48 1 -61 -13z"/>
<path d="M12190 10982 c-14 -11 -22 -29 -22 -47 0 -29 31 -65 57 -65 23 0 65
41 65 64 0 25 -38 66 -62 66 -9 0 -26 -8 -38 -18z"/>
<path d="M13920 10984 c-74 -50 -130 -121 -130 -166 0 -43 57 -146 92 -168 71
-43 175 -14 217 60 41 73 19 159 -61 237 -52 50 -84 60 -118 37z"/>
<path d="M16362 10969 c-23 -12 -60 -41 -81 -65 -112 -128 -61 -321 105 -390
60 -25 132 3 229 88 82 72 104 153 65 234 -25 50 -97 120 -145 140 -50 20
-123 18 -173 -7z m138 -131 c27 -29 34 -58 27 -114 -5 -48 -38 -94 -67 -94
-26 0 -71 40 -86 76 -22 53 -17 83 20 120 40 40 76 44 106 12z"/>
<path d="M4936 10894 c-19 -19 -22 -104 -4 -122 21 -21 77 -14 103 13 34 33
32 67 -6 99 -35 29 -70 33 -93 10z"/>
<path d="M13321 10805 c-36 -31 -47 -65 -56 -170 -8 -103 10 -442 30 -565 17
-105 49 -180 81 -191 27 -9 100 24 115 53 25 47 40 174 46 383 9 332 -12 452
-86 493 -51 29 -92 28 -130 -3z"/>
<path d="M12749 10638 c-54 -31 -82 -87 -77 -152 3 -34 13 -65 28 -86 30 -42
101 -74 144 -66 92 17 162 198 105 270 -46 58 -133 73 -200 34z"/>
<path d="M12154 10558 c-73 -70 -79 -92 -43 -165 62 -128 190 -131 270 -5 43
67 39 98 -18 153 -104 100 -122 101 -209 17z"/>
<path d="M5580 10460 c-16 -17 -33 -52 -40 -82 -51 -212 152 -977 308 -1159
44 -51 80 -69 137 -69 36 0 51 6 72 26 22 23 25 31 20 73 -3 27 -31 117 -62
201 -69 192 -123 380 -180 636 -62 274 -83 340 -118 375 -41 41 -98 41 -137
-1z"/>
<path d="M4247 10395 c-120 -62 -197 -162 -197 -255 0 -93 40 -156 125 -196
58 -28 119 -31 192 -9 120 36 167 178 101 309 -35 71 -138 166 -180 166 -7 0
-26 -7 -41 -15z m54 -161 c31 -15 59 -65 59 -103 0 -106 -150 -124 -181 -22
-10 33 -9 45 7 77 17 34 52 63 77 64 4 0 22 -7 38 -16z"/>
<path d="M4926 10395 c-112 -39 -185 -213 -133 -313 42 -79 161 -125 263 -103
74 17 138 77 149 138 19 118 -87 263 -210 286 -16 3 -47 -1 -69 -8z m111 -130
c12 -9 27 -31 32 -51 19 -69 -25 -124 -99 -124 -43 0 -94 50 -84 82 12 38 36
70 69 89 37 23 54 24 82 4z"/>
<path d="M13972 10394 c-54 -38 -94 -176 -94 -330 -1 -139 19 -204 82 -266 26
-27 52 -48 59 -48 26 0 91 74 113 128 20 51 23 74 23 222 0 147 -2 170 -21
210 -42 90 -106 124 -162 84z"/>
<path d="M15195 10298 c-30 -28 -37 -44 -50 -110 -23 -121 -43 -342 -56 -598
-15 -304 -6 -405 35 -432 37 -25 133 20 160 75 50 107 80 356 80 682 1 291 -5
328 -59 382 -41 41 -66 42 -110 1z"/>
<path d="M16450 10301 c-111 -34 -294 -190 -277 -236 5 -11 22 -15 76 -15 96
0 97 -2 115 -221 15 -179 25 -225 51 -235 27 -11 64 6 80 36 22 42 35 189 34
395 0 190 -8 262 -30 276 -16 10 -15 10 -49 0z"/>
<path d="M7830 10138 c-74 -38 -104 -99 -137 -283 -21 -119 -22 -347 0 -435
23 -96 87 -246 166 -389 86 -155 145 -300 166 -412 33 -176 78 -309 104 -309
16 0 44 43 106 164 33 63 62 116 65 115 3 0 46 -67 95 -150 141 -236 227 -317
256 -241 21 52 -6 278 -46 392 -8 24 -13 50 -11 57 14 36 116 -12 224 -105 86
-74 157 -122 180 -122 30 0 45 34 37 83 -11 61 -31 109 -98 229 -32 59 -57
114 -54 121 3 8 27 17 56 20 28 3 71 15 95 25 49 22 126 88 126 108 0 14 -44
41 -94 56 -17 5 -98 13 -179 18 -174 11 -257 29 -350 78 -95 49 -157 120 -197
224 -72 187 -62 243 89 468 39 57 67 107 63 111 -19 17 -284 133 -365 161
-127 43 -234 49 -297 16z m232 -245 c24 -21 23 -58 -2 -83 -24 -24 -48 -25
-78 -4 -26 18 -30 65 -6 88 20 21 63 20 86 -1z m10 -466 c15 -24 7 -66 -18
-96 -30 -36 -61 -39 -98 -10 -29 23 -36 72 -13 102 25 36 107 38 129 4z"/>
<path d="M12749 10097 c-60 -40 -91 -187 -93 -445 -1 -167 1 -172 90 -172 91
0 107 25 160 255 18 81 28 150 28 212 1 84 -1 93 -24 118 -54 58 -107 69 -161
32z"/>
<path d="M12116 9968 c-111 -229 -306 -835 -306 -950 0 -35 33 -58 83 -58 92
0 164 69 225 218 94 227 198 574 209 698 5 58 2 78 -15 117 -23 51 -70 87
-114 87 -25 0 -32 -10 -82 -112z"/>
<path d="M15765 9699 c-49 -55 -84 -133 -96 -216 -26 -184 -45 -288 -94 -513
-87 -395 -92 -476 -34 -525 41 -34 80 -32 124 6 73 64 139 251 214 605 90 426
94 573 16 651 -47 47 -82 45 -130 -8z"/>
<path d="M4640 9685 c-6 -8 -14 -50 -17 -95 -6 -76 -7 -80 -30 -80 -13 0 -69
18 -125 40 -135 53 -161 57 -187 31 -25 -25 -26 -62 -6 -149 43 -182 140 -235
144 -79 1 49 15 49 141 -8 126 -56 154 -57 203 -7 32 32 37 44 37 83 0 74 -49
199 -98 252 -29 31 -44 34 -62 12z"/>
<path d="M5155 9594 c-20 -22 -25 -37 -25 -81 0 -29 7 -69 14 -88 13 -29 20
-35 46 -35 62 0 130 57 130 109 0 35 -83 121 -117 121 -13 0 -35 -12 -48 -26z"/>
<path d="M13340 9613 c-65 -24 -121 -140 -200 -410 -52 -180 -90 -360 -90
-424 0 -43 5 -55 29 -80 88 -88 194 37 294 347 47 144 67 256 67 368 0 110
-12 158 -47 186 -27 21 -29 22 -53 13z"/>
<path d="M13960 9600 c-84 -84 -151 -367 -121 -512 15 -73 39 -102 96 -118 43
-12 47 -11 79 14 19 14 44 41 55 60 47 75 67 323 37 451 -11 46 -23 67 -50 92
-41 38 -68 41 -96 13z"/>
<path d="M16280 9359 c-42 -17 -91 -71 -121 -134 -54 -112 -35 -216 51 -281
81 -61 169 -80 229 -49 65 33 134 150 134 230 1 140 -175 281 -293 234z m109
-160 c37 -13 51 -35 51 -82 0 -35 -32 -92 -62 -111 -41 -25 -105 30 -115 100
-6 45 22 90 60 97 12 2 25 5 28 6 3 0 20 -4 38 -10z"/>
<path d="M12514 9240 c-51 -20 -71 -108 -39 -169 35 -68 130 -114 183 -89 38
18 54 56 42 98 -15 51 -58 107 -108 140 -50 33 -48 32 -78 20z"/>
<path d="M5351 9165 c-86 -73 -48 -165 69 -165 48 0 85 39 75 79 -9 37 -43 79
-75 96 -37 19 -33 19 -69 -10z"/>
<path d="M4742 9114 c-26 -18 -28 -54 -8 -131 8 -31 10 -53 5 -53 -6 0 -65 16
-132 36 -180 53 -284 58 -307 15 -17 -33 4 -68 57 -94 113 -57 365 -129 457
-131 53 -1 60 2 80 27 17 23 21 42 20 102 0 61 -5 83 -32 138 -43 87 -96 122
-140 91z"/>
<path d="M6172 8934 c-43 -26 -72 -67 -72 -104 0 -50 69 -147 232 -328 323
-356 756 -647 1345 -901 481 -208 803 -273 882 -178 21 27 16 84 -12 120 -37
49 -125 91 -277 132 -228 61 -363 112 -585 221 -248 121 -503 277 -740 453
-154 115 -230 179 -430 363 -140 128 -283 248 -295 248 -3 0 -24 -12 -48 -26z"/>
<path d="M15050 8857 c-20 -10 -31 -32 -57 -119 -73 -243 -100 -437 -68 -498
50 -96 147 -72 208 53 65 134 110 435 77 522 -17 46 -106 69 -160 42z"/>
<path d="M13792 8820 c-72 -17 -181 -115 -221 -200 -20 -43 -26 -70 -25 -125
0 -169 118 -285 289 -285 118 0 211 55 262 154 22 42 27 64 27 126 0 96 -27
154 -104 230 -81 80 -162 115 -228 100z m103 -200 c33 -33 39 -47 43 -93 7
-87 -40 -155 -99 -143 -71 14 -119 73 -119 147 0 36 6 48 44 85 55 56 80 57
131 4z"/>
<path d="M5529 8804 c-7 -8 -14 -39 -16 -67 -5 -66 18 -100 67 -100 35 0 80
39 80 69 0 18 -88 114 -105 114 -7 0 -18 -7 -26 -16z"/>
<path d="M11631 8796 c-44 -47 -47 -141 -5 -187 26 -28 59 -23 89 13 24 28 27
39 23 85 -8 93 -61 138 -107 89z"/>
<path d="M12300 8781 c-97 -102 -192 -252 -205 -324 -17 -91 52 -197 150 -230
194 -66 348 70 332 293 -7 105 -40 173 -119 245 -77 69 -105 72 -158 16z m119
-227 c30 -39 36 -85 16 -128 -17 -36 -58 -66 -90 -66 -22 0 -75 54 -75 77 0
26 37 94 66 121 33 29 58 28 83 -4z"/>
<path d="M4485 8557 c-89 -40 -116 -57 -135 -90 -25 -40 -25 -42 0 -67 15 -15
33 -20 69 -20 27 0 57 -3 66 -6 21 -8 46 -59 79 -161 31 -92 76 -163 105 -163
27 0 45 58 37 118 -21 149 -127 414 -165 412 -3 -1 -28 -11 -56 -23z"/>
<path d="M5092 8564 c-25 -17 -72 -103 -72 -132 0 -58 136 -80 189 -31 14 13
21 32 21 56 0 29 -8 44 -44 79 -47 48 -60 52 -94 28z"/>
<path d="M16121 8501 c-27 -29 -68 -123 -73 -170 -5 -37 21 -46 88 -30 53 13
61 18 78 52 22 46 16 112 -15 151 -26 34 -45 33 -78 -3z"/>
<path d="M11280 8457 c-30 -13 -84 -42 -120 -67 -77 -51 -230 -201 -254 -248
-16 -32 -16 -35 1 -65 11 -18 34 -42 53 -55 44 -30 69 -24 189 41 220 121 352
313 274 399 -22 25 -75 23 -143 -5z"/>
<path d="M5773 8445 c-17 -7 -36 -23 -43 -34 -13 -25 -16 -77 -6 -109 8 -25
53 -52 89 -52 40 0 87 64 87 119 0 43 -9 60 -41 76 -34 18 -45 18 -86 0z"/>
<path d="M12906 8406 c-146 -54 -152 -226 -8 -266 140 -39 230 17 220 137 -3
38 -11 60 -29 79 -49 53 -120 72 -183 50z"/>
<path d="M14302 8223 c-48 -23 -72 -60 -161 -239 -146 -295 -183 -433 -126
-470 29 -19 83 -14 121 11 35 23 125 155 188 275 132 254 152 362 79 420 -31
24 -57 25 -101 3z"/>
<path d="M11709 8177 c-78 -52 -117 -172 -89 -272 25 -88 131 -178 210 -178
70 0 182 86 200 152 18 70 -6 127 -94 220 -97 101 -161 123 -227 78z m123
-124 c53 -57 86 -155 56 -166 -28 -9 -134 42 -165 81 -20 25 -15 54 14 84 34
35 62 36 95 1z"/>
<path d="M5302 8114 c-21 -9 -42 -61 -42 -104 0 -54 34 -90 84 -90 27 0 40 6
52 26 24 36 22 108 -3 142 -19 26 -61 38 -91 26z"/>
<path d="M6142 8104 c-46 -24 -148 -136 -162 -179 -32 -97 29 -188 158 -238
91 -36 154 -11 198 80 36 72 40 186 9 248 -39 78 -138 122 -203 89z m92 -174
c39 -38 -9 -130 -68 -130 -12 0 -32 9 -44 20 -46 43 -36 100 21 125 36 16 63
11 91 -15z"/>
<path d="M13353 8051 c-46 -22 -73 -44 -107 -88 -60 -75 -106 -167 -106 -210
0 -102 139 -232 309 -290 77 -26 121 -29 160 -8 47 24 122 116 162 199 69 143
52 210 -82 311 -81 61 -193 115 -239 115 -19 0 -63 -13 -97 -29z m161 -173
c90 -74 122 -173 71 -223 -49 -50 -153 -17 -218 69 -44 57 -40 87 18 143 54
52 78 54 129 11z"/>
<path d="M10528 7968 c-33 -50 -58 -109 -58 -134 0 -37 77 -114 114 -114 37 0
99 33 130 70 51 62 27 129 -65 175 -61 32 -102 32 -121 3z"/>
<path d="M12490 7928 c-69 -47 -87 -133 -40 -183 27 -28 65 -36 116 -25 56 13
74 40 74 112 0 52 -3 63 -29 89 -36 36 -75 38 -121 7z"/>
<path d="M15463 7935 c-44 -19 -125 -96 -162 -154 -47 -72 -57 -134 -36 -207
15 -51 27 -69 94 -135 99 -98 170 -134 261 -134 76 1 127 24 197 88 62 57 87
109 87 177 -1 79 -39 148 -139 247 -120 120 -213 157 -302 118z m143 -223 c84
-54 134 -101 134 -124 0 -11 -9 -33 -21 -49 -45 -64 -134 -79 -190 -32 -41 34
-59 79 -59 143 0 41 5 56 25 75 13 14 30 25 38 25 8 0 41 -17 73 -38z"/>
<path d="M14845 7910 c-70 -15 -96 -43 -192 -204 -91 -153 -200 -379 -213
-441 -18 -88 8 -135 75 -135 67 0 149 73 241 215 114 177 195 368 195 468 1
84 -31 112 -106 97z"/>
<path d="M4781 7860 c-42 -18 -112 -81 -142 -128 -66 -104 -39 -221 64 -273
32 -17 54 -20 107 -17 132 7 219 94 227 225 3 58 0 74 -19 107 -39 68 -169
114 -237 86z m92 -130 c35 -28 41 -53 22 -95 -43 -90 -175 -101 -175 -13 0 41
78 123 121 127 4 1 18 -8 32 -19z"/>
<path d="M5542 7808 c-62 -67 -47 -158 26 -158 23 0 69 51 78 85 18 73 -55
124 -104 73z"/>
<path d="M10034 7780 c-96 -30 -143 -158 -77 -210 84 -66 283 -6 283 86 0 47
-18 81 -55 104 -39 24 -108 33 -151 20z"/>
<path d="M11208 7761 c-51 -32 -118 -114 -118 -143 0 -22 36 -38 88 -38 59 0
103 -30 142 -98 62 -107 92 -126 137 -88 25 22 26 24 14 72 -29 112 -159 324
-200 324 -9 0 -38 -13 -63 -29z"/>
<path d="M6523 7674 c-104 -51 -157 -144 -134 -234 27 -104 107 -171 203 -172
229 -2 313 280 121 403 -61 38 -119 39 -190 3z m151 -125 c31 -36 28 -59 -12
-101 -37 -40 -86 -54 -117 -34 -33 22 -33 62 0 106 49 66 90 75 129 29z"/>
<path d="M9440 7624 c-75 -68 -76 -155 -3 -189 53 -25 154 -17 188 15 67 63
-6 210 -106 210 -31 0 -47 -8 -79 -36z"/>
<path d="M12168 7605 c-34 -19 -58 -108 -38 -144 28 -53 115 -58 167 -9 47 44
19 131 -52 158 -34 13 -44 12 -77 -5z"/>
<path d="M8929 7565 c-62 -34 -58 -112 8 -186 47 -52 74 -51 129 5 54 53 56
81 13 131 -55 62 -100 77 -150 50z"/>
<path d="M7093 7505 c-31 -31 -34 -39 -31 -81 2 -37 9 -51 30 -67 26 -20 27
-20 65 0 43 22 83 75 83 109 0 28 -53 74 -87 74 -15 0 -38 -13 -60 -35z"/>
<path d="M10699 7466 c-239 -85 -374 -151 -441 -217 -43 -41 -48 -50 -48 -90
0 -52 7 -64 39 -72 35 -9 181 10 298 38 276 66 405 183 332 301 -43 70 -76 77
-180 40z"/>
<path d="M5746 7429 c-55 -43 -16 -129 59 -129 106 0 142 97 50 136 -47 19
-78 18 -109 -7z"/>
<path d="M12862 7436 c-90 -32 -201 -199 -202 -300 0 -105 70 -186 230 -264
78 -39 105 -47 150 -47 48 0 62 5 115 41 154 107 197 213 135 334 -34 67 -154
186 -223 220 -66 33 -142 39 -205 16z m116 -160 c40 -21 99 -86 117 -128 20
-50 19 -80 -6 -112 -38 -49 -128 -27 -182 45 -40 55 -31 161 17 194 25 18 21
18 54 1z"/>
<path d="M7530 7338 c-41 -67 -35 -141 16 -189 28 -27 82 -31 110 -8 57 47 50
133 -16 193 -51 46 -83 47 -110 4z"/>
<path d="M11730 7336 c-36 -13 -148 -62 -250 -111 -215 -102 -439 -196 -607
-256 -387 -138 -489 -181 -551 -234 -53 -45 -34 -94 48 -129 102 -42 209 -27
495 71 479 164 1041 426 1069 498 17 45 -3 105 -52 158 -32 34 -65 35 -152 3z"/>
<path d="M5310 7241 c-50 -16 -86 -40 -136 -93 -145 -153 -94 -321 105 -345
96 -11 193 47 237 142 39 82 28 153 -32 223 -53 62 -119 90 -174 73z m68 -177
c34 -24 29 -69 -12 -110 -31 -31 -40 -34 -90 -34 -68 0 -76 11 -51 75 29 77
98 108 153 69z"/>
<path d="M6855 7178 c-116 -60 -144 -151 -76 -245 35 -48 102 -83 157 -83 61
0 136 42 163 91 19 33 22 52 19 100 -5 69 -34 108 -107 140 -56 24 -105 24
-156 -3z"/>
<path d="M15036 7188 c-52 -14 -114 -78 -154 -158 -51 -102 -41 -168 40 -256
57 -63 147 -120 226 -144 75 -23 197 -27 245 -6 72 30 113 116 104 216 -16
168 -131 300 -302 345 -67 17 -102 18 -159 3z m163 -178 c101 -51 150 -180 94
-242 -9 -10 -27 -18 -41 -18 -55 0 -192 116 -229 194 -16 34 -16 37 3 57 10
12 28 25 39 30 27 12 89 2 134 -21z"/>
<path d="M6093 7140 c-39 -23 -47 -51 -41 -138 11 -153 101 -225 202 -162 40
24 105 124 112 172 7 42 -27 94 -81 125 -53 30 -146 32 -192 3z"/>
<path d="M7982 7150 c-26 -11 -42 -47 -42 -96 0 -74 96 -122 158 -78 56 39 70
129 26 163 -29 23 -99 28 -142 11z"/>
<path d="M13825 7093 c-54 -28 -123 -104 -150 -165 -24 -53 -27 -70 -23 -141
2 -62 9 -94 28 -130 45 -89 133 -146 237 -155 54 -4 70 -1 118 22 99 49 197
171 211 263 15 104 -71 238 -191 295 -49 23 -73 28 -130 28 -44 -1 -81 -7
-100 -17z m145 -128 c17 -20 5 -62 -20 -70 -44 -14 -80 41 -48 73 17 17 53 15
68 -3z m-1 -207 c46 -49 35 -128 -18 -128 -61 0 -90 92 -42 131 30 24 36 24
60 -3z"/>
<path d="M8422 7074 c-40 -19 -61 -137 -29 -172 46 -50 226 -101 502 -142 362
-53 535 -31 560 71 16 65 -83 116 -310 158 -240 45 -693 98 -723 85z"/>
<path d="M9789 6991 c-44 -14 -74 -39 -97 -80 -56 -99 -1 -181 120 -181 96 1
178 57 178 124 0 85 -115 164 -201 137z"/>
<path d="M12383 6851 c-68 -42 -142 -174 -128 -228 10 -42 103 -129 150 -142
146 -39 261 136 181 273 -14 24 -44 58 -66 76 -51 40 -95 47 -137 21z"/>
<path d="M7331 6794 c-16 -20 -21 -41 -21 -85 0 -73 19 -97 143 -180 112 -75
196 -117 312 -158 116 -41 160 -39 192 8 13 19 23 44 23 56 0 72 -133 172
-429 322 -143 73 -186 80 -220 37z"/>
<path d="M11835 6722 c-41 -26 -135 -130 -152 -169 -19 -48 -16 -73 18 -142
39 -79 128 -176 175 -191 77 -26 148 17 205 122 29 55 34 72 34 133 -1 52 -6
80 -22 110 -21 40 -86 107 -133 139 -32 21 -88 20 -125 -2z m93 -145 c33 -35
75 -134 68 -162 -16 -64 -99 -46 -136 29 -22 46 -26 106 -10 137 14 26 52 24
78 -4z"/>
<path d="M6625 6681 c-99 -45 -160 -131 -160 -226 0 -103 62 -170 182 -195 94
-21 166 18 197 106 76 215 -48 393 -219 315z m82 -140 c59 -87 -17 -213 -83
-140 -40 44 -9 184 39 177 12 -2 32 -18 44 -37z"/>
<path d="M5743 6640 c-90 -46 -157 -153 -157 -250 0 -160 168 -268 310 -199
116 56 176 246 114 358 -14 24 -42 58 -63 75 -51 41 -141 48 -204 16z m120
-151 c48 -26 49 -66 5 -114 -40 -44 -95 -56 -133 -31 -14 9 -25 22 -25 30 0
24 57 92 91 109 41 20 36 19 62 6z"/>
<path d="M13387 6596 c-78 -32 -167 -90 -323 -207 -224 -169 -253 -217 -176
-292 47 -46 86 -48 175 -11 221 93 521 383 492 474 -9 28 -54 60 -84 60 -14 0
-52 -11 -84 -24z"/>
<path d="M9858 6590 c-33 -26 -68 -80 -68 -108 0 -37 46 -62 115 -62 78 0 89
11 83 81 -9 93 -70 134 -130 89z"/>
<path d="M8285 6561 c-91 -41 -165 -172 -151 -264 9 -58 48 -113 98 -138 52
-27 153 -36 188 -17 51 27 108 149 117 248 12 140 -122 230 -252 171z m125
-159 c0 -46 -32 -117 -58 -131 -27 -15 -75 -14 -90 1 -36 36 16 135 93 176 32
17 55 -3 55 -46z"/>
<path d="M14554 6569 c-46 -13 -129 -96 -155 -154 -34 -75 -32 -173 4 -247 54
-110 193 -208 295 -208 79 0 197 81 228 156 23 55 18 122 -17 194 -38 81 -165
210 -242 245 -56 27 -66 28 -113 14z m136 -235 c64 -58 102 -190 65 -228 -40
-40 -101 -22 -161 48 -75 87 -91 150 -49 191 38 39 94 35 145 -11z"/>
<path d="M11337 6530 c-50 -15 -95 -58 -126 -121 -33 -66 -37 -101 -20 -164
14 -50 104 -141 172 -174 47 -23 49 -23 91 -7 97 37 166 127 166 216 0 141
-166 287 -283 250z m100 -135 c34 -24 57 -105 43 -154 -20 -77 -93 -93 -127
-28 -25 46 -24 148 1 176 22 25 53 27 83 6z"/>
<path d="M8848 6440 c-35 -10 -124 -75 -132 -95 -3 -9 8 -30 27 -52 31 -36 32
-39 37 -157 6 -127 18 -166 50 -166 87 0 151 280 98 430 -8 25 -37 53 -50 49
-2 0 -15 -4 -30 -9z"/>
<path d="M9265 6351 c-69 -42 -138 -157 -138 -231 0 -113 123 -243 229 -243
92 0 170 93 181 215 8 78 -11 139 -60 195 -68 77 -151 102 -212 64z m111 -148
c58 -89 18 -219 -62 -199 -32 9 -58 66 -50 114 7 44 53 112 76 112 10 0 26
-12 36 -27z"/>
<path d="M7089 6321 c-52 -17 -68 -32 -79 -72 -19 -68 7 -182 56 -246 21 -28
31 -33 65 -33 73 0 168 53 214 121 23 33 27 46 23 88 -6 57 -36 104 -81 128
-36 18 -158 27 -198 14z"/>
<path d="M10807 6290 c-66 -60 -89 -62 -502 -55 -380 8 -451 3 -526 -36 -78
-39 -92 -106 -34 -158 62 -54 122 -64 345 -58 225 6 381 30 509 76 45 17 98
31 116 31 41 0 51 -13 94 -126 30 -78 68 -134 90 -134 57 0 67 324 15 450 -26
62 -49 65 -107 10z"/>
<path d="M13833 6121 c-94 -61 -130 -122 -121 -206 12 -103 109 -238 194 -271
56 -21 138 -14 202 18 71 35 95 88 88 193 -10 159 -56 229 -183 280 -85 34
-109 32 -180 -14z m152 -132 c48 -44 85 -110 85 -151 0 -31 -45 -88 -69 -88
-24 0 -66 47 -90 100 -32 71 -24 180 14 180 8 0 35 -18 60 -41z"/>
<path d="M12111 6094 c-74 -37 -190 -154 -227 -229 -40 -82 -45 -185 -14 -267
35 -95 94 -173 148 -199 43 -21 61 -23 197 -23 88 1 169 6 195 13 58 16 136
95 176 177 26 54 29 68 29 164 0 92 -3 111 -24 150 -57 107 -125 162 -261 210
-106 37 -151 38 -219 4z m150 -274 c57 -31 69 -153 18 -181 -32 -17 -58 -1
-84 51 -27 53 -32 109 -13 128 15 15 53 16 79 2z"/>
<path d="M6317 6066 c-223 -80 -250 -368 -42 -440 136 -46 230 6 306 168 37
79 35 111 -14 179 -69 97 -152 127 -250 93z m101 -148 c19 -19 14 -96 -9 -138
-37 -66 -94 -79 -132 -29 -27 37 -15 80 37 135 44 45 80 56 104 32z"/>
<path d="M7854 5969 c-27 -17 -62 -43 -77 -58 -98 -90 -86 -236 27 -339 92
-84 147 -89 223 -19 55 51 83 104 90 171 8 80 -11 134 -67 188 -44 42 -115 88
-138 88 -4 0 -30 -14 -58 -31z"/>
<path d="M6997 5726 c-108 -39 -239 -188 -239 -271 0 -103 174 -214 298 -191
76 15 187 157 187 240 0 65 -61 171 -118 206 -44 26 -85 31 -128 16z m88 -171
c48 -47 20 -142 -50 -171 -101 -42 -170 98 -83 171 40 34 99 34 133 0z"/>
<path d="M8383 5678 c-12 -13 -26 -42 -33 -66 -21 -79 26 -136 148 -183 101
-38 278 -78 525 -119 430 -71 608 -88 982 -97 394 -9 568 15 630 88 42 50 28
112 -33 143 -50 25 -309 51 -772 76 -489 27 -830 68 -1239 151 -173 35 -182
35 -208 7z"/>
<path d="M13345 5684 c-69 -35 -139 -131 -133 -181 3 -27 5 -28 64 -28 73 0
93 -14 131 -90 42 -81 79 -130 116 -150 47 -25 67 -10 67 50 0 87 -103 316
-176 388 -31 32 -30 31 -69 11z"/>
<path d="M11219 5635 c-161 -28 -221 -49 -264 -90 -39 -36 -44 -68 -20 -115
52 -100 322 -117 489 -31 59 30 74 43 94 82 22 43 22 49 9 75 -24 46 -115 105
-159 103 -13 -1 -79 -11 -149 -24z"/>
<path d="M12679 5347 c-23 -15 -42 -41 -57 -77 -19 -47 -22 -69 -20 -156 3
-90 7 -107 36 -166 22 -44 44 -74 65 -87 106 -65 274 -13 331 101 69 139 -1
322 -148 389 -61 28 -163 26 -207 -4z m165 -118 c39 -31 59 -77 60 -139 2 -96
-39 -150 -91 -121 -31 16 -84 125 -90 185 -5 49 -3 54 22 74 35 28 65 28 99 1z"/>
<path d="M7473 5319 c-35 -36 2 -120 68 -154 77 -40 85 -81 39 -207 -46 -126
-38 -153 34 -108 65 40 166 224 166 303 0 49 -25 73 -135 127 -92 46 -153 59
-172 39z"/>
<path d="M8228 5170 c-56 -37 -95 -86 -120 -153 -73 -192 15 -410 172 -425 65
-6 101 10 155 70 60 67 87 142 88 244 0 65 -5 91 -25 135 -67 147 -169 196
-270 129z m106 -155 c13 -14 27 -37 30 -52 10 -36 -10 -120 -42 -178 -23 -43
-31 -50 -57 -50 -26 0 -31 5 -43 45 -8 27 -12 79 -10 128 3 78 5 86 31 108 36
31 62 30 91 -1z"/>
<path d="M12069 5156 c-85 -29 -156 -94 -180 -163 -8 -22 -14 -74 -13 -123 2
-140 61 -258 154 -308 37 -19 55 -23 101 -19 146 13 198 90 199 294 0 164 -25
226 -114 278 -80 47 -107 54 -147 41z m78 -180 c46 -68 66 -139 53 -188 -21
-75 -88 -87 -148 -25 -57 59 -59 86 -13 192 41 92 59 96 108 21z"/>
<path d="M8944 5010 c-92 -52 -136 -126 -150 -251 -13 -117 40 -287 107 -343
40 -34 90 -47 134 -35 83 23 185 172 208 302 9 55 8 75 -7 129 -23 83 -75 162
-133 198 -59 38 -94 38 -159 0z m121 -156 c42 -16 63 -113 40 -189 -17 -59
-72 -125 -104 -125 -39 0 -71 70 -71 157 0 109 64 184 135 157z"/>
<path d="M11252 5015 c-69 -32 -147 -111 -180 -183 -36 -78 -35 -169 2 -266
54 -142 140 -215 253 -216 90 0 162 41 217 124 88 132 96 241 27 372 -52 102
-90 147 -144 173 -57 28 -110 26 -175 -4z m125 -167 c46 -32 73 -91 73 -162 0
-128 -85 -198 -155 -128 -40 39 -55 82 -55 154 0 46 6 73 21 98 39 65 63 73
116 38z"/>
<path d="M9746 4909 c-49 -14 -130 -69 -153 -104 -66 -101 -78 -308 -22 -416
23 -47 80 -78 153 -86 77 -8 131 11 186 66 134 134 110 387 -50 511 -41 32
-74 41 -114 29z m43 -183 c46 -49 47 -179 3 -265 -47 -90 -112 -17 -112 125 0
70 11 108 42 142 27 28 39 28 67 -2z"/>
<path d="M10485 4910 c-75 -17 -142 -77 -186 -165 -20 -42 -24 -64 -24 -145 0
-78 4 -104 23 -145 48 -105 118 -150 232 -150 138 0 215 68 241 212 20 104
-21 244 -95 321 -54 58 -130 86 -191 72z m84 -184 c26 -28 51 -104 51 -155 0
-52 -39 -124 -73 -135 -21 -8 -33 -6 -54 10 -48 36 -66 70 -71 134 -5 74 1
100 34 139 33 39 80 42 113 7z"/>
</g>
</svg>
