<?xml version="1.0" standalone="no"?>
<!DOCTYPE svg PUBLIC "-//W3C//DTD SVG 20010904//EN"
 "http://www.w3.org/TR/2001/REC-SVG-20010904/DTD/svg10.dtd">
<svg version="1.0" xmlns="http://www.w3.org/2000/svg"
 width="500.000000pt" height="500.000000pt" viewBox="0 0 500.000000 500.000000"
 preserveAspectRatio="xMidYMid meet">

<g transform="translate(0.000000,500.000000) scale(0.100000,-0.100000)"
fill="#000000" stroke="none">
<path d="M2554 3982 c-36 -24 -21 -102 20 -102 26 0 56 32 56 61 0 33 -49 59
-76 41z m43 -38 c8 -21 -13 -42 -28 -27 -13 13 -5 43 11 43 6 0 13 -7 17 -16z"/>
<path d="M2708 3967 c-22 -17 -27 -41 -8 -42 10 0 16 -13 18 -42 4 -52 27 -58
36 -10 6 37 -5 99 -19 103 -6 2 -18 -2 -27 -9z"/>
<path d="M2254 3962 c-37 -25 -46 -110 -14 -142 43 -43 90 -9 90 65 0 59 -41
100 -76 77z m38 -49 c2 -24 -3 -67 -8 -72 -9 -9 -34 23 -34 43 0 37 38 63 42
29z"/>
<path d="M2398 3959 c-22 -12 -24 -39 -3 -39 12 0 15 -13 15 -56 0 -47 3 -55
18 -52 13 2 18 15 20 58 5 91 -8 114 -50 89z"/>
<path d="M2109 3920 c-22 -19 -23 -21 -6 -30 12 -8 17 -24 17 -55 0 -40 13
-65 27 -51 10 9 16 103 9 130 -8 31 -16 32 -47 6z"/>
<path d="M2883 3913 c-13 -8 -23 -26 -23 -39 0 -27 36 -64 62 -64 24 0 58 35
58 60 0 25 -34 60 -57 59 -10 0 -28 -7 -40 -16z m63 -28 c6 -15 -12 -45 -27
-45 -11 0 -22 38 -14 50 9 15 35 12 41 -5z"/>
<path d="M1961 3856 l-23 -24 24 -4 c20 -3 24 -10 28 -61 8 -87 25 -70 25 25
0 93 -13 108 -54 64z"/>
<path d="M1877 3853 c-10 -10 -8 -203 2 -203 16 0 21 30 21 121 0 82 -5 100
-23 82z"/>
<path d="M3070 3840 c-11 -11 -20 -31 -20 -45 0 -46 60 -82 96 -57 15 10 34
47 34 66 0 24 -37 56 -65 56 -14 0 -34 -9 -45 -20z m68 -40 c4 -27 -17 -44
-35 -28 -16 13 -17 30 -1 46 17 17 32 10 36 -18z"/>
<path d="M1627 3794 c-29 -27 -36 -40 -31 -58 5 -20 1 -25 -23 -31 l-28 -7 23
-19 c26 -21 22 -39 -9 -39 -28 0 -21 -34 9 -38 32 -5 27 -28 -10 -41 -33 -12
-30 -26 6 -33 30 -5 31 -26 2 -39 -37 -17 -35 -43 3 -36 41 8 46 -3 14 -30
-33 -27 -11 -32 27 -7 31 21 120 106 120 115 0 4 -9 9 -20 12 -11 3 -20 10
-20 15 0 6 9 14 20 17 26 8 26 25 -1 32 -12 4 -18 11 -15 20 3 8 6 17 6 19 0
2 12 4 28 5 l27 0 -22 16 c-30 20 -29 31 2 43 28 11 32 25 10 34 -8 3 -15 15
-15 26 0 22 -33 60 -52 60 -7 0 -30 -16 -51 -36z"/>
<path d="M2539 3796 c-16 -34 -3 -74 26 -88 51 -23 89 57 47 95 -27 25 -60 21
-73 -7z m51 -36 c0 -16 -5 -30 -10 -30 -14 0 -24 26 -16 45 10 26 26 16 26
-15z"/>
<path d="M2393 3758 c-19 -24 -20 -43 -6 -71 18 -37 61 -34 82 4 13 24 13 29
-2 53 -19 28 -57 35 -74 14z"/>
<path d="M3242 3747 c-28 -30 -28 -62 0 -81 30 -21 54 -20 78 4 26 26 25 54
-2 80 -28 26 -49 25 -76 -3z m55 -32 c5 -16 -14 -38 -26 -31 -18 12 -13 48 6
44 9 -2 18 -7 20 -13z"/>
<path d="M2212 3730 c-16 -17 -22 -18 -55 -8 -69 21 -116 -26 -75 -77 24 -31
36 -31 76 -1 18 13 54 26 83 30 60 8 99 25 99 42 0 36 -97 47 -128 14z"/>
<path d="M2772 3717 c-12 -13 -22 -30 -22 -39 0 -9 -10 -23 -22 -32 -22 -14
-22 -16 -5 -26 21 -13 13 -30 -14 -30 -23 0 -24 -9 -2 -25 17 -13 10 -35 -11
-35 -9 0 -12 -9 -8 -27 4 -23 2 -25 -17 -20 -22 5 -38 -7 -22 -18 13 -8 2 -35
-14 -35 -7 0 -15 -7 -19 -15 -8 -22 -67 -55 -97 -55 -15 0 -38 9 -52 20 -45
35 -170 90 -242 105 -95 20 -182 18 -295 -5 -219 -47 -401 -177 -482 -347 -51
-105 -67 -205 -49 -307 21 -125 88 -197 238 -254 l82 -32 235 0 234 0 100 34
c119 40 208 98 260 167 39 53 61 59 77 21 12 -26 22 -28 28 -4 3 13 6 11 15
-10 13 -33 32 -37 32 -8 0 11 5 20 10 20 6 0 10 -9 10 -19 0 -28 20 -37 27
-12 6 24 23 29 23 7 0 -24 21 -30 27 -7 3 12 9 21 13 21 4 0 10 -9 13 -21 6
-23 27 -17 27 7 0 21 17 17 23 -6 7 -28 27 -25 27 5 0 30 16 33 25 5 9 -28 25
-25 25 5 0 28 12 32 30 10 16 -19 30 -19 30 -1 0 8 17 23 38 33 27 13 38 25
40 45 4 36 -31 73 -61 63 -12 -4 -36 -8 -53 -9 -17 0 -37 -6 -45 -11 -9 -7
-58 -9 -131 -5 -98 4 -121 8 -145 26 -35 26 -40 63 -15 95 l20 24 19 -24 20
-24 8 34 c7 28 9 30 12 12 2 -12 11 -27 19 -33 12 -10 14 -7 14 19 0 37 17 41
26 6 9 -36 24 -31 24 8 l0 32 19 -24 c19 -25 36 -16 24 15 -6 17 -5 17 17 1
35 -25 42 -21 34 18 -3 19 -4 35 -1 35 3 0 22 -9 41 -21 28 -16 36 -18 36 -7
0 8 -5 19 -11 25 -7 7 -9 19 -5 28 6 16 8 16 31 1 13 -9 29 -16 35 -16 17 0
11 28 -7 39 -15 8 -16 12 -5 23 10 10 17 10 32 0 11 -6 22 -12 25 -12 11 0 4
28 -10 40 -24 20 -18 33 11 26 20 -5 25 -4 21 6 -2 8 1 22 9 33 20 27 17 62
-6 85 -28 28 -56 25 -87 -7 -14 -16 -29 -27 -34 -25 -5 1 -14 -9 -19 -23 -5
-14 -16 -25 -24 -25 -7 0 -20 -10 -29 -23 -33 -51 -204 -109 -260 -88 -30 12
-53 51 -43 76 4 12 10 14 25 5 31 -16 39 -12 33 18 -5 27 -5 27 17 8 22 -20
43 -14 23 6 -7 7 -12 18 -12 25 0 11 5 10 23 -2 29 -19 43 -8 21 16 -9 10 -14
25 -11 33 5 13 12 13 37 4 39 -13 47 -5 26 26 -23 37 -21 39 29 33 50 -7 61 6
21 25 -14 6 -27 17 -30 24 -5 14 9 19 64 27 l25 3 -27 14 c-45 21 -36 46 15
41 24 -3 22 26 -3 34 -24 8 -26 21 -5 29 24 9 19 80 -7 110 -34 36 -60 40 -86
13z m-773 -286 c12 -21 5 -31 -21 -31 -11 0 -18 7 -18 18 0 35 23 43 39 13z
m291 -6 c0 -8 -7 -15 -15 -15 -16 0 -20 12 -8 23 11 12 23 8 23 -8z m-160 -5
c0 -5 -9 -10 -21 -10 -11 0 -17 5 -14 10 3 6 13 10 21 10 8 0 14 -4 14 -10z
m-342 -38 c2 -7 -6 -12 -17 -12 -21 0 -27 11 -14 24 9 9 26 2 31 -12z m120
-25 c4 -21 -25 -34 -40 -19 -8 8 -8 16 2 27 16 19 34 15 38 -8z m462 8 c13
-16 6 -35 -15 -35 -18 0 -28 17 -21 35 7 19 20 19 36 0z m-150 -19 c0 -29 -28
-42 -48 -22 -20 20 -8 46 23 46 20 0 25 -5 25 -24z m-171 -40 c15 -18 4 -46
-19 -46 -28 0 -45 27 -30 45 16 19 34 19 49 1z m-374 -5 c7 -12 -12 -24 -25
-16 -11 7 -4 25 10 25 5 0 11 -4 15 -9z m120 -10 c7 -12 -12 -24 -25 -16 -11
7 -4 25 10 25 5 0 11 -4 15 -9z m703 -28 c5 -18 -28 -29 -38 -12 -5 7 -6 17
-3 22 7 12 35 5 41 -10z m-600 -26 c4 -20 -25 -34 -40 -19 -15 15 -1 44 19 40
10 -2 19 -11 21 -21z m442 -8 c0 -25 -33 -22 -38 4 -2 12 3 17 17 17 15 0 21
-6 21 -21z m-162 -1 c16 -16 15 -25 -5 -32 -19 -8 -34 10 -26 31 6 16 15 17
31 1z m-468 -32 c-13 -13 -35 7 -25 24 5 8 11 8 21 -1 10 -8 12 -15 4 -23z
m-113 8 c8 -21 -13 -42 -28 -27 -13 13 -5 43 11 43 6 0 13 -7 17 -16z m496
-21 c9 -9 -13 -34 -24 -27 -14 8 -11 34 4 34 8 0 17 -3 20 -7z m344 -8 c2 -6
-3 -19 -11 -30 -12 -16 -16 -17 -30 -6 -12 10 -13 18 -5 33 11 20 40 21 46 3z
m-927 -26 c0 -5 -4 -9 -10 -9 -5 0 -10 7 -10 16 0 8 5 12 10 9 6 -3 10 -10 10
-16z m460 11 c0 -5 -4 -10 -10 -10 -5 0 -10 5 -10 10 0 6 5 10 10 10 6 0 10
-4 10 -10z m310 -6 c0 -11 -5 -14 -16 -10 -9 3 -18 6 -20 6 -3 0 -2 5 1 10 10
16 35 12 35 -6z m235 7 c7 -12 -12 -24 -25 -16 -11 7 -4 25 10 25 5 0 11 -4
15 -9z m-714 -14 c-1 -12 -15 -9 -19 4 -3 6 1 10 8 8 6 -3 11 -8 11 -12z
m1059 3 c0 -5 -4 -10 -9 -10 -6 0 -13 5 -16 10 -3 6 1 10 9 10 9 0 16 -4 16
-10z m-930 -10 c0 -5 -4 -10 -10 -10 -5 0 -10 5 -10 10 0 6 5 10 10 10 6 0 10
-4 10 -10z m670 -66 c0 -16 -16 -19 -25 -4 -8 13 4 32 16 25 5 -4 9 -13 9 -21z
m-348 -15 c80 -57 57 -187 -39 -217 -103 -33 -196 53 -164 151 29 87 127 119
203 66z m-641 -5 c20 -21 24 -36 24 -84 0 -48 -4 -63 -24 -84 -30 -32 -78 -34
-115 -5 -23 18 -26 27 -26 82 0 52 4 65 27 89 35 37 80 38 114 2z m843 10 c8
-20 -1 -34 -20 -34 -20 0 -30 30 -13 41 20 12 26 11 33 -7z m121 -43 c7 -12
-12 -24 -25 -16 -11 7 -4 25 10 25 5 0 11 -4 15 -9z m-41 -50 c3 -4 -1 -17 -9
-27 -10 -15 -16 -16 -26 -7 -6 6 -9 19 -6 27 7 17 32 22 41 7z m-90 -62 c-8
-14 -34 -11 -34 4 0 8 3 17 7 20 9 9 34 -13 27 -24z m114 -31 c-6 -18 -28 -21
-28 -4 0 9 7 16 16 16 9 0 14 -5 12 -12z m-193 -27 c7 -12 -12 -24 -25 -16
-11 7 -4 25 10 25 5 0 11 -4 15 -9z m132 -27 c3 -8 0 -21 -6 -27 -10 -9 -16
-8 -26 7 -8 10 -12 23 -9 27 9 15 34 10 41 -7z m-1021 -15 c3 -6 2 -15 -2 -19
-12 -12 -38 5 -30 19 9 14 23 14 32 0z m914 -44 c15 -18 5 -35 -21 -35 -12 0
-19 7 -19 18 0 33 20 42 40 17z m-857 -38 c3 -8 1 -20 -4 -28 -11 -19 -34 3
-26 25 8 20 23 21 30 3z m727 -3 c11 -12 11 -18 -2 -31 -19 -18 -38 -10 -38
16 0 33 20 40 40 15z m-196 -15 c19 -18 -35 -24 -226 -24 -139 0 -200 4 -209
12 -9 9 -4 14 22 22 40 12 399 4 413 -10z"/>
<path d="M2195 3020 c-11 -17 5 -51 23 -48 23 4 23 52 0 56 -9 2 -19 -2 -23
-8z"/>
<path d="M3024 3685 c-9 -22 4 -65 21 -72 20 -7 45 14 45 38 0 17 -34 49 -53
49 -4 0 -10 -7 -13 -15z"/>
<path d="M1961 3628 c-11 -28 -6 -38 19 -38 24 0 33 15 25 40 -9 27 -34 25
-44 -2z"/>
<path d="M3397 3630 c-33 -26 -35 -42 -4 -38 19 3 23 -2 27 -35 3 -21 10 -38
15 -37 14 0 13 122 -1 127 -6 2 -23 -6 -37 -17z"/>
<path d="M2515 3616 c-13 -19 -14 -29 -5 -45 20 -38 80 -24 80 18 0 52 -48 69
-75 27z m51 -17 c10 -17 -13 -36 -27 -22 -12 12 -4 33 11 33 5 0 12 -5 16 -11z"/>
<path d="M2261 3621 c-8 -5 -11 -16 -8 -25 8 -21 43 -21 51 0 11 30 -13 44
-43 25z"/>
<path d="M2395 3601 c-14 -44 24 -67 48 -29 8 12 7 21 -2 32 -18 21 -38 20
-46 -3z"/>
<path d="M3129 3604 c-12 -15 -7 -23 41 -65 73 -65 117 -86 137 -67 20 21 8
43 -46 82 -42 30 -103 66 -114 66 -3 0 -11 -7 -18 -16z"/>
<path d="M1308 3569 c-15 -9 -38 -65 -38 -96 0 -6 8 -19 17 -28 16 -16 16 -18
0 -27 -21 -11 -13 -28 14 -28 23 0 25 -15 4 -24 -22 -8 -18 -26 5 -26 21 0 27
-15 10 -25 -19 -12 -10 -25 17 -25 25 0 26 0 8 -20 -22 -24 -14 -36 13 -21 42
22 57 4 25 -31 -14 -16 -14 -18 -1 -18 9 0 21 7 28 15 7 8 18 15 26 15 32 0
45 72 19 106 -8 10 -15 26 -15 35 0 9 -7 20 -16 23 -13 5 -14 9 -4 20 9 12 7
17 -10 26 -17 9 -19 14 -9 26 9 11 9 18 1 26 -7 7 -12 20 -12 30 0 21 -34 58
-52 58 -7 0 -21 -5 -30 -11z"/>
<path d="M3040 3505 c0 -37 8 -42 41 -24 17 8 18 13 8 25 -7 8 -21 20 -31 25
-16 9 -18 6 -18 -26z"/>
<path d="M3526 3508 c-22 -32 -20 -62 8 -95 22 -25 27 -26 62 -18 56 14 67 51
30 99 -33 43 -76 49 -100 14z m73 -40 c11 -29 3 -50 -17 -46 -21 4 -36 32 -29
52 9 23 36 20 46 -6z"/>
<path d="M3337 3418 c-65 -38 -75 -123 -20 -174 64 -60 163 0 163 99 0 36 -12
55 -50 81 -32 21 -47 20 -93 -6z"/>
<path d="M3676 3371 c-26 -29 -18 -82 17 -101 24 -13 30 -13 55 0 36 21 41 64
11 96 -27 29 -60 31 -83 5z m62 -54 c-4 -29 -25 -32 -38 -7 -9 16 -8 25 1 36
16 19 41 -1 37 -29z"/>
<path d="M3554 3305 c-3 -8 8 -44 25 -80 53 -115 91 -152 106 -106 7 23 -46
145 -77 178 -25 26 -46 30 -54 8z"/>
<path d="M1114 3245 c-11 -17 -14 -33 -8 -52 4 -16 6 -34 5 -42 -2 -9 3 -12
13 -8 8 3 18 2 21 -2 3 -5 -2 -12 -11 -15 -21 -8 -6 -29 17 -23 24 6 34 -9 18
-29 -16 -20 -5 -28 19 -15 42 23 49 12 27 -41 -10 -25 17 -23 40 2 25 28 44
10 25 -25 -20 -37 -4 -43 30 -10 26 25 30 26 36 11 4 -10 -1 -25 -11 -36 -16
-17 -16 -20 -2 -20 17 0 32 40 42 111 6 43 5 47 -17 52 -12 4 -45 24 -72 47
-26 22 -52 40 -57 40 -5 0 -9 9 -9 19 0 21 -48 61 -74 61 -8 0 -23 -11 -32
-25z"/>
<path d="M3776 3205 c-29 -27 -27 -50 4 -40 13 4 23 -4 38 -30 14 -23 26 -33
37 -29 8 3 15 10 15 15 0 17 -50 109 -59 109 -4 0 -20 -11 -35 -25z"/>
<path d="M3449 3184 c-14 -17 -5 -40 23 -58 20 -12 48 8 48 33 0 38 -46 54
-71 25z"/>
<path d="M3230 3165 c-10 -13 -5 -27 33 -83 58 -86 107 -181 148 -282 32 -81
52 -101 76 -77 12 12 10 26 -13 91 -62 180 -173 364 -220 366 -6 0 -17 -7 -24
-15z"/>
<path d="M3137 3053 c-15 -14 -5 -41 43 -122 53 -91 73 -110 95 -91 17 14 7
53 -31 118 -45 79 -87 116 -107 95z"/>
<path d="M3521 3041 c-17 -11 -13 -30 28 -141 17 -47 40 -132 51 -190 26 -132
38 -170 55 -170 32 0 35 36 14 162 -29 170 -95 349 -128 348 -3 0 -12 -4 -20
-9z"/>
<path d="M3685 3030 c-3 -5 8 -60 25 -122 42 -151 49 -191 60 -338 11 -147 15
-162 44 -158 19 3 21 10 24 73 10 210 -69 555 -127 555 -11 0 -23 -4 -26 -10z"/>
<path d="M3852 3018 c-16 -16 -16 -80 0 -96 31 -31 98 0 98 45 0 43 -69 80
-98 51z m56 -51 c2 -19 -1 -27 -12 -27 -17 0 -31 34 -21 50 11 18 30 5 33 -23z"/>
<path d="M1052 2958 c6 -18 28 -21 28 -4 0 9 -7 16 -16 16 -9 0 -14 -5 -12
-12z"/>
<path d="M1040 2870 c0 -5 -9 -10 -20 -10 -25 0 -26 -16 -3 -29 15 -8 16 -14
6 -40 -14 -39 1 -50 27 -19 21 25 36 81 25 97 -8 14 -35 14 -35 1z"/>
<path d="M3912 2834 c-28 -19 -30 -48 -3 -39 17 5 20 0 23 -36 4 -62 28 -64
28 -2 0 52 -8 93 -19 93 -4 0 -17 -7 -29 -16z"/>
<path d="M1194 2776 c-10 -25 12 -43 83 -67 54 -18 67 -19 74 -8 23 35 -23 71
-108 85 -34 5 -44 3 -49 -10z"/>
<path d="M3274 2766 c-13 -33 0 -51 36 -51 38 0 52 24 30 50 -16 19 -59 19
-66 1z"/>
<path d="M3174 2695 c-9 -21 3 -45 21 -45 10 0 15 10 15 30 0 32 -26 43 -36
15z"/>
<path d="M994 2667 c-22 -19 -26 -29 -20 -51 9 -37 45 -52 82 -34 37 17 43 52
13 84 -28 30 -41 30 -75 1z m63 -32 c1 -5 -1 -16 -6 -24 -8 -12 -12 -12 -25
-2 -24 20 -20 43 6 39 12 -2 23 -7 25 -13z"/>
<path d="M2584 2629 c-39 -43 -193 -119 -311 -153 -29 -8 -84 -18 -123 -22
-39 -4 -68 -10 -63 -15 4 -4 51 -26 105 -48 102 -43 200 -64 250 -54 60 12 59
83 -3 105 -16 5 -29 14 -29 18 0 15 104 22 148 11 35 -10 42 -16 42 -37 0 -29
-21 -74 -58 -123 -30 -40 -93 -70 -145 -71 -72 0 -108 -44 -47 -56 35 -7 35
-9 15 -57 -30 -73 -5 -92 41 -32 39 52 55 46 52 -17 -4 -65 18 -72 45 -15 19
42 31 46 49 17 25 -40 48 -18 48 45 0 27 11 47 56 97 104 115 131 223 81 319
-20 38 -102 109 -127 109 -4 0 -15 -9 -26 -21z m51 -59 c11 -17 -5 -32 -21
-19 -7 6 -11 15 -8 20 7 12 21 11 29 -1z m65 -80 c0 -11 -4 -20 -10 -20 -5 0
-10 2 -10 4 0 2 -3 11 -6 20 -4 11 -1 16 10 16 9 0 16 -8 16 -20z m-386 -66
c23 -9 20 -24 -4 -24 -11 0 -20 7 -20 15 0 17 2 18 24 9z m106 -34 c0 -5 -5
-12 -11 -16 -14 -8 -33 11 -25 25 7 11 36 4 36 -9z"/>
<path d="M3055 2641 c-6 -11 9 -23 19 -14 9 9 7 23 -3 23 -6 0 -12 -4 -16 -9z"/>
<path d="M3477 2528 c-4 -66 -7 -164 -7 -217 -1 -53 -7 -127 -14 -166 -20
-104 8 -141 47 -63 28 57 39 148 40 350 1 194 -4 218 -43 218 -15 0 -18 -16
-23 -122z"/>
<path d="M2920 2625 c0 -8 7 -15 15 -15 8 0 15 7 15 15 0 8 -7 15 -15 15 -8 0
-15 -7 -15 -15z"/>
<path d="M3326 2624 c-19 -18 -20 -28 -6 -55 19 -34 70 -18 70 22 0 18 -25 49
-40 49 -5 0 -16 -7 -24 -16z"/>
<path d="M3909 2619 c-24 -24 -20 -65 8 -86 23 -18 36 -16 67 8 31 24 33 52 6
79 -26 26 -55 25 -81 -1z m59 -33 c2 -10 -1 -23 -8 -30 -17 -17 -44 22 -28 41
14 17 32 12 36 -11z"/>
<path d="M1180 2600 c0 -15 5 -20 18 -18 9 2 17 10 17 18 0 8 -8 16 -17 18
-13 2 -18 -3 -18 -18z"/>
<path d="M3186 2575 c-3 -13 -3 -63 0 -111 7 -89 19 -109 49 -84 19 16 22 189
3 208 -20 20 -45 14 -52 -13z"/>
<path d="M3052 2548 c-25 -25 -7 -68 28 -68 24 0 44 48 29 66 -14 17 -41 18
-57 2z"/>
<path d="M2916 2534 c-19 -18 -19 -20 -6 -45 6 -10 19 -19 30 -19 16 0 40 26
40 44 0 8 -31 36 -40 36 -5 0 -16 -7 -24 -16z"/>
<path d="M1331 2497 c-18 -47 38 -255 78 -291 20 -18 51 -12 51 10 0 7 -9 37
-21 66 -11 28 -27 86 -36 127 -8 42 -19 84 -24 94 -14 24 -38 21 -48 -6z"/>
<path d="M996 2479 c-59 -47 -3 -125 65 -89 26 15 25 64 -3 90 -27 25 -29 25
-62 -1z m48 -35 c7 -19 -1 -34 -19 -34 -18 0 -28 17 -21 35 7 20 32 19 40 -1z"/>
<path d="M1174 2492 c-23 -15 -35 -51 -24 -71 23 -43 100 -33 100 14 0 42 -46
77 -76 57z m44 -45 c4 -21 -25 -34 -40 -19 -8 8 -8 16 2 27 16 19 34 15 38 -8z"/>
<path d="M3340 2474 c-15 -39 -12 -101 6 -118 19 -20 19 -20 38 0 18 18 22 95
6 125 -15 27 -39 24 -50 -7z"/>
<path d="M3641 2466 c-6 -7 -14 -69 -18 -138 -5 -107 -4 -126 10 -131 8 -3 22
2 32 13 22 24 35 231 15 255 -15 19 -24 19 -39 1z"/>
<path d="M3920 2458 c-42 -29 -51 -51 -19 -46 23 3 24 0 27 -55 3 -49 6 -58
20 -55 14 3 18 17 20 82 2 44 -1 83 -6 88 -5 5 -23 -1 -42 -14z"/>
<path d="M1867 2425 c-19 -19 -31 -103 -22 -157 4 -24 23 -69 42 -101 19 -32
37 -77 40 -100 3 -23 10 -51 16 -61 9 -18 12 -16 29 19 l20 39 24 -40 c29 -49
42 -64 56 -64 11 0 7 69 -7 103 -11 27 13 21 52 -13 18 -16 38 -30 43 -30 16
0 11 33 -10 68 -24 40 -25 42 -2 42 9 0 26 7 37 16 17 13 18 16 5 24 -8 5 -34
10 -58 10 -65 0 -110 23 -127 64 -21 49 -19 66 11 109 l25 37 -53 25 c-60 28
-100 32 -121 10z m73 -60 c0 -8 -7 -15 -15 -15 -8 0 -15 7 -15 15 0 8 7 15 15
15 8 0 15 -7 15 -15z m0 -109 c0 -20 -19 -31 -32 -18 -6 6 -7 15 -4 21 10 16
36 13 36 -3z"/>
<path d="M3052 2417 c-6 -7 -12 -42 -14 -77 -3 -63 -2 -65 22 -65 22 0 26 6
38 63 11 49 11 66 2 77 -15 18 -34 19 -48 2z"/>
<path d="M2900 2376 c-30 -71 -71 -207 -65 -217 11 -17 44 -9 59 14 22 33 66
171 66 205 0 26 -14 42 -36 42 -3 0 -13 -20 -24 -44z"/>
<path d="M3776 2318 c-9 -12 -16 -34 -16 -48 0 -14 -9 -63 -20 -110 -24 -104
-25 -129 -4 -137 28 -10 47 24 71 129 26 116 28 159 11 176 -17 17 -25 15 -42
-10z"/>
<path d="M1110 2306 c0 -31 2 -30 -44 -11 -42 18 -51 9 -38 -39 10 -35 32 -47
32 -17 0 20 1 20 35 4 31 -15 37 -15 49 -2 12 11 12 21 3 48 -15 43 -37 53
-37 17z"/>
<path d="M1237 2303 c-11 -10 -8 -41 4 -49 6 -3 18 1 27 9 13 13 13 19 2 31
-14 17 -23 20 -33 9z"/>
<path d="M3178 2278 c-9 -18 -24 -66 -34 -106 -14 -57 -15 -75 -6 -84 21 -21
45 4 69 73 26 74 27 142 2 147 -10 2 -22 -9 -31 -30z"/>
<path d="M3334 2275 c-19 -47 -19 -111 2 -119 21 -8 20 -8 38 10 19 19 22 114
4 132 -19 19 -28 14 -44 -23z"/>
<path d="M3886 2228 c-22 -32 -20 -64 6 -82 31 -22 54 -20 72 6 21 30 20 54
-4 78 -26 26 -55 25 -74 -2z m58 -27 c9 -14 -4 -41 -19 -41 -15 0 -28 27 -19
41 3 5 11 9 19 9 8 0 16 -4 19 -9z"/>
<path d="M2997 2213 c-14 -13 -6 -43 13 -53 37 -20 55 13 24 44 -17 17 -27 20
-37 9z"/>
<path d="M1280 2196 c-15 -19 -5 -36 21 -36 22 0 25 22 5 39 -10 9 -16 8 -26
-3z"/>
<path d="M1134 2166 l6 -24 -47 14 c-46 14 -72 7 -59 -15 8 -12 99 -41 128
-41 21 0 25 39 8 71 -16 29 -44 25 -36 -5z"/>
<path d="M1470 2135 c-14 -17 -5 -35 57 -102 60 -66 149 -129 247 -177 158
-77 269 -105 283 -70 8 23 -18 44 -68 55 -123 28 -295 127 -412 238 -41 39
-79 71 -84 71 -6 0 -16 -7 -23 -15z"/>
<path d="M3607 2123 c-3 -5 -12 -37 -20 -71 -11 -47 -12 -66 -3 -77 28 -39 65
19 69 107 2 37 -1 43 -20 46 -11 2 -23 -1 -26 -5z"/>
<path d="M1324 2106 c-9 -24 12 -44 28 -28 10 10 8 16 -5 29 -15 15 -17 15
-23 -1z"/>
<path d="M2785 2100 c-8 -27 10 -49 26 -33 13 13 8 45 -8 50 -6 2 -14 -6 -18
-17z"/>
<path d="M2936 2089 c-14 -17 -29 -42 -32 -55 -13 -52 62 -87 99 -46 25 28 22
84 -6 110 -30 28 -30 28 -61 -9z m50 -44 c9 -23 -15 -48 -32 -34 -10 8 -11 16
-3 30 12 23 28 25 35 4z"/>
<path d="M3276 2095 c-50 -46 -22 -125 44 -125 70 0 97 81 42 127 -35 29 -53
29 -86 -2z m64 -30 c15 -18 3 -57 -17 -53 -26 5 -39 34 -24 52 17 20 25 20 41
1z"/>
<path d="M1063 2048 c-30 -14 -30 -40 -1 -36 17 2 23 -4 32 -36 13 -46 36 -60
36 -22 0 28 -29 106 -39 105 -3 0 -16 -5 -28 -11z"/>
<path d="M1211 2041 c-12 -21 -5 -31 20 -31 24 0 33 18 19 35 -17 20 -27 19
-39 -4z"/>
<path d="M3860 2025 c-14 -36 -13 -37 13 -33 16 2 22 10 22 27 0 34 -23 38
-35 6z"/>
<path d="M2695 2024 c-16 -8 -43 -29 -58 -46 -26 -28 -27 -32 -13 -47 15 -14
19 -14 52 4 42 22 76 62 72 84 -4 21 -19 23 -53 5z"/>
<path d="M1374 2015 c-7 -18 3 -35 21 -35 15 0 28 27 19 41 -8 14 -34 11 -40
-6z"/>
<path d="M3082 2008 c-20 -20 -14 -47 13 -54 36 -9 55 2 55 30 0 33 -43 49
-68 24z"/>
<path d="M3416 1958 c-8 -13 -27 -50 -41 -82 -27 -61 -24 -81 11 -74 22 4 86
123 82 152 -4 29 -34 32 -52 4z"/>
<path d="M2795 1946 c-19 -28 -7 -69 25 -86 17 -9 26 -8 46 5 31 20 31 49 -1
80 -30 31 -50 32 -70 1z m55 -27 c15 -26 7 -34 -19 -19 -22 11 -26 22 -14 33
11 12 22 8 33 -14z"/>
<path d="M1264 1935 c-7 -18 3 -35 22 -35 8 0 14 10 14 25 0 27 -27 35 -36 10z"/>
<path d="M1451 1926 c-28 -30 -24 -56 11 -76 21 -11 32 -12 45 -4 25 16 29 75
7 91 -25 18 -37 16 -63 -11z m49 -30 c0 -20 -19 -31 -32 -18 -6 6 -7 15 -4 21
10 16 36 13 36 -3z"/>
<path d="M3197 1929 c-9 -5 -24 -24 -33 -40 -14 -27 -14 -33 -1 -53 19 -28 73
-55 98 -49 26 7 62 68 54 92 -6 21 -63 61 -86 61 -8 0 -22 -5 -32 -11z m58
-49 c33 -36 -4 -69 -39 -34 -19 19 -20 26 -4 42 16 16 22 15 43 -8z"/>
<path d="M2519 1899 c-9 -17 -8 -24 4 -36 12 -12 19 -13 36 -4 26 15 27 37 2
51 -27 14 -29 13 -42 -11z"/>
<path d="M2990 1896 c-18 -22 -5 -48 22 -44 17 2 23 10 23 28 0 29 -26 38 -45
16z"/>
<path d="M3685 1884 c-32 -35 -32 -69 2 -100 38 -35 69 -41 101 -17 41 30 40
67 -1 108 -42 42 -70 44 -102 9z m76 -43 c22 -18 23 -21 8 -36 -18 -19 -46
-11 -54 16 -7 20 1 39 14 39 5 0 19 -9 32 -19z"/>
<path d="M3542 1888 c-22 -28 -69 -115 -75 -140 -4 -15 -3 -30 3 -33 23 -14
52 10 85 69 40 71 46 116 16 116 -10 0 -23 -6 -29 -12z"/>
<path d="M1121 1866 c-39 -42 -2 -97 52 -77 40 15 51 73 18 91 -30 15 -45 12
-70 -14z m55 -17 c10 -17 -23 -46 -38 -31 -8 8 -8 15 2 27 15 18 26 19 36 4z"/>
<path d="M1323 1864 c-9 -23 11 -38 26 -20 13 16 7 36 -10 36 -5 0 -12 -7 -16
-16z"/>
<path d="M2390 1855 c-7 -8 -10 -22 -6 -31 9 -23 70 -15 74 10 7 33 -45 49
-68 21z"/>
<path d="M2677 1852 c-23 -25 -21 -32 6 -32 16 0 28 -9 35 -25 12 -25 26 -32
36 -17 8 13 -34 92 -48 92 -7 0 -20 -8 -29 -18z"/>
<path d="M1550 1832 c-45 -37 3 -108 56 -83 32 14 42 56 19 81 -23 25 -46 25
-75 2z m56 -24 c4 -6 -1 -17 -11 -25 -23 -16 -41 3 -23 24 13 16 25 17 34 1z"/>
<path d="M2260 1825 c-7 -8 -10 -22 -6 -30 7 -20 55 -20 62 0 7 17 -12 45 -31
45 -7 0 -18 -7 -25 -15z"/>
<path d="M2917 1823 c-4 -3 -7 -15 -7 -25 0 -23 38 -25 47 -2 8 21 -24 43 -40
27z"/>
<path d="M2133 1804 c-3 -8 2 -23 11 -32 15 -15 17 -15 33 0 13 14 14 20 3 32
-16 20 -39 20 -47 0z"/>
<path d="M1696 1793 c-4 -9 -2 -21 4 -27 13 -13 46 17 36 33 -11 16 -33 13
-40 -6z"/>
<path d="M2549 1785 c-70 -26 -99 -45 -99 -67 0 -19 4 -20 45 -15 92 13 142
49 115 82 -15 18 -14 18 -61 0z"/>
<path d="M1375 1780 c-4 -7 -3 -16 3 -22 14 -14 45 -2 40 15 -6 16 -34 21 -43
7z"/>
<path d="M3082 1783 c-8 -3 -22 -19 -32 -35 -25 -41 -9 -75 44 -99 39 -17 41
-17 68 2 44 32 47 64 7 105 -31 32 -56 40 -87 27z m53 -53 c20 -22 13 -53 -11
-48 -23 4 -39 31 -31 52 8 21 20 20 42 -4z"/>
<path d="M1804 1755 c-9 -21 3 -45 21 -45 21 0 30 27 15 45 -16 19 -29 19 -36
0z"/>
<path d="M2745 1729 c-44 -21 -109 -48 -145 -60 -91 -30 -130 -49 -130 -64 0
-14 22 -25 52 -25 46 0 282 94 332 132 15 12 17 18 7 36 -15 28 -21 27 -116
-19z"/>
<path d="M1241 1716 c-30 -31 -25 -68 11 -80 56 -20 103 47 62 88 -22 23 -47
20 -73 -8z m52 -22 c11 -11 -5 -34 -24 -34 -21 0 -22 1 -13 24 6 16 25 21 37
10z"/>
<path d="M1638 1719 c-47 -27 -1 -93 48 -70 30 13 33 56 5 71 -24 12 -31 12
-53 -1z"/>
<path d="M3589 1713 c-9 -10 -19 -27 -23 -39 -15 -48 74 -105 130 -84 32 13
33 68 2 105 -30 34 -87 44 -109 18z m76 -43 c17 -19 15 -50 -4 -50 -19 0 -64
47 -57 58 11 18 41 14 61 -8z"/>
<path d="M1453 1704 c-3 -9 -2 -28 3 -43 12 -34 44 -34 63 1 13 22 13 29 2 42
-17 21 -60 21 -68 0z"/>
<path d="M1908 1708 c-8 -21 2 -38 22 -38 19 0 34 25 24 41 -8 13 -41 11 -46
-3z"/>
<path d="M3309 1697 c-60 -46 -35 -137 39 -137 31 0 72 43 72 75 0 53 -71 93
-111 62z m45 -38 c-3 -5 -10 -7 -15 -3 -5 3 -7 10 -3 15 3 5 10 7 15 3 5 -3 7
-10 3 -15z m6 -55 c0 -16 -16 -19 -25 -4 -8 13 4 32 16 25 5 -4 9 -13 9 -21z"/>
<path d="M2017 1693 c-4 -3 -7 -14 -7 -24 0 -22 38 -34 143 -49 82 -10 117 -3
117 25 0 18 -45 31 -149 44 -99 13 -96 13 -104 4z"/>
<path d="M2330 1665 c-20 -24 -8 -50 24 -50 36 0 56 26 37 49 -17 20 -45 21
-61 1z"/>
<path d="M2956 1628 c-21 -29 -20 -41 3 -62 42 -38 94 22 56 64 -23 26 -40 25
-59 -2z"/>
<path d="M1756 1625 c-3 -8 -3 -21 -1 -27 7 -18 63 -53 108 -69 32 -11 39 -11
47 0 14 24 1 39 -65 76 -71 39 -80 41 -89 20z"/>
<path d="M2822 1597 c-27 -29 -27 -41 -1 -78 24 -35 52 -37 73 -7 22 31 20 64
-6 88 -28 26 -40 25 -66 -3z m58 -54 c0 -21 -28 -15 -35 7 -10 30 5 47 22 25
7 -11 13 -25 13 -32z"/>
<path d="M1569 1589 c-29 -29 -22 -71 14 -83 38 -14 61 2 65 45 6 54 -40 77
-79 38z m45 -26 c8 -21 -10 -41 -24 -27 -11 11 -3 44 10 44 4 0 11 -8 14 -17z"/>
<path d="M1360 1580 c-11 -11 -20 -31 -20 -44 0 -53 65 -76 94 -34 45 63 -20
132 -74 78z m53 -26 c11 -11 -5 -34 -24 -34 -22 0 -24 11 -7 28 13 13 22 15
31 6z"/>
<path d="M2362 1578 c-20 -20 -14 -38 14 -38 20 0 25 4 22 22 -4 26 -19 33
-36 16z"/>
<path d="M3152 1546 c-72 -53 -79 -63 -59 -83 13 -13 19 -13 52 2 52 25 116
90 109 109 -10 26 -39 18 -102 -28z"/>
<path d="M1964 1554 c-25 -37 -9 -78 32 -82 24 -2 33 2 42 23 7 14 12 34 12
43 0 46 -60 57 -86 16z m54 -26 c-2 -13 -11 -24 -20 -26 -21 -4 -24 18 -6 36
19 19 30 14 26 -10z"/>
<path d="M3470 1560 c-29 -29 -26 -76 6 -105 33 -31 67 -32 95 -4 27 27 19 64
-22 102 -35 32 -52 34 -79 7z m69 -56 c11 -26 8 -44 -10 -44 -17 0 -49 40 -43
55 9 24 40 18 53 -11z"/>
<path d="M2694 1545 c-19 -29 -11 -60 22 -81 22 -15 26 -15 49 0 31 20 33 58
5 86 -27 27 -56 25 -76 -5z m61 -26 c8 -23 -7 -45 -24 -35 -6 4 -11 18 -11 32
0 30 26 32 35 3z"/>
<path d="M2105 1535 c-16 -12 -17 -16 -7 -23 8 -6 12 -22 10 -42 -4 -42 18
-51 32 -14 13 33 9 86 -5 91 -6 2 -20 -3 -30 -12z"/>
<path d="M2206 1508 c-9 -12 -16 -29 -16 -38 0 -27 30 -60 55 -60 43 0 62 72
27 103 -25 23 -48 21 -66 -5z m50 -54 c-3 -8 -10 -14 -16 -14 -17 0 -23 29 -9
46 11 14 13 14 22 -1 5 -9 6 -23 3 -31z"/>
<path d="M1684 1505 c-9 -22 4 -65 21 -72 21 -7 65 23 65 45 0 10 -5 23 -12
30 -17 17 -67 15 -74 -3z"/>
<path d="M2591 1506 c-9 -11 -34 -13 -114 -9 -107 6 -147 -3 -147 -33 0 -8 12
-19 26 -24 29 -12 145 -3 184 13 38 16 42 15 54 -20 6 -18 16 -33 21 -33 13
-1 18 44 10 87 -6 36 -16 41 -34 19z"/>
<path d="M3312 1464 c-28 -19 -28 -53 -1 -88 16 -21 29 -26 52 -24 38 4 52 25
43 70 -4 24 -14 39 -32 46 -32 15 -35 15 -62 -4z m65 -68 c-4 -9 -11 -16 -16
-16 -15 0 -33 39 -26 58 5 14 8 13 27 -5 12 -13 18 -28 15 -37z"/>
<path d="M2880 1443 c-40 -37 -47 -78 -21 -120 19 -31 25 -33 75 -33 47 0 57
4 75 26 39 50 23 116 -34 140 -48 20 -60 18 -95 -13z m74 -60 c9 -23 -12 -43
-24 -23 -5 8 -10 21 -10 28 0 18 27 15 34 -5z"/>
<path d="M1489 1439 c-26 -26 -22 -70 9 -85 33 -16 60 -6 78 28 14 27 14 32
-1 54 -19 30 -58 31 -86 3z m50 -52 c-11 -19 -30 -19 -36 0 -2 6 4 18 13 28
21 21 38 1 23 -28z"/>
<path d="M1872 1424 c-28 -19 -29 -57 -2 -84 25 -25 42 -25 63 -2 24 26 21 68
-5 86 -12 9 -25 16 -28 16 -3 0 -16 -7 -28 -16z"/>
<path d="M1647 1352 c-34 -35 -34 -55 -1 -76 34 -23 62 -17 82 17 15 25 15 30
2 55 -21 37 -50 39 -83 4z m57 -21 c10 -16 -5 -41 -25 -41 -19 0 -27 29 -12
43 9 10 31 9 37 -2z"/>
<path d="M2005 1350 c-13 -40 32 -57 220 -85 114 -17 272 -20 309 -5 30 11 34
35 9 48 -10 5 -85 12 -166 16 -131 6 -222 17 -333 41 -27 6 -33 4 -39 -15z"/>
<path d="M3187 1352 c-23 -25 -22 -45 1 -38 14 5 22 -3 35 -30 18 -36 45 -42
39 -8 -5 29 -36 87 -48 91 -6 2 -18 -5 -27 -15z"/>
<path d="M2682 1351 c-48 -8 -67 -23 -59 -45 14 -35 118 -30 141 7 9 15 7 21
-8 33 -11 8 -22 13 -25 13 -3 -1 -25 -5 -49 -8z"/>
<path d="M3029 1263 c-11 -28 -5 -69 13 -90 18 -22 66 -15 84 12 28 42 -6 105
-58 105 -22 0 -31 -6 -39 -27z m67 -27 c6 -25 -1 -46 -15 -46 -13 0 -34 47
-27 59 12 19 35 12 42 -13z"/>
<path d="M1790 1265 c0 -8 9 -19 21 -26 20 -10 21 -20 4 -61 -14 -35 21 -18
38 17 23 48 22 52 -13 70 -36 19 -50 19 -50 0z"/>
<path d="M1960 1228 c-27 -29 -27 -89 0 -113 59 -54 121 62 64 120 -21 21 -40
19 -64 -7z m47 -34 c7 -20 -14 -67 -27 -59 -11 7 -14 58 -3 68 11 12 23 8 30
-9z"/>
<path d="M2872 1224 c-44 -31 -18 -134 34 -134 39 0 54 20 54 70 0 39 -4 52
-22 64 -12 9 -27 16 -33 16 -6 0 -21 -7 -33 -16z m58 -65 c0 -26 -20 -34 -38
-16 -13 14 -14 21 -3 44 12 27 13 27 27 8 8 -10 14 -27 14 -36z"/>
<path d="M2130 1190 c-38 -38 -17 -140 30 -140 27 0 60 47 60 86 0 36 -28 74
-55 74 -8 0 -24 -9 -35 -20z m58 -49 c4 -22 -13 -51 -29 -51 -15 0 -22 50 -9
65 17 20 34 14 38 -14z"/>
<path d="M2675 1185 c-28 -28 -32 -63 -10 -105 27 -52 89 -48 114 7 16 34 14
53 -9 91 -24 40 -60 43 -95 7z m63 -27 c16 -16 15 -53 -2 -67 -23 -19 -51 30
-34 62 10 20 20 21 36 5z"/>
<path d="M2312 1164 c-30 -21 -32 -108 -3 -124 47 -24 91 7 91 65 0 36 -28 75
-53 75 -7 0 -23 -7 -35 -16z m44 -39 c8 -19 -3 -65 -16 -65 -13 0 -22 37 -15
60 8 24 23 26 31 5z"/>
<path d="M2488 1163 c-24 -29 -29 -54 -18 -89 19 -57 100 -56 114 2 13 48 -19
104 -59 104 -12 0 -29 -8 -37 -17z m56 -39 c8 -22 7 -36 -3 -53 -13 -20 -41 3
-41 34 0 36 32 50 44 19z"/>
</g>
</svg>
