<?xml version="1.0" standalone="no"?>
<!DOCTYPE svg PUBLIC "-//W3C//DTD SVG 20010904//EN"
 "http://www.w3.org/TR/2001/REC-SVG-20010904/DTD/svg10.dtd">
<svg version="1.0" xmlns="http://www.w3.org/2000/svg"
 width="500.000000pt" height="500.000000pt" viewBox="0 0 500.000000 500.000000"
 preserveAspectRatio="xMidYMid meet">

<g transform="translate(0.000000,500.000000) scale(0.100000,-0.100000)"
fill="#000000" stroke="none">
<path d="M2350 4150 c-182 -18 -359 -66 -514 -141 -109 -52 -236 -127 -236
-140 0 -6 -4 -8 -9 -4 -10 6 -24 -11 -27 -32 -1 -7 3 -16 8 -20 6 -3 8 -1 4 5
-3 6 -2 13 4 17 6 4 7 11 4 17 -5 7 -2 8 5 4 7 -5 21 0 31 9 10 9 24 14 29 10
18 -11 12 -24 -9 -20 -11 2 -22 0 -25 -4 -2 -5 9 -7 25 -6 22 2 28 -1 22 -9
-5 -6 -8 -19 -7 -28 2 -10 0 -20 -5 -23 -4 -2 -7 5 -6 17 1 13 -6 22 -16 23
-20 4 -60 -23 -53 -35 3 -5 0 -12 -6 -16 -8 -4 -9 -3 -5 4 10 17 -9 15 -24 -3
-7 -8 -16 -12 -21 -9 -5 3 -15 2 -21 -3 -7 -4 -19 -8 -26 -9 -10 -2 -10 1 -1
12 6 7 16 11 22 7 6 -3 7 -1 3 5 -5 8 -1 10 11 6 13 -4 15 -3 5 4 -11 8 -11
10 1 15 8 3 20 0 27 -6 10 -9 11 -9 6 0 -5 9 -1 11 11 7 17 -5 17 -5 0 6 -10
6 -14 16 -10 23 8 14 -8 2 -107 -79 -41 -34 -93 -81 -115 -104 -33 -34 -37
-42 -25 -50 33 -21 101 -1 190 55 67 43 58 21 -12 -26 -195 -131 -274 -247
-297 -437 -25 -204 49 -378 219 -512 87 -68 120 -110 120 -147 -1 -14 -8 -10
-30 17 -30 34 -40 57 -20 45 6 -3 10 -4 10 -2 0 2 -36 32 -80 66 -131 102
-203 211 -230 349 -12 60 -9 195 5 252 14 53 -15 -6 -42 -85 -37 -109 -39
-290 -5 -408 25 -89 90 -223 121 -251 21 -19 21 -19 21 2 0 34 41 75 70 70 23
-4 24 -5 5 -12 -40 -15 -49 -23 -57 -52 -17 -64 22 -98 76 -65 45 28 49 27 43
-17 -6 -32 -3 -39 16 -47 15 -7 23 -20 25 -42 2 -21 10 -34 22 -38 44 -14 265
41 351 86 144 77 260 242 290 413 14 85 8 164 -26 304 -33 138 -26 170 50 220
28 18 49 37 47 43 -1 6 2 8 7 5 5 -3 12 26 16 67 10 113 31 173 77 223 53 58
107 82 323 148 189 57 192 59 68 70 -34 3 -142 27 -240 52 -156 41 -190 47
-278 46 -112 0 -192 -20 -272 -68 l-48 -29 60 -6 c76 -7 111 -24 94 -45 -7 -9
-20 -12 -32 -8 -13 4 -17 2 -13 -5 4 -7 0 -10 -11 -9 -10 0 -31 0 -48 -1 -25
-2 -27 -4 -10 -10 18 -7 18 -8 -5 -12 -14 -3 -38 -2 -55 2 l-30 7 30 1 c17 1
39 8 49 16 19 14 19 15 -7 15 -38 0 -34 18 6 23 28 3 27 4 -10 5 -35 2 -51 -5
-104 -45 -34 -26 -88 -70 -118 -98 -31 -28 -87 -77 -126 -110 -124 -105 -166
-149 -194 -205 -38 -74 -43 -99 -42 -211 0 -73 6 -113 24 -170 14 -41 27 -83
31 -94 3 -11 -7 7 -23 40 -39 80 -55 168 -49 274 9 146 54 219 221 358 43 36
75 68 73 71 -7 7 14 32 26 32 6 0 4 -8 -3 -17 -13 -16 -12 -17 3 -4 10 7 15
17 12 22 -2 5 7 18 20 30 21 19 24 25 13 38 -11 14 -10 14 6 2 15 -12 21 -11
42 9 16 15 22 27 16 33 -12 12 -2 39 10 31 5 -3 6 -11 2 -17 -3 -7 3 -3 15 7
22 19 30 32 13 22 -5 -3 -14 1 -21 9 -12 15 -4 21 23 16 5 -1 6 3 3 8 -3 5 0
11 8 14 19 7 28 -17 13 -34 -10 -11 -9 -11 5 -1 13 10 17 10 21 0 4 -10 6 -10
6 0 1 7 -6 20 -14 29 -14 14 -14 17 2 30 10 8 -4 3 -31 -11 -78 -42 -65 -22
16 23 40 23 111 53 158 67 47 14 126 38 175 54 185 58 223 62 477 57 223 -4
238 -5 343 -35 61 -17 137 -40 169 -51 33 -12 61 -19 63 -17 9 9 -214 78 -323
100 -82 16 -293 37 -354 34 -19 0 -69 -4 -110 -8z m-655 -278 c15 -21 15 -24
2 -13 -9 7 -17 10 -17 6 0 -4 -7 -2 -15 5 -14 12 -12 30 3 30 4 0 16 -13 27
-28z m542 -32 c17 -10 37 -29 43 -41 18 -33 15 -89 -6 -110 -31 -30 -138 -52
-261 -53 -62 -1 -113 -4 -113 -8 0 -3 -6 -8 -12 -11 -7 -2 1 -2 17 0 22 3 26
2 16 -6 -12 -7 -10 -10 10 -14 13 -2 4 -3 -21 -1 -25 1 -39 0 -31 -3 10 -4 10
-7 1 -13 -6 -4 12 -6 42 -4 49 2 50 2 13 -5 -30 -6 -34 -9 -15 -11 l25 -2 -25
-8 c-23 -7 -23 -8 10 -10 l35 -3 -35 -7 -35 -7 30 -3 30 -2 -30 -8 c-21 -5
-24 -8 -10 -9 18 -2 18 -3 -3 -12 -29 -11 -20 -29 16 -30 l27 -1 -30 -8 c-22
-6 -25 -8 -10 -10 17 -2 17 -3 -5 -10 -23 -7 -23 -8 10 -10 l35 -3 -35 -7
c-29 -6 -31 -8 -10 -10 l25 -2 -25 -8 c-21 -7 -22 -8 -5 -10 l20 -1 -20 -9
c-17 -7 -16 -9 10 -10 27 -1 26 -4 -13 -16 -19 -6 14 -64 36 -63 14 0 14 2 -3
9 -11 5 -15 9 -10 9 6 1 3 6 -5 11 -13 9 -13 10 0 11 10 0 8 3 -5 9 -19 8 -19
9 3 9 15 1 22 -5 22 -18 0 -22 20 -31 63 -30 l32 1 -30 7 -30 7 39 8 c21 4 40
5 42 3 7 -6 -74 -173 -90 -186 -11 -10 -20 -10 -36 -1 -40 21 -52 74 -57 240
-6 177 -11 191 -79 220 -31 14 -44 25 -44 39 0 38 34 45 141 31 166 -22 341 4
375 55 15 24 13 58 -3 53 -4 -2 -8 2 -8 7 0 6 4 9 8 7 5 -1 7 3 5 10 -7 19
-162 22 -223 3 -27 -8 -36 -13 -20 -10 73 12 173 17 178 9 3 -5 -13 -8 -36 -5
-39 3 -212 -27 -203 -36 2 -3 30 1 61 7 31 6 59 10 61 7 3 -3 -41 -13 -97 -24
-79 -14 -96 -19 -73 -24 25 -6 23 -7 -13 -8 -82 -2 -46 37 78 88 53 21 105 44
115 50 31 17 106 13 141 -9z m-562 -19 c3 -5 2 -12 -3 -15 -5 -3 -9 1 -9 9 0
17 3 19 12 6z m156 -46 c0 -5 -5 -11 -12 -14 -6 -2 -9 1 -5 7 3 6 -4 13 -16
15 -18 4 -16 5 5 4 15 -1 28 -6 28 -12z m312 -2 c-7 -2 -21 -2 -30 0 -10 3 -4
5 12 5 17 0 24 -2 18 -5z m-346 -44 c-22 -17 -30 -18 -49 -8 -22 12 -22 12 -3
20 11 4 33 8 49 8 l29 1 -26 -21z m-44 -36 c-7 -2 -19 -2 -25 0 -7 3 -2 5 12
5 14 0 19 -2 13 -5z m190 -5 c-16 -8 -32 -8 -55 0 -32 9 -31 10 22 10 46 1 52
-1 33 -10z m-223 -18 c-8 -5 -22 -10 -30 -10 -13 0 -13 1 0 10 8 5 22 10 30
10 13 0 13 -1 0 -10z m-30 -29 c0 -5 -9 -7 -20 -4 -11 3 -20 7 -20 9 0 2 9 4
20 4 11 0 20 -4 20 -9z m8 -44 c24 -20 81 -144 107 -233 29 -100 32 -186 9
-245 -14 -34 -15 -46 -4 -78 7 -21 10 -46 8 -57 -2 -11 6 -26 19 -37 29 -23
29 -44 2 -52 -33 -11 -69 3 -69 25 0 11 4 20 8 20 5 0 9 7 9 15 0 8 -3 12 -7
10 -3 -2 -19 3 -34 11 -16 7 -49 14 -73 14 -39 0 -51 -5 -84 -38 -65 -65 -60
-121 12 -137 34 -8 37 -18 11 -37 -11 -7 -28 -34 -40 -60 -11 -27 -24 -48 -28
-48 -3 0 -4 6 -1 14 3 7 0 19 -6 25 -8 8 -8 11 1 11 7 0 12 -6 12 -12 0 -7 5
-5 11 6 9 14 8 20 -2 26 -10 7 -10 12 -1 23 7 7 9 17 5 20 -3 4 4 7 17 7 31 0
20 10 -14 13 -15 1 -25 5 -24 9 2 3 -9 15 -23 26 -63 50 -118 209 -119 342 0
57 3 67 27 87 41 35 51 27 14 -11 l-34 -35 13 -97 c13 -109 29 -162 66 -216
27 -42 44 -49 44 -18 0 11 18 40 41 65 48 52 90 64 152 44 53 -17 63 -17 59
-1 -1 6 4 12 10 12 28 1 -69 43 -117 51 l-50 8 57 -3 c66 -3 68 4 5 15 l-42 8
48 -3 c26 -2 47 -2 47 -1 0 2 3 10 6 18 3 8 -2 17 -10 20 -9 4 -15 1 -13 -5 1
-6 -3 -12 -10 -15 -8 -3 -11 3 -8 16 3 18 1 20 -15 11 -10 -5 -31 -10 -47 -9
-27 1 -27 1 5 9 51 12 48 18 -5 12 -26 -2 -48 -5 -49 -6 -1 0 -4 -18 -7 -40
-5 -34 -4 -38 13 -33 11 3 18 1 14 -4 -3 -5 -13 -9 -23 -9 -9 0 -22 -5 -29
-12 -7 -7 -12 -8 -12 -2 0 6 5 15 10 20 6 6 14 43 19 83 10 99 34 114 94 61
19 -16 44 -30 56 -30 22 0 25 -4 35 -52 4 -16 10 -28 15 -28 21 0 45 103 35
154 -5 30 -9 34 -20 25 -11 -9 -18 -8 -29 1 -8 6 -20 10 -27 7 -8 -3 -5 -6 6
-6 20 -1 20 -1 0 -17 -18 -14 -18 -15 5 -4 l23 12 -18 -31 c-10 -17 -26 -31
-35 -31 -19 0 -59 45 -59 66 0 17 -5 17 -30 2 -10 -7 -23 -9 -27 -5 -11 11 12
42 30 41 23 -2 42 49 28 74 -14 27 -14 35 2 26 7 -5 6 -1 -3 10 -19 24 -22 69
-3 62 20 -8 16 2 -6 13 -15 9 -18 7 -17 -12 1 -18 -5 -22 -29 -24 -29 -2 -29
-2 -5 7 23 7 23 8 4 9 -24 1 -51 -24 -35 -33 5 -3 16 -3 24 0 36 14 64 -30 50
-78 -8 -33 -23 -19 -23 22 0 29 -4 40 -15 40 -8 0 -15 -9 -15 -20 0 -12 -8
-35 -17 -53 -9 -18 -16 -44 -14 -59 1 -14 -2 -29 -8 -33 -6 -3 -11 -1 -11 4 0
6 -7 11 -15 11 -8 0 -15 6 -15 14 0 8 -7 12 -17 10 -22 -5 -54 15 -36 22 7 3
10 11 7 19 -3 7 4 19 16 25 12 6 19 14 16 17 -3 3 -13 0 -21 -7 -13 -11 -19
-11 -33 3 -11 12 -12 17 -4 17 7 0 10 5 6 11 -4 8 -9 7 -15 -2 -11 -18 -30
-18 -51 1 -19 16 -25 60 -8 60 6 0 8 -11 6 -25 -3 -14 -2 -25 2 -25 21 1 35
23 39 64 4 34 12 52 31 66 40 32 53 26 46 -19 -4 -24 0 -58 9 -88 21 -65 26
-101 15 -107 -5 -2 -3 -3 4 -2 24 5 32 62 14 106 -20 50 -20 84 -1 100 21 18
117 4 150 -22 33 -26 61 -82 70 -138 5 -31 14 -51 31 -63 l25 -19 -7 29 c-12
51 -64 187 -82 218 -17 28 -22 30 -81 30 -34 0 -65 5 -69 11 -4 6 -15 13 -24
17 -10 3 -18 12 -18 18 0 15 148 3 168 -14z m260 -124 c-10 -2 -28 -2 -40 0
-13 2 -5 4 17 4 22 1 32 -1 23 -4z m162 -83 c-8 -5 -22 -9 -30 -9 -10 0 -8 3
5 9 27 12 43 12 25 0z m40 -10 c0 -15 -92 -52 -140 -55 -32 -2 -39 -1 -25 5
11 5 34 9 50 9 33 1 73 20 45 21 -8 1 -4 6 9 11 14 5 31 7 38 5 7 -3 13 -1 13
4 0 6 2 10 5 10 3 0 5 -4 5 -10z m-112 -27 c-16 -2 -40 -2 -55 0 -16 2 -3 4
27 4 30 0 43 -2 28 -4z m-618 -38 c-7 -8 -16 -15 -21 -15 -5 0 -1 8 9 18 20
22 31 19 12 -3z m65 -219 c11 -3 30 -24 42 -46 23 -43 16 -54 -11 -17 -9 12
-15 17 -12 11 3 -6 -2 -11 -10 -11 -9 0 -13 6 -10 14 3 8 1 11 -4 8 -6 -3 -13
1 -16 9 -3 9 -11 13 -18 9 -6 -3 -8 -3 -4 2 4 4 2 15 -5 23 -12 16 -14 16 48
-2z m260 -69 c11 -7 21 -18 23 -24 3 -16 6 -17 -53 7 -43 18 -45 20 -15 15 26
-5 31 -4 20 4 -21 15 1 13 25 -2z m-48 -139 c-5 -18 -2 -20 24 -14 41 8 37
-12 -7 -30 -43 -18 -66 -6 -44 23 12 15 12 16 0 6 -26 -24 -32 -13 -10 17 23
32 45 31 37 -2z m-186 -400 c35 -20 50 -38 32 -38 -14 0 -93 45 -93 52 0 14
21 9 61 -14z m114 -69 c11 -11 -64 -13 -92 -2 -16 6 -15 8 7 14 28 8 70 2 85
-12z"/>
<path d="M2085 3824 c-16 -8 -22 -12 -12 -9 10 3 42 5 69 5 58 0 60 4 8 13
-22 4 -46 0 -65 -9z"/>
<path d="M1928 3743 c7 -3 16 -2 19 1 4 3 -2 6 -13 5 -11 0 -14 -3 -6 -6z"/>
<path d="M1828 3633 c7 -3 16 -2 19 1 4 3 -2 6 -13 5 -11 0 -14 -3 -6 -6z"/>
<path d="M1830 3590 c8 -5 20 -10 25 -10 6 0 3 5 -5 10 -8 5 -19 10 -25 10 -5
0 -3 -5 5 -10z"/>
<path d="M1942 3273 c-30 -6 -18 -23 16 -23 20 0 23 3 13 9 -11 7 -6 11 20 14
30 3 31 4 4 4 -16 0 -40 -2 -53 -4z"/>
<path d="M1905 3240 c-7 -11 22 -26 32 -16 4 3 -1 6 -11 6 -9 0 -14 5 -11 10
3 6 4 10 1 10 -3 0 -8 -5 -11 -10z"/>
<path d="M1940 3210 c-23 -7 -23 -8 10 -10 l35 -2 -30 -8 -30 -8 27 -1 c18 -1
31 6 38 19 9 17 8 20 -7 19 -10 -1 -29 -5 -43 -9z"/>
<path d="M1430 3511 c0 -6 4 -13 10 -16 6 -3 7 1 4 9 -7 18 -14 21 -14 7z"/>
<path d="M1550 3479 c0 -5 5 -7 10 -4 6 3 10 8 10 11 0 2 -4 4 -10 4 -5 0 -10
-5 -10 -11z"/>
<path d="M1430 3456 c0 -2 7 -7 16 -10 8 -3 12 -2 9 4 -6 10 -25 14 -25 6z"/>
<path d="M1390 3406 c0 -2 7 -7 16 -10 8 -3 12 -2 9 4 -6 10 -25 14 -25 6z"/>
<path d="M1703 3385 c0 -8 4 -12 9 -9 5 3 6 10 3 15 -9 13 -12 11 -12 -6z"/>
<path d="M1711 3353 c4 -25 -2 -35 -18 -28 -14 5 -15 3 -7 -5 16 -16 55 5 48
25 -6 15 -25 21 -23 8z"/>
<path d="M1670 3261 c0 -6 4 -13 10 -16 6 -3 7 1 4 9 -7 18 -14 21 -14 7z"/>
<path d="M1628 3203 c7 -3 16 -2 19 1 4 3 -2 6 -13 5 -11 0 -14 -3 -6 -6z"/>
<path d="M1635 3180 c-19 -8 -18 -9 5 -11 18 -1 14 -4 -15 -9 -37 -7 -38 -7
-8 -9 42 -1 63 8 56 25 -6 16 -10 16 -38 4z"/>
<path d="M2292 4105 c-40 -7 -104 -23 -144 -35 -69 -21 -203 -79 -196 -85 2
-2 37 8 78 22 91 31 230 36 411 14 115 -14 369 -10 544 7 l70 7 -130 32 c-71
18 -161 37 -200 43 -97 13 -345 11 -433 -5z"/>
<path d="M2207 4010 c45 -5 135 -23 200 -40 206 -56 226 -60 343 -66 107 -6
126 -4 245 24 72 17 148 34 170 37 l40 7 -55 20 c-48 17 -72 19 -180 14 -364
-17 -418 -18 -485 -7 -39 6 -135 13 -215 16 -123 3 -132 3 -63 -5z"/>
<path d="M1819 3943 c-13 -17 -13 -17 6 -3 11 8 22 16 24 17 2 2 0 3 -6 3 -6
0 -17 -8 -24 -17z"/>
<path d="M3125 3944 c-11 -3 -100 -25 -198 -50 -246 -61 -502 -140 -560 -172
-63 -34 -97 -75 -97 -116 0 -18 -5 -48 -12 -66 -10 -29 -12 -31 -18 -14 -5 13
-10 0 -14 -41 -12 -109 -21 -127 -71 -154 -47 -25 -75 -63 -75 -101 0 -12 12
-72 26 -133 59 -257 13 -437 -156 -608 -77 -79 -141 -119 -239 -149 -52 -16
-53 -17 -25 -24 16 -4 43 -18 59 -30 17 -13 53 -35 81 -49 48 -24 72 -51 56
-61 -4 -2 -25 0 -47 4 -39 8 -40 8 -7 9 20 1 31 5 27 11 -4 6 -23 8 -43 5 -28
-4 -32 -3 -17 4 18 8 16 10 -10 10 -24 1 -27 3 -15 12 11 7 4 8 -25 4 -29 -4
-35 -3 -20 4 19 9 18 10 -5 11 -23 1 -23 2 -5 10 16 7 12 9 -20 10 -39 2 -39
3 -10 10 30 7 30 7 5 13 -38 9 -99 14 -95 7 2 -4 -10 -14 -28 -24 l-32 -18 25
21 c14 11 20 21 14 21 -14 0 -56 -45 -49 -52 3 -3 -5 -23 -20 -43 -26 -39 -33
-61 -15 -50 6 4 8 -5 5 -22 -3 -15 -1 -41 5 -58 9 -28 9 -27 4 11 -4 30 -1 46
14 64 13 16 21 20 26 11 4 -7 2 -10 -5 -9 -6 2 -14 -3 -17 -11 -2 -8 0 -11 6
-7 6 4 8 -2 5 -16 -4 -19 -3 -20 6 -8 8 12 11 12 11 1 0 -9 5 -8 18 6 9 10 14
14 9 9 -10 -14 -9 -28 3 -21 6 4 7 -1 3 -11 -4 -12 -3 -15 5 -10 8 5 10 1 5
-10 -4 -12 -3 -15 5 -10 8 5 10 2 6 -9 -11 -27 19 -12 43 21 33 47 114 84 183
84 43 0 72 -8 127 -34 76 -37 98 -62 90 -105 -9 -46 -73 -191 -92 -209 -12
-11 -15 -11 -8 -2 20 27 63 152 56 163 -3 5 -1 7 4 4 6 -4 13 7 17 24 9 44 8
61 -3 54 -5 -3 -12 3 -16 14 -11 36 -121 59 -197 41 -62 -15 -137 -84 -154
-141 -11 -36 -11 -37 20 -43 50 -10 102 -51 124 -98 12 -24 27 -86 35 -139 24
-158 88 -248 225 -312 59 -28 79 -32 172 -35 88 -3 115 0 169 18 116 39 232
135 295 243 16 26 30 46 33 43 15 -14 -93 -154 -161 -208 -189 -150 -432 -153
-615 -8 l-55 44 24 -35 c157 -219 446 -321 673 -235 81 30 113 51 263 168 66
51 161 120 212 152 50 31 93 65 96 74 27 92 34 274 15 378 -6 32 -26 113 -45
179 -41 141 -50 215 -35 271 13 50 46 94 70 94 24 0 62 -42 52 -58 -5 -8 -14
-3 -30 19 -22 29 -24 30 -41 14 -11 -10 -25 -33 -31 -53 -15 -45 -6 -182 16
-242 67 -185 86 -406 49 -579 l-7 -34 90 61 c158 109 268 243 319 389 18 51
18 52 -2 75 -25 29 -94 132 -94 141 0 20 42 2 88 -39 46 -40 52 -50 52 -85 0
-33 3 -39 21 -39 19 0 20 5 18 58 -3 52 -1 57 18 60 41 6 89 74 106 147 9 37
18 69 21 73 17 16 76 -104 76 -152 0 -49 -46 -23 -70 39 l-12 30 -13 -40 c-9
-24 -11 -43 -5 -50 10 -12 -27 -125 -41 -125 -5 0 -6 8 -3 18 4 12 1 10 -8 -4
-13 -20 -38 -22 -38 -3 0 6 5 7 10 4 6 -3 10 -1 10 4 0 6 -7 11 -15 11 -8 0
-15 -8 -15 -17 0 -10 -3 -27 -6 -38 -4 -17 4 -23 55 -39 49 -15 67 -16 92 -7
43 15 54 14 39 -4 -19 -23 -72 -28 -115 -11 -60 26 -71 22 -84 -30 -18 -71
-93 -213 -160 -302 -92 -121 -196 -211 -403 -350 -104 -69 -187 -126 -185
-128 1 -2 34 8 72 22 39 14 154 45 256 69 102 24 215 53 250 65 150 51 262
136 350 267 53 77 75 98 39 36 -12 -21 -14 -29 -5 -18 49 60 175 336 175 384
0 10 -7 21 -15 25 -12 4 -15 -3 -15 -34 0 -42 5 -37 -120 -128 -64 -47 -217
-213 -217 -236 0 -7 6 -13 14 -13 9 0 10 4 2 13 -7 9 -4 12 13 11 13 0 30 2
38 4 9 2 14 -2 12 -10 -2 -9 3 -11 13 -7 9 3 19 6 21 6 3 0 2 5 -2 12 -4 7 -3
8 4 4 7 -4 12 -9 12 -12 0 -12 -109 -54 -124 -48 -19 7 -22 54 -4 72 7 7 10
35 9 68 -3 80 11 106 86 156 109 72 137 88 163 87 23 0 23 -1 5 -8 -16 -7 -17
-9 -5 -13 8 -3 4 -3 -10 -1 -14 1 -32 -1 -40 -7 -8 -5 -11 -10 -7 -10 11 0
-12 -40 -23 -40 -6 0 -10 5 -10 11 0 5 5 7 12 3 6 -4 8 -3 4 4 -3 5 0 13 6 15
7 3 9 6 3 6 -5 0 -27 -15 -48 -33 -26 -24 -34 -36 -26 -42 8 -5 9 -3 4 6 -6 9
-4 11 5 5 21 -13 -18 -37 -40 -25 -13 7 -23 3 -40 -15 -20 -21 -20 -23 -4 -20
11 1 18 8 16 15 -1 6 2 8 9 4 8 -5 9 -3 4 6 -6 9 -4 11 4 6 9 -6 8 -12 -4 -26
-10 -11 -14 -24 -9 -32 6 -10 5 -11 -7 -1 -13 10 -14 7 -11 -21 l4 -32 61 64
c34 35 94 86 133 113 41 27 74 57 77 70 11 40 -4 77 -44 109 -21 17 -39 38
-39 46 0 23 23 11 38 -20 8 -15 16 -25 19 -22 3 2 -14 53 -36 112 -31 79 -44
130 -50 193 -9 102 3 341 20 373 l11 23 -23 -23 c-21 -19 -24 -33 -24 -89 0
-44 -4 -68 -12 -70 -8 -3 -13 4 -13 17 0 11 -11 32 -24 45 -17 17 -20 27 -13
34 8 8 7 11 -3 11 -7 0 -29 -19 -49 -42 -20 -22 -87 -92 -148 -154 -97 -97
-113 -118 -113 -146 l0 -32 32 30 c17 16 28 24 24 17 -3 -6 -2 -14 4 -18 5 -3
10 -11 10 -18 0 -6 -7 -2 -16 9 -15 18 -15 18 -2 -5 8 -14 24 -31 36 -39 20
-13 22 -13 16 1 -3 9 -11 15 -17 14 -7 -1 -11 7 -9 18 4 25 30 66 40 63 17 -4
52 14 46 24 -5 7 0 9 14 6 14 -4 20 -2 15 5 -4 7 0 8 13 3 15 -6 17 -5 7 5
-17 17 -16 26 2 26 8 0 12 -4 9 -8 -2 -4 1 -11 7 -15 7 -4 9 -3 6 3 -4 6 2 18
13 28 11 10 17 22 14 26 -3 5 -1 9 4 9 5 0 14 10 20 23 10 20 11 19 11 -14 1
-50 -28 -84 -97 -109 -31 -12 -60 -26 -63 -32 -4 -6 1 -29 11 -51 18 -39 17
-59 -3 -84 -21 -28 -81 2 -70 35 4 15 3 15 -6 2 -19 -27 -13 -67 14 -84 27
-18 34 -46 10 -46 -20 0 -42 37 -51 85 -9 51 -21 75 -38 75 -17 0 -52 58 -51
85 0 11 5 19 12 18 7 -2 10 7 7 24 -4 22 -3 24 10 14 10 -8 16 -9 21 -1 3 6
10 8 15 5 4 -3 20 9 34 26 14 17 26 25 26 19 0 -6 5 -8 11 -5 6 4 8 10 5 13
-4 3 6 19 21 35 16 17 21 27 13 23 -8 -4 -2 2 13 14 21 17 25 25 17 35 -8 9
-8 15 0 20 6 3 8 10 5 14 -2 5 9 7 25 6 32 -3 46 8 35 25 -5 8 -12 7 -23 -2
-14 -11 -14 -9 1 8 9 11 14 25 10 29 -5 5 1 3 11 -5 18 -14 19 -13 13 2 -7 20
18 43 46 43 11 0 22 6 25 14 3 9 0 11 -8 6 -7 -4 -5 3 4 17 9 14 13 27 10 31
-3 3 -3 11 1 18 6 8 13 5 26 -12 l17 -23 10 34 c6 19 11 27 11 18 1 -9 4 -25
7 -35 5 -15 4 -15 -5 -3 -13 18 -15 1 -2 -19 7 -11 10 -10 15 6 4 11 3 28 0
38 -5 13 -4 16 4 11 8 -5 12 2 12 21 1 25 2 26 11 10 6 -10 9 -34 7 -53 -5
-40 8 -32 16 10 3 16 8 31 12 35 11 10 -8 -82 -22 -112 -31 -60 -45 -315 -23
-433 6 -32 27 -100 47 -151 31 -77 40 -92 62 -96 14 -2 33 -8 43 -12 27 -11
20 6 -24 65 -58 76 -87 143 -100 230 -12 83 0 214 22 234 9 8 10 5 4 -14 -14
-45 -17 -197 -6 -250 14 -64 54 -146 94 -196 l31 -38 8 35 c8 38 -6 369 -23
519 -23 210 -64 361 -140 512 -39 78 -86 156 -76 128 20 -59 20 -57 6 -35 -7
11 -14 29 -15 40 -1 11 -3 23 -3 26 -1 3 -9 14 -20 25 -10 11 -22 31 -26 45
-7 22 -7 23 11 9 17 -14 18 -14 6 2 -7 9 -22 15 -32 13 -10 -2 -21 2 -23 10
-3 7 -18 12 -36 10 -17 -1 -28 1 -26 5 8 13 -6 40 -21 40 -8 0 -14 -4 -14 -8
0 -5 -7 -9 -15 -9 -8 0 -15 4 -15 8 0 4 -9 7 -19 6 -10 0 -17 -7 -14 -13 5
-13 -21 -13 -33 -1 -4 4 -13 2 -20 -4 -8 -7 -14 -6 -20 2 -4 8 -3 9 4 5 7 -4
12 -2 12 4 0 7 -6 10 -14 7 -17 -7 -36 11 -30 28 6 15 -20 27 -42 18 -13 -5
-13 -7 -2 -14 10 -7 10 -9 -2 -9 -13 0 -13 -1 0 -10 20 -13 -67 -1 -95 13 -17
9 -18 8 -7 -5 7 -9 29 -18 50 -21 20 -3 46 -8 56 -13 14 -5 17 -4 12 4 -5 8
-2 10 9 5 13 -5 14 -7 3 -14 -7 -5 -8 -9 -3 -9 6 0 17 6 25 13 8 6 11 8 7 3
-4 -5 5 -22 19 -37 22 -23 23 -27 8 -24 -11 2 -21 4 -24 5 -3 1 -8 2 -13 1 -4
0 -6 4 -5 10 2 6 -3 14 -11 17 -8 3 -11 0 -7 -7 5 -7 1 -9 -9 -4 -12 4 -13 8
-5 13 14 8 -40 30 -74 30 -12 0 -33 8 -46 17 l-25 17 19 -22 c20 -23 9 -31
-13 -9 -11 10 -11 8 -2 -10 9 -19 8 -24 -9 -33 -11 -6 -18 -15 -15 -20 3 -5
-5 -12 -19 -16 -31 -7 -52 -29 -36 -39 5 -3 10 -1 10 6 0 7 3 9 6 6 4 -4 1
-14 -6 -22 -11 -13 -2 -11 41 5 44 18 66 21 119 16 84 -8 105 -11 107 -17 1
-2 32 -36 70 -74 37 -39 98 -107 134 -151 68 -83 147 -143 228 -175 25 -10 37
-18 26 -18 -30 -1 -124 46 -173 86 -24 19 -66 63 -94 96 -30 37 -47 51 -42 37
5 -14 9 -68 9 -120 0 -78 -4 -103 -22 -140 -38 -76 -112 -159 -238 -265 -154
-129 -165 -146 -165 -243 0 -58 5 -82 21 -108 23 -38 36 -47 18 -12 -10 18 -9
20 4 15 12 -4 14 -2 10 10 -4 11 -2 14 5 9 12 -7 31 21 37 56 6 29 21 43 30
27 6 -8 4 -10 -5 -4 -9 5 -11 4 -6 -4 4 -6 12 -9 17 -5 5 3 7 10 4 15 -4 5 1
12 9 15 9 3 13 11 9 18 -3 6 -2 8 2 3 5 -4 19 0 31 8 17 11 25 12 30 3 5 -7 3
-8 -6 -3 -9 6 -11 4 -5 -5 6 -9 4 -11 -5 -5 -8 5 -11 4 -6 -3 3 -6 1 -14 -5
-18 -8 -4 -7 -9 2 -15 10 -6 8 -9 -9 -9 -13 0 -37 -13 -53 -29 -26 -27 -29
-36 -29 -95 0 -82 -13 -91 -56 -42 -83 95 -85 246 -6 329 15 16 73 67 129 113
117 96 185 174 221 254 37 78 37 192 0 270 l-25 55 -7 -40 c-20 -113 -74 -203
-179 -301 -156 -144 -380 -233 -593 -234 -56 0 -73 -4 -78 -16 -3 -8 -10 -12
-16 -9 -5 3 -10 1 -10 -4 0 -6 10 -12 23 -12 19 -1 19 -2 3 -6 -15 -4 -16 -7
-5 -15 10 -7 5 -8 -16 -3 -16 3 -37 13 -45 21 -12 12 -12 16 2 31 13 12 46 19
125 25 145 12 251 32 323 61 247 100 431 291 447 464 5 59 5 61 -32 98 -21 20
-54 44 -73 52 -54 23 -140 18 -212 -11 -34 -14 -66 -23 -71 -21 -4 3 -11 1
-14 -5 -5 -8 -11 -8 -20 0 -10 8 -15 8 -20 0 -4 -7 -11 -7 -18 -2 -38 29 -42
22 -42 -72 -1 -74 -5 -100 -23 -137 -36 -72 -87 -125 -154 -158 -68 -35 -124
-39 -235 -20 -35 6 -66 9 -69 6 -18 -18 81 -128 144 -161 31 -16 107 -12 81 4
-7 5 4 8 25 7 35 -1 61 17 50 34 -2 4 0 9 6 11 6 2 0 9 -12 17 -21 13 -22 13
-9 -2 10 -13 10 -17 1 -17 -7 0 -10 -6 -7 -14 8 -20 -24 -30 -41 -12 -13 13
-12 16 12 22 19 4 24 10 17 17 -7 7 2 18 30 34 23 13 45 20 50 17 5 -3 8 0 7
7 -2 6 3 14 11 17 9 3 11 0 6 -8 -5 -9 -4 -11 4 -6 8 6 9 12 2 20 -8 9 11 30
74 79 47 37 84 72 83 79 -2 7 2 12 7 13 12 0 102 92 116 118 6 10 14 15 20 12
5 -4 9 -1 9 5 0 6 12 23 26 38 l26 27 -22 -45 c-14 -27 -90 -113 -195 -220
-95 -96 -189 -201 -209 -232 -22 -35 -46 -60 -60 -64 -15 -3 -53 6 -102 26
-81 33 -184 69 -196 70 -4 0 2 -25 13 -57 34 -100 19 -181 -28 -154 -17 9 -16
10 5 18 22 9 22 9 -12 42 -46 44 -79 39 -137 -24 -39 -42 -46 -46 -83 -43 -38
3 -41 5 -44 35 -5 46 12 71 51 75 29 3 32 6 31 36 -2 22 2 32 13 32 11 0 14
-9 11 -35 -2 -21 0 -35 7 -35 18 0 15 -37 -4 -54 -9 -9 -35 -22 -57 -30 l-39
-15 36 3 c27 2 45 12 67 37 18 20 26 37 20 40 -7 4 -6 9 1 13 6 4 11 2 11 -4
0 -6 12 -5 30 5 17 9 40 13 50 10 11 -4 21 -3 21 2 1 4 3 17 5 28 1 11 5 29 7
41 5 19 -44 114 -59 114 -3 0 -3 -4 0 -8 3 -5 -7 -19 -21 -32 -19 -16 -23 -25
-14 -28 7 -2 17 1 21 8 5 9 9 9 14 1 4 -6 12 -8 18 -5 7 5 8 2 4 -5 -5 -7 -14
-10 -21 -7 -8 3 -17 -4 -20 -15 -4 -10 -11 -16 -17 -13 -6 4 -5 10 3 15 11 7
11 9 -2 9 -9 0 -20 -7 -23 -16 -3 -9 -12 -14 -19 -11 -6 2 -23 0 -36 -5 -14
-5 -32 -6 -40 -3 -13 5 -11 9 9 20 19 11 21 14 8 15 -15 0 -17 7 -12 48 l6 47
-21 -32 c-25 -40 -61 -45 -61 -9 0 13 8 34 18 47 9 13 22 33 28 44 16 28 48
26 52 -3 2 -13 15 -40 28 -60 15 -21 23 -45 20 -57 -3 -13 9 -5 35 25 29 32
39 50 34 65 -3 11 -8 43 -12 72 -5 49 -3 57 36 122 32 52 47 68 59 64 14 -4
15 -3 2 5 -12 9 -12 14 4 31 10 11 38 28 63 37 42 16 48 16 98 0 29 -9 64 -25
77 -36 l23 -19 -22 -1 c-13 0 -23 -4 -23 -9 0 -11 -66 -3 -90 10 -10 6 0 8 29
9 60 0 49 6 -24 13 -40 3 -53 2 -40 -4 17 -8 16 -9 -7 -6 -17 3 -25 0 -21 -6
4 -7 -1 -8 -12 -3 -16 6 -16 4 -4 -10 13 -16 12 -16 -6 -6 -17 9 -21 7 -22 -8
-1 -12 3 -17 11 -14 17 7 41 -22 26 -31 -6 -4 -9 -1 -8 6 2 6 -3 14 -11 17 -9
3 -11 0 -6 -8 6 -9 3 -9 -15 0 -18 10 -21 9 -15 -1 6 -8 4 -11 -7 -7 -8 4 -15
0 -15 -7 0 -11 5 -11 21 -3 20 11 20 10 4 -14 -11 -17 -13 -29 -6 -41 9 -17 5
-20 -34 -20 -10 0 -15 -4 -12 -8 3 -5 11 -7 17 -3 7 3 5 0 -3 -8 -22 -19 -23
-43 -3 -59 13 -11 15 -11 9 -1 -6 9 -3 12 10 10 12 -2 18 2 16 10 -1 8 2 11 9
7 12 -8 4 -52 -13 -72 -15 -18 -45 -16 -58 5 -9 14 -10 13 -4 -8 17 -67 61
-107 138 -126 l29 -7 -31 44 c-40 58 -44 81 -13 89 13 3 25 14 27 24 3 18 20
36 36 36 4 0 5 -7 2 -15 -4 -8 -10 -15 -15 -15 -5 0 -9 -7 -9 -15 0 -8 6 -12
14 -9 8 3 17 1 21 -5 3 -6 39 -11 83 -11 94 0 156 26 219 91 64 66 76 105 83
247 5 119 13 145 35 106 5 -11 11 -21 12 -23 2 -2 40 32 86 76 51 49 105 90
140 107 31 14 57 29 57 31 0 2 -10 10 -22 16 -28 15 -120 24 -98 9 11 -7 11
-10 2 -10 -7 0 -10 -4 -7 -10 14 -23 -29 -8 -56 19 -31 31 -37 59 -17 79 18
18 43 14 75 -11 15 -13 42 -29 60 -36 17 -7 46 -24 64 -37 18 -13 45 -24 60
-24 17 0 35 -9 46 -23 16 -21 30 -25 106 -30 49 -3 101 -13 118 -21 16 -8 29
-10 29 -6 0 5 -51 60 -112 122 -116 116 -227 200 -321 243 -52 24 -169 40
-212 29z m-136 -254 c24 7 31 6 28 -3 -2 -7 -28 -15 -58 -18 -30 -4 -64 -10
-76 -14 -33 -11 -28 2 9 25 22 13 37 16 48 10 11 -6 30 -6 49 0z m1 -39 c0 -5
-30 -14 -67 -21 -222 -42 -308 -111 -465 -376 -50 -84 -94 -152 -96 -149 -3 2
17 42 43 87 183 317 260 389 469 444 102 26 116 28 116 15z m-335 -23 c-13
-47 -60 -103 -85 -103 -31 0 -76 71 -58 92 14 17 63 31 111 32 35 1 38 -1 32
-21z m833 -39 c-2 -3 4 -14 12 -24 14 -17 14 -18 -10 -5 -17 9 -20 15 -11 18
11 4 11 6 0 14 -11 8 -11 9 -1 6 8 -2 12 -6 10 -9z m-414 -28 c3 -5 -19 -30
-49 -56 -45 -38 -55 -52 -55 -79 0 -17 7 -42 17 -55 16 -24 16 -24 -13 -17
-59 15 -82 57 -60 110 24 59 141 129 160 97z m560 -27 c3 -8 2 -12 -4 -9 -13
8 -13 -5 0 -25 9 -13 10 -13 10 0 0 13 1 13 11 0 8 -12 9 -8 5 15 -3 17 -3 24
0 17 5 -10 9 -9 18 4 10 13 15 14 21 4 6 -9 4 -11 -5 -5 -10 6 -12 4 -7 -8 17
-41 17 -50 2 -27 l-16 25 6 -30 c4 -22 3 -26 -5 -15 -9 13 -10 13 -10 0 0 -13
-1 -13 -10 0 -8 12 -10 12 -10 -5 -1 -16 -4 -14 -15 10 l-15 30 5 -35 5 -35
-13 34 c-9 22 -16 31 -21 23 -4 -7 -4 -16 -1 -22 3 -5 4 -10 1 -10 -3 0 -10
10 -17 21 -8 15 -8 19 0 15 15 -10 14 7 -1 24 -11 12 -10 12 5 1 9 -7 17 -10
17 -5 0 5 4 3 9 -5 7 -11 10 -9 16 8 8 25 11 26 19 5z m-239 -24 c-11 -5 -29
-9 -40 -9 l-20 0 20 9 c11 5 29 9 40 9 l20 0 -20 -9z m355 -15 c0 15 5 11 15
-14 8 -18 15 -38 14 -45 0 -6 -4 -2 -9 9 l-9 20 -1 -20 c-1 -16 -4 -14 -16 10
l-14 30 5 -30 c6 -34 -8 -16 -19 25 -6 19 -5 21 3 10 9 -13 11 -12 12 5 l0 20
9 -20 9 -20 1 20z m50 -45 c0 -13 -1 -13 -10 0 -5 8 -10 22 -10 30 0 13 1 13
10 0 5 -8 10 -22 10 -30z m-53 -62 c-3 -8 -6 -5 -6 6 -1 11 2 17 5 13 3 -3 4
-12 1 -19z m-20 -10 c-3 -8 -6 -5 -6 6 -1 11 2 17 5 13 3 -3 4 -12 1 -19z
m-670 -44 c0 -10 -7 -14 -19 -11 -10 3 -16 2 -13 -3 7 -11 -39 -21 -62 -14
-16 6 -16 5 2 -10 20 -17 20 -17 -1 -11 -13 3 -26 -1 -34 -10 -7 -8 -18 -15
-25 -15 -8 0 -16 -6 -18 -12 -4 -10 -6 -10 -6 0 -1 7 7 16 17 19 19 8 48 33
36 33 -20 0 -133 -64 -127 -73 3 -6 1 -7 -5 -3 -8 4 -21 -13 -36 -48 -25 -57
-62 -86 -109 -86 -31 0 -38 17 -27 63 4 20 5 38 3 41 -3 2 5 2 18 -1 14 -4 20
-2 16 4 -5 7 1 9 15 5 14 -3 19 -2 14 6 -4 7 -1 12 8 12 8 0 18 -4 21 -10 3
-5 -1 -10 -10 -10 -9 0 -13 -4 -10 -10 3 -6 -1 -7 -10 -4 -19 8 -55 -23 -54
-45 0 -11 3 -10 9 5 9 24 43 41 48 25 3 -8 10 -8 23 -1 10 6 19 7 19 3 0 -4 5
0 11 11 9 14 8 20 -2 27 -11 7 -10 9 4 9 9 0 17 5 17 10 0 11 -20 14 -58 11
-12 -1 -30 2 -38 7 -14 8 -13 10 5 15 12 3 19 2 17 -2 -11 -17 115 -1 156 20
42 22 172 68 194 69 6 0 11 -7 11 -16z m-783 -97 c12 -20 0 -32 -43 -44 -26
-7 -72 13 -79 35 -10 32 102 41 122 9z m277 -140 c-10 -9 -11 -8 -5 6 3 10 9
15 12 12 3 -3 0 -11 -7 -18z m-18 -211 c4 -10 1 -13 -8 -9 -8 3 -12 9 -9 14 7
12 11 11 17 -5z m1507 -76 c0 -63 -10 -80 -62 -106 -28 -14 -52 -23 -54 -21
-3 2 11 23 29 45 19 23 38 57 41 77 4 19 11 35 16 35 6 0 10 8 10 18 0 14 2
15 10 2 5 -8 10 -31 10 -50z m-1372 -113 c13 -35 11 -40 -11 -31 -16 6 -26 24
-33 62 -4 20 -2 21 14 11 10 -6 24 -25 30 -42z m-118 -57 c36 -24 51 -28 81
-24 24 4 64 -2 121 -20 119 -36 146 -70 155 -192 3 -41 11 -78 17 -83 6 -5 27
-11 46 -13 33 -3 35 -5 38 -42 3 -37 -1 -43 -62 -102 -67 -64 -91 -103 -81
-133 3 -9 6 -43 6 -76 2 -69 -12 -85 -75 -85 -66 1 -186 67 -186 104 0 5 15
-4 33 -22 36 -35 82 -57 145 -67 29 -5 42 -3 42 5 0 6 5 8 12 4 7 -5 9 -2 5 8
-3 9 0 21 6 28 9 10 9 11 0 6 -8 -4 -13 -1 -13 8 0 9 3 16 8 16 4 0 7 28 7 63
0 73 18 123 48 131 12 3 28 15 35 27 11 17 11 20 0 13 -7 -4 -2 5 11 20 32 34
37 60 10 45 -11 -6 -25 -8 -32 -6 -7 3 0 10 16 16 15 6 27 13 27 16 0 4 -5 3
-10 0 -14 -8 -52 4 -45 15 3 5 -4 12 -16 15 -12 4 -18 12 -15 21 4 11 2 12
-13 4 -35 -18 -81 -84 -108 -155 -22 -58 -40 -84 -104 -150 -43 -44 -82 -93
-88 -108 -16 -41 -13 -152 3 -192 13 -31 30 -50 23 -26 -3 11 2 12 31 4 17 -4
20 -9 12 -18 -8 -9 -4 -14 15 -17 17 -4 25 -1 25 8 0 8 5 14 11 14 6 0 9 6 6
13 -2 6 3 17 12 23 17 13 44 7 35 -7 -3 -5 0 -9 5 -9 10 0 15 20 13 42 -1 3 5
9 13 11 11 5 12 0 3 -26 -29 -86 -129 -127 -182 -74 -45 45 -66 126 -66 255 0
99 3 120 18 134 9 9 33 44 52 78 19 34 49 78 68 98 41 45 35 32 -29 -61 -48
-70 -80 -152 -94 -242 l-6 -40 21 45 c13 27 48 69 86 104 35 32 72 72 81 90
21 40 21 158 1 206 -37 87 -112 140 -198 140 -81 0 -138 -37 -189 -122 -12
-21 -34 -41 -52 -47 -18 -6 -28 -15 -24 -21 5 -8 11 -7 21 1 12 10 13 9 8 -6
-6 -16 -3 -17 23 -12 38 7 47 0 26 -21 -12 -12 -12 -17 -3 -20 7 -3 16 1 20 9
7 10 11 10 24 -1 14 -11 16 -10 11 3 -7 17 10 32 20 17 4 -6 12 -8 18 -4 7 3
4 -1 -5 -9 -16 -13 -16 -15 8 -26 14 -6 31 -8 37 -5 7 4 9 4 5 -1 -5 -5 1 -15
13 -23 11 -7 19 -24 18 -35 0 -12 0 -26 1 -32 2 -5 3 -17 4 -25 1 -8 6 -15 13
-15 20 0 24 -12 9 -24 -12 -10 -18 -7 -30 18 -9 16 -16 46 -16 65 0 50 -41 70
-134 67 -81 -2 -127 18 -104 47 12 15 11 16 -4 4 -15 -12 -20 -10 -37 19 -44
72 -39 153 13 221 18 24 36 52 40 64 10 33 51 65 108 85 79 27 125 24 178 -11z
m263 -30 c-3 -11 -9 -17 -14 -14 -14 8 -10 34 5 34 9 0 12 -7 9 -20z m946 -56
c-6 -7 -15 -11 -21 -8 -5 3 -4 12 3 20 6 7 15 11 21 8 5 -3 4 -12 -3 -20z
m-612 0 c-3 -3 -12 -4 -19 -1 -8 3 -5 6 6 6 11 1 17 -2 13 -5z m-22 -33 c-28
-12 -41 -25 -42 -40 -1 -12 3 -19 8 -15 6 3 8 12 5 19 -2 7 2 16 10 19 19 7
18 1 -8 -45 -21 -37 -38 -50 -38 -29 0 6 5 10 10 10 6 0 10 5 10 11 0 5 -5 7
-11 3 -8 -4 -8 0 0 15 11 20 5 26 -22 22 -4 -1 -2 8 5 19 7 11 20 18 28 15 8
-2 22 0 30 5 8 5 24 10 35 10 13 0 5 -7 -20 -19z m576 -84 c-13 -13 -26 -3
-16 12 3 6 11 8 17 5 6 -4 6 -10 -1 -17z m-774 -163 c-3 -3 -12 -4 -19 -1 -8
3 -5 6 6 6 11 1 17 -2 13 -5z m-1280 -10 c-3 -3 -12 -4 -19 -1 -8 3 -5 6 6 6
11 1 17 -2 13 -5z m-108 -46 c-18 -24 -34 -45 -36 -47 -2 -2 -3 1 -3 7 0 11
58 82 67 82 3 0 -10 -19 -28 -42z m40 15 c-12 -15 -12 -16 4 -10 25 9 21 4
-15 -23 -31 -22 -32 -22 -14 -2 11 12 16 22 11 22 -4 0 -2 7 5 15 7 8 15 15
17 15 3 0 -1 -8 -8 -17z m1381 2 c-7 -8 -17 -15 -22 -15 -6 0 -5 7 2 15 7 8
17 15 22 15 6 0 5 -7 -2 -15z m903 -31 c3 -4 0 -19 -8 -34 -10 -20 -21 -28
-40 -26 -32 1 -32 19 1 45 28 22 37 25 47 15z m42 -55 c-8 -12 -35 -12 -35 0
0 11 22 20 33 14 4 -2 5 -9 2 -14z m-907 -237 c-8 -85 -64 -169 -88 -132 -5 8
-7 38 -4 65 5 40 13 57 40 83 47 45 57 42 52 -16z m60 -59 c2 -8 -5 -13 -15
-13 -11 0 -20 7 -20 15 0 18 28 16 35 -2z"/>
<path d="M2976 3493 c-6 -14 -5 -15 5 -6 7 7 10 15 7 18 -3 3 -9 -2 -12 -12z"/>
<path d="M2935 3449 c-4 -6 -5 -12 -2 -15 2 -3 7 2 10 11 7 17 1 20 -8 4z"/>
<path d="M2720 3150 c-9 -6 -10 -10 -3 -10 6 0 15 5 18 10 8 12 4 12 -15 0z"/>
<path d="M2465 2643 c-96 -11 -116 -16 -130 -29 -8 -8 -17 -13 -21 -12 -4 2
-13 -7 -22 -20 -13 -20 -13 -22 2 -16 9 3 16 14 17 23 0 10 2 11 6 4 2 -7 9
-13 14 -13 6 0 8 4 4 9 -12 20 106 40 133 23 17 -11 -28 -32 -71 -32 -74 -1
-162 -67 -177 -134 -11 -51 5 -104 37 -119 28 -12 19 -20 115 96 38 46 102 77
157 77 108 0 209 -94 227 -210 l7 -43 35 43 c39 46 54 118 32 145 -7 8 -10 22
-6 30 3 8 1 15 -5 15 -6 0 -8 7 -5 16 4 10 2 13 -6 8 -8 -5 -9 -2 -5 10 5 14
3 15 -10 7 -13 -7 -25 -3 -46 15 -20 17 -33 22 -41 15 -9 -7 -17 -4 -29 9 -9
11 -24 20 -34 20 -15 0 -14 2 3 15 14 11 15 14 4 15 -8 0 -22 -4 -29 -9 -9 -6
-22 -6 -32 0 -11 6 -20 5 -24 -1 -3 -5 -11 -10 -16 -10 -6 0 -7 5 -4 10 3 6
-4 10 -17 11 -22 0 -22 1 -3 10 15 7 9 8 -20 3 -38 -5 -39 -5 -20 10 11 8 18
15 15 14 -3 0 -18 -3 -35 -5z m145 -63 c8 -5 11 -10 5 -10 -5 0 -17 5 -25 10
-8 5 -10 10 -5 10 6 0 17 -5 25 -10z"/>
<path d="M2380 2600 c-11 -8 -7 -9 15 -4 37 8 45 14 19 14 -10 0 -26 -5 -34
-10z"/>
<path d="M2690 2580 c-11 -7 -11 -10 -2 -10 8 0 10 -5 6 -12 -5 -9 -2 -8 9 1
16 12 21 11 47 -14 17 -16 30 -27 31 -24 0 2 2 13 4 24 5 23 -13 37 -37 29 -9
-2 -19 0 -23 6 -8 12 -16 13 -35 0z m86 -34 c2 -14 0 -15 -12 -5 -17 14 -19
32 -2 27 6 -2 12 -12 14 -22z"/>
<path d="M2856 2517 c3 -10 9 -15 12 -12 3 3 0 11 -7 18 -10 9 -11 8 -5 -6z"/>
<path d="M2845 2421 c0 -78 0 -78 23 -68 29 13 29 54 1 104 -12 21 -22 39 -23
40 0 1 -1 -34 -1 -76z"/>
<path d="M2716 1723 c-6 -14 -5 -15 5 -6 7 7 10 15 7 18 -3 3 -9 -2 -12 -12z"/>
<path d="M1910 3854 c-17 -9 -20 -14 -9 -14 9 0 22 7 29 15 15 18 13 18 -20
-1z"/>
<path d="M1585 3830 c-3 -6 1 -7 9 -4 18 7 21 14 7 14 -6 0 -13 -4 -16 -10z"/>
<path d="M1523 3785 c0 -8 4 -12 9 -9 5 3 6 10 3 15 -9 13 -12 11 -12 -6z"/>
<path d="M3418 3603 c7 -3 16 -2 19 1 4 3 -2 6 -13 5 -11 0 -14 -3 -6 -6z"/>
<path d="M3380 3590 c8 -5 26 -10 39 -10 32 0 24 6 -19 14 -25 4 -31 3 -20 -4z"/>
<path d="M1285 3581 c4 -7 -6 -29 -21 -49 -32 -43 -45 -53 -56 -46 -5 3 -7 0
-6 -8 2 -7 -2 -12 -8 -11 -17 3 -95 -151 -133 -262 -29 -87 -34 -116 -39 -226
-8 -212 23 -305 135 -396 l41 -34 -34 79 c-71 164 -94 341 -64 486 28 136 116
303 209 398 56 57 62 66 40 61 -15 -3 -37 0 -49 7 -16 9 -20 9 -15 1z m-2 -58
c-5 -12 -3 -14 8 -8 12 8 12 6 0 -9 -9 -11 -17 -14 -24 -7 -7 7 -6 15 3 26 16
20 21 19 13 -2z"/>
<path d="M2241 3564 c0 -11 3 -14 6 -6 3 7 2 16 -1 19 -3 4 -6 -2 -5 -13z"/>
<path d="M3200 3465 c-40 -41 -68 -75 -62 -79 6 -3 14 -2 17 4 5 8 11 8 20 0
9 -8 15 -8 20 0 3 6 10 8 15 5 4 -3 15 -2 23 1 15 6 17 20 4 40 -4 7 0 17 8
24 8 7 12 16 9 21 -3 5 0 10 5 10 6 1 14 2 19 3 10 2 58 36 52 37 -48 10 -61
4 -130 -66z m74 51 c-3 -8 -12 -17 -20 -20 -9 -3 -13 -10 -10 -15 3 -5 -1 -14
-9 -21 -11 -9 -12 -16 -5 -25 7 -9 6 -16 -5 -25 -8 -7 -15 -9 -15 -5 0 4 -6 2
-14 -4 -10 -9 -16 -9 -21 -1 -5 8 -12 7 -23 -1 -10 -7 14 20 53 59 38 40 71
72 72 72 1 0 0 -6 -3 -14z"/>
<path d="M3201 3446 c-19 -19 -28 -36 -23 -40 6 -3 13 -2 17 4 4 6 10 8 15 5
5 -3 11 -1 14 4 4 5 1 13 -4 16 -8 5 -6 13 6 26 29 33 10 21 -25 -15z m15 -18
c4 -7 4 -10 -1 -6 -4 4 -15 2 -24 -5 -14 -11 -14 -10 -2 6 16 20 18 21 27 5z"/>
<path d="M3515 3510 c10 -11 20 -20 23 -20 3 0 -3 9 -13 20 -10 11 -20 20 -23
20 -3 0 3 -9 13 -20z"/>
<path d="M3858 3417 c54 -78 132 -233 162 -323 41 -119 68 -265 80 -431 5 -76
13 -178 17 -228 l7 -90 9 95 c10 107 -5 325 -29 430 -24 108 -64 219 -119 336
-49 105 -138 254 -150 254 -3 0 7 -19 23 -43z"/>
<path d="M999 3088 c-14 -57 -14 -211 -1 -268 6 -22 7 7 4 80 -2 63 1 142 7
174 14 75 7 84 -10 14z"/>
<path d="M2483 3075 c0 -22 2 -30 4 -17 2 12 2 30 0 40 -3 9 -5 -1 -4 -23z"/>
<path d="M3040 3034 c-54 -43 -61 -50 -35 -36 22 12 93 71 85 71 -3 0 -25 -16
-50 -35z"/>
<path d="M932 2963 c-105 -384 -66 -790 109 -1135 44 -86 150 -235 236 -331
77 -85 267 -257 284 -257 4 0 -4 21 -17 48 -13 26 -41 87 -61 136 -43 103
-105 177 -237 280 -160 125 -236 227 -290 386 -44 134 -60 248 -60 450 -1 188
7 261 45 414 26 102 18 109 -9 9z"/>
<path d="M936 2865 c-24 -130 -33 -358 -16 -434 29 -133 82 -225 240 -417 173
-209 233 -306 302 -484 l29 -75 -6 135 c-3 75 -12 167 -20 205 -23 107 -91
234 -218 405 -222 298 -267 403 -285 660 l-7 105 -19 -100z"/>
<path d="M2934 2936 c-3 -9 -11 -13 -17 -9 -6 3 -7 1 -3 -6 6 -9 12 -9 24 1
10 7 18 13 20 14 2 1 -2 5 -7 9 -6 3 -14 -1 -17 -9z"/>
<path d="M3833 2900 c2 -8 0 -23 -5 -34 -7 -13 -7 -16 1 -12 18 11 13 -9 -6
-26 -10 -9 -26 -14 -35 -13 -19 3 -32 -11 -33 -35 0 -8 -6 -14 -13 -12 -8 1
-11 -2 -8 -7 11 -16 37 -5 84 36 26 22 54 39 63 38 13 -2 14 1 5 20 -6 13 -13
20 -16 17 -10 -14 -32 -13 -27 1 3 8 1 20 -5 28 -8 12 -9 12 -5 -1z m2 -78
l-28 -27 24 31 c13 17 26 30 28 27 3 -2 -8 -16 -24 -31z m-35 -22 c0 -4 -10
-15 -22 -26 -13 -10 -17 -12 -10 -4 15 18 16 34 0 24 -6 -4 -8 -3 -5 3 7 11
37 13 37 3z"/>
<path d="M2860 2870 c0 -5 5 -10 10 -10 6 0 10 5 10 10 0 6 -4 10 -10 10 -5 0
-10 -4 -10 -10z"/>
<path d="M2556 2827 c3 -10 9 -15 12 -12 3 3 0 11 -7 18 -10 9 -11 8 -5 -6z"/>
<path d="M980 2788 c0 -4 6 -39 14 -80 30 -157 83 -258 263 -499 123 -167 193
-295 217 -399 9 -36 20 -140 26 -230 12 -188 19 -222 63 -304 37 -71 82 -102
287 -205 156 -79 212 -99 125 -46 -79 48 -155 124 -196 196 -21 35 -39 57 -47
54 -17 -6 -58 38 -91 100 l-26 50 0 247 c0 135 -2 248 -5 250 -3 2 -18 10 -35
16 l-30 13 33 -26 c17 -15 32 -32 32 -38 0 -18 -108 103 -127 143 -27 55 -22
125 13 200 l31 65 -42 -3 c-35 -3 -47 2 -83 31 -23 20 -72 45 -109 58 -80 26
-133 75 -178 166 -61 125 -100 169 -50 58 28 -64 33 -90 10 -59 -8 12 -31 70
-51 130 -34 100 -44 127 -44 112z"/>
<path d="M2348 2753 c7 -3 16 -2 19 1 4 3 -2 6 -13 5 -11 0 -14 -3 -6 -6z"/>
<path d="M3680 2705 c-9 -10 -7 -13 7 -10 10 2 20 4 23 5 3 1 10 1 15 0 6 -1
6 2 2 6 -13 13 -36 13 -47 -1z"/>
<path d="M3769 2533 c-13 -16 -12 -17 4 -4 16 13 21 21 13 21 -2 0 -10 -8 -17
-17z"/>
<path d="M1195 2510 c-3 -6 1 -7 9 -4 18 7 21 14 7 14 -6 0 -13 -4 -16 -10z"/>
<path d="M3420 2475 c-7 -9 -8 -15 -2 -15 5 0 12 7 16 15 3 8 4 15 2 15 -2 0
-9 -7 -16 -15z"/>
<path d="M1256 2462 c-2 -4 -1 -14 4 -22 7 -11 9 -9 7 8 -1 24 -3 26 -11 14z"/>
<path d="M1204 2448 c-3 -4 -4 -8 -2 -9 25 -6 35 -5 35 5 0 14 -25 17 -33 4z"/>
<path d="M925 2297 c9 -97 49 -235 91 -319 43 -85 119 -168 255 -279 53 -43
115 -100 138 -126 l42 -48 -35 83 c-48 116 -107 206 -236 362 -147 177 -196
246 -232 328 l-29 67 6 -68z"/>
<path d="M3570 2196 c0 -2 8 -10 18 -17 15 -13 16 -12 3 4 -13 16 -21 21 -21
13z"/>
<path d="M3594 2146 c1 -8 5 -18 8 -22 4 -3 5 1 4 10 -1 8 -5 18 -8 22 -4 3
-5 -1 -4 -10z"/>
<path d="M1782 2139 c-92 -17 -163 -89 -161 -164 l1 -40 15 35 c42 97 125 160
212 160 30 0 52 2 50 4 -11 9 -78 12 -117 5z"/>
<path d="M4057 2119 c4 -13 8 -18 11 -10 2 7 -1 18 -6 23 -8 8 -9 4 -5 -13z"/>
<path d="M1517 2095 c3 -22 7 -42 9 -44 8 -9 2 45 -6 64 -7 14 -8 8 -3 -20z"/>
<path d="M1546 2075 c2 -11 4 -40 5 -65 l2 -45 6 42 c10 60 19 63 16 6 l-3
-48 8 40 c5 30 8 34 10 15 1 -17 4 -20 7 -8 2 9 -5 34 -17 55 -12 21 -19 30
-16 21 6 -20 -10 -25 -17 -5 -2 6 -3 3 -1 -8z"/>
<path d="M3610 2065 c0 -28 -49 -126 -101 -201 -62 -89 -139 -162 -255 -240
-78 -52 -87 -62 -124 -133 -22 -43 -64 -104 -92 -136 l-52 -58 44 28 c184 115
284 191 374 283 128 131 226 291 254 419 9 38 8 42 -12 47 -31 9 -36 7 -36 -9z"/>
<path d="M1601 1974 c0 -11 3 -14 6 -6 3 7 2 16 -1 19 -3 4 -6 -2 -5 -13z"/>
<path d="M1640 1890 c0 -12 23 -48 50 -81 56 -68 82 -114 134 -243 74 -185
181 -304 339 -380 121 -58 199 -76 328 -76 120 0 203 20 316 75 121 59 282
226 328 339 l16 38 -38 -23 c-77 -46 -151 -99 -272 -194 -196 -152 -295 -192
-451 -182 -158 11 -291 70 -405 183 -98 96 -147 194 -166 332 -13 99 -25 136
-56 173 -47 55 -123 79 -123 39z"/>
<path d="M1634 1755 c-15 -156 -11 -305 9 -349 9 -22 20 -37 23 -33 3 3 0 15
-6 27 -10 18 -8 25 14 45 l25 23 4 -22 c3 -11 3 -5 2 15 -1 20 2 44 8 55 10
18 9 18 -9 4 -18 -14 -18 -14 -5 3 17 21 31 22 31 1 0 -9 5 -12 12 -8 8 5 9 2
2 -12 -5 -10 -9 -53 -9 -94 1 -66 5 -84 39 -153 114 -237 365 -339 794 -324
178 6 296 27 457 82 162 55 376 171 505 274 74 58 140 121 128 121 -6 0 15 25
48 55 57 54 57 55 11 21 -101 -74 -208 -114 -472 -175 -208 -48 -312 -85 -475
-169 -69 -36 -154 -76 -190 -89 -222 -85 -468 -62 -636 59 -63 45 -128 135
-153 210 -22 67 -42 198 -45 288 -1 30 -8 66 -15 78 -7 13 -10 26 -7 29 15 16
40 -87 51 -219 12 -130 17 -155 46 -215 82 -172 251 -265 484 -266 126 -1 225
21 330 74 44 21 71 37 60 33 -139 -41 -265 -41 -413 2 -121 35 -210 85 -290
163 -89 85 -131 150 -190 292 -46 108 -77 163 -135 234 l-25 30 -8 -90z m81
-203 c-3 -3 -11 0 -18 7 -9 10 -8 11 6 5 10 -3 15 -9 12 -12z m-68 -114 c-3
-8 -6 -5 -6 6 -1 11 2 17 5 13 3 -3 4 -12 1 -19z m1983 -48 c-29 -23 -214
-120 -226 -120 -5 0 27 20 71 43 44 23 98 55 120 69 46 31 72 37 35 8z"/>
<path d="M1707 1299 c7 -7 15 -10 18 -7 3 3 -2 9 -12 12 -14 6 -15 5 -6 -5z"/>
</g>
</svg>
