<?xml version="1.0" standalone="no"?>
<!DOCTYPE svg PUBLIC "-//W3C//DTD SVG 20010904//EN"
 "http://www.w3.org/TR/2001/REC-SVG-20010904/DTD/svg10.dtd">
<svg version="1.0" xmlns="http://www.w3.org/2000/svg"
 width="500.000000pt" height="500.000000pt" viewBox="0 0 500.000000 500.000000"
 preserveAspectRatio="xMidYMid meet">

<g transform="translate(0.000000,500.000000) scale(0.100000,-0.100000)"
fill="#000000" stroke="none">
<path d="M2562 4398 c-15 -15 -16 -72 -2 -99 16 -29 64 -25 89 7 26 33 27 58
1 84 -22 22 -69 27 -88 8z m65 -62 c-8 -20 -36 -21 -43 -1 -4 8 0 22 7 31 11
13 14 13 27 0 8 -8 12 -22 9 -30z"/>
<path d="M2761 4373 c-22 -27 -22 -27 -3 -43 11 -8 23 -34 27 -57 4 -24 11
-45 15 -48 15 -9 30 31 29 77 -2 93 -29 122 -68 71z"/>
<path d="M2171 4364 c-24 -31 -36 -83 -27 -120 8 -30 49 -74 69 -74 32 0 59
35 64 82 7 58 -1 92 -27 118 -27 27 -55 25 -79 -6z m63 -40 c7 -19 -3 -92 -15
-99 -10 -7 -39 34 -39 55 0 18 27 60 39 60 5 0 12 -7 15 -16z"/>
<path d="M2373 4375 c-28 -20 -29 -29 -3 -55 15 -15 20 -33 20 -76 0 -47 3
-55 18 -52 37 7 39 188 2 196 -8 1 -25 -5 -37 -13z"/>
<path d="M2000 4325 c-21 -23 -22 -26 -8 -42 9 -10 18 -40 21 -66 5 -56 22
-81 37 -57 11 17 14 149 4 174 -9 23 -27 20 -54 -9z"/>
<path d="M3003 4320 c-51 -30 -43 -94 15 -124 23 -12 31 -12 54 0 54 29 61 72
19 115 -35 34 -45 35 -88 9z m75 -41 c1 -9 -6 -27 -17 -40 l-19 -24 -12 27
c-7 15 -10 34 -6 43 8 21 50 16 54 -6z"/>
<path d="M1805 4240 c-27 -28 -27 -30 -8 -30 29 0 40 -17 48 -75 3 -27 9 -57
12 -65 15 -41 30 104 17 169 -8 40 -31 40 -69 1z"/>
<path d="M1701 4232 c-12 -23 -14 -206 -2 -236 15 -37 25 6 29 115 4 114 -6
160 -27 121z"/>
<path d="M3239 4221 c-16 -17 -29 -40 -29 -54 0 -54 73 -102 118 -78 26 14 55
76 47 101 -9 27 -53 60 -82 60 -14 0 -37 -13 -54 -29z m76 -52 c0 -27 -4 -34
-19 -34 -31 0 -43 30 -21 55 25 28 40 20 40 -21z"/>
<path d="M1385 4169 c-36 -34 -45 -48 -45 -76 0 -21 -6 -35 -15 -38 -51 -16
-49 -14 -26 -38 27 -30 27 -45 -1 -49 -36 -5 -35 -37 1 -49 40 -14 39 -25 -4
-50 -43 -26 -44 -34 -3 -45 43 -13 46 -30 9 -51 -43 -25 -37 -49 12 -45 44 4
46 -3 10 -40 -28 -30 -16 -38 23 -15 33 19 144 118 155 139 8 15 5 20 -16 28
-32 12 -32 27 0 42 31 14 31 22 0 42 -21 14 -24 20 -15 36 7 13 21 20 41 20
l30 0 -28 25 -28 25 23 19 c12 11 28 22 35 25 8 3 5 11 -10 22 -13 9 -23 25
-23 34 0 23 -47 80 -66 80 -8 0 -35 -19 -59 -41z"/>
<path d="M2565 4180 c-38 -42 -12 -130 37 -130 33 0 56 19 63 50 9 42 -2 68
-35 85 -38 19 -43 19 -65 -5z m51 -44 c3 -14 2 -32 -3 -41 -9 -15 -11 -15 -22
-1 -14 17 -7 66 9 66 5 0 12 -11 16 -24z"/>
<path d="M2356 4098 c-21 -50 8 -108 54 -108 20 0 60 49 60 75 0 34 -33 65
-70 65 -25 0 -33 -6 -44 -32z"/>
<path d="M3459 4101 c-16 -16 -29 -38 -29 -49 0 -30 31 -61 67 -68 26 -5 37
-1 57 19 33 33 33 71 1 102 -32 33 -60 31 -96 -4z m61 -31 c11 -7 12 -14 4
-27 -16 -25 -31 -27 -39 -4 -11 35 6 50 35 31z"/>
<path d="M2160 4099 c-13 -6 -31 -16 -40 -24 -12 -11 -25 -11 -62 -4 -36 8
-54 7 -75 -3 -39 -18 -43 -65 -9 -104 l25 -29 58 32 c32 17 91 39 132 47 111
23 141 64 63 86 -44 12 -59 12 -92 -1z"/>
<path d="M2863 4075 c-11 -8 -28 -32 -37 -54 -8 -22 -25 -45 -38 -52 -20 -11
-21 -12 -4 -25 23 -16 14 -44 -14 -44 -24 0 -26 -13 -5 -30 21 -18 19 -37 -6
-45 -15 -5 -19 -14 -17 -33 3 -23 -1 -27 -25 -30 -22 -3 -27 -7 -22 -23 5 -14
-5 -30 -37 -60 -89 -84 -128 -89 -225 -31 -82 50 -197 96 -289 118 -97 22
-298 15 -413 -16 -277 -73 -484 -231 -586 -445 -52 -110 -68 -190 -62 -315 9
-215 88 -315 320 -405 l92 -35 308 0 307 0 113 41 c154 56 236 107 329 203
l79 81 29 -35 c25 -31 30 -33 36 -17 6 16 9 14 25 -13 20 -33 39 -32 39 1 0
26 24 20 28 -7 7 -34 21 -39 31 -11 12 31 31 36 31 8 0 -31 18 -34 36 -5 l17
26 14 -26 c17 -33 21 -32 34 2 10 26 11 26 24 8 8 -10 16 -23 18 -29 6 -19 27
4 27 29 0 32 18 31 30 -2 12 -30 30 -23 30 12 0 27 21 32 40 9 16 -19 40 -19
40 0 0 8 20 26 45 41 64 37 73 95 21 129 -19 13 -31 13 -101 -2 -93 -20 -333
-22 -390 -3 -40 13 -75 53 -75 84 0 11 10 37 21 56 l21 34 28 -34 27 -33 7 38
7 38 21 -34 c12 -19 22 -29 24 -24 1 6 5 22 8 38 8 36 21 34 35 -4 13 -37 31
-29 31 13 l0 31 23 -21 c30 -29 40 -28 35 3 -6 29 -1 30 26 10 31 -23 36 -18
36 30 l0 46 45 -27 c25 -14 48 -24 51 -21 3 3 -1 18 -10 34 -9 18 -11 34 -6
43 7 12 14 12 45 -3 20 -9 38 -17 40 -17 12 0 3 35 -12 52 -25 28 -4 45 37 28
41 -17 48 -6 22 30 -28 38 -28 40 8 40 20 0 30 5 30 15 0 9 7 30 16 47 18 35
12 70 -16 98 -24 24 -73 26 -91 4 -8 -9 -31 -27 -51 -40 -21 -14 -38 -31 -38
-39 0 -8 -12 -21 -27 -29 -16 -8 -39 -26 -53 -41 -32 -34 -77 -57 -164 -84
-100 -31 -150 -28 -187 9 -20 19 -29 38 -27 52 3 20 8 23 41 20 34 -3 37 -1
37 23 0 25 14 34 25 15 3 -5 14 -10 23 -10 12 0 13 3 4 12 -7 7 -12 20 -12 30
0 15 3 16 25 6 31 -14 40 -6 26 20 -23 43 -15 55 34 48 50 -8 57 2 29 42 -22
32 -11 40 46 34 60 -5 65 7 15 38 -20 12 -34 27 -32 34 2 6 28 16 58 22 l54
10 -32 17 c-49 26 -39 57 18 57 27 0 23 27 -6 43 l-26 13 21 19 c42 38 18 140
-40 170 -36 19 -40 19 -67 0z m-1015 -367 c22 -22 14 -48 -13 -48 -20 0 -25 5
-25 23 0 36 16 47 38 25z m382 -18 c0 -19 -20 -27 -33 -13 -8 7 11 33 24 33 5
0 9 -9 9 -20z m-206 -11 c-7 -12 -44 -12 -44 0 0 5 6 11 13 14 17 6 38 -3 31
-14z m-444 -44 c0 -8 -9 -15 -20 -15 -11 0 -20 7 -20 15 0 8 9 15 20 15 11 0
20 -7 20 -15z m158 -39 c-2 -15 -10 -21 -27 -21 -30 0 -37 17 -16 38 20 21 47
10 43 -17z m590 22 c22 -22 14 -48 -13 -48 -20 0 -25 5 -25 23 0 36 16 47 38
25z m-193 -33 c0 -25 -4 -31 -27 -33 -19 -2 -28 2 -33 18 -8 27 12 52 39 48
16 -2 21 -10 21 -33z m-215 -50 c20 -24 8 -50 -24 -50 -36 0 -56 26 -37 49 17
20 45 21 61 1z m-482 -13 c2 -7 -6 -12 -17 -12 -21 0 -27 11 -14 24 9 9 26 2
31 -12z m152 -18 c0 -8 -7 -14 -15 -14 -15 0 -21 21 -9 33 10 9 24 -2 24 -19z
m894 -10 c19 -7 21 -30 4 -36 -21 -8 -38 2 -38 23 0 20 8 23 34 13z m-760 -41
c8 -20 -19 -44 -40 -36 -14 5 -19 35 -7 46 12 13 41 7 47 -10z m571 -3 c4 -6
1 -17 -5 -26 -14 -16 -40 -2 -40 22 0 16 36 19 45 4z m-201 -23 c8 -14 8 -20
-4 -27 -22 -14 -35 -7 -38 24 -3 22 0 27 14 24 9 -1 22 -11 28 -21z m-606 -21
c3 -13 -1 -17 -14 -14 -11 2 -20 11 -22 22 -3 13 1 17 14 14 11 -2 20 -11 22
-22z m-153 -16 c0 -36 -29 -33 -33 3 -3 23 0 28 15 25 12 -2 18 -12 18 -28z
m645 -19 c0 -10 -22 -31 -32 -31 -9 0 -11 34 -2 43 7 7 34 -2 34 -12z m440 -8
c-1 -49 -60 -67 -60 -19 0 29 8 36 37 36 15 0 23 -6 23 -17z m-600 -13 c0 -5
-4 -10 -10 -10 -5 0 -10 5 -10 10 0 6 5 10 10 10 6 0 10 -4 10 -10z m398 -7
c2 -8 -6 -13 -22 -13 -25 0 -33 10 -19 24 10 10 36 3 41 -11z m302 2 c0 -8 -9
-15 -20 -15 -20 0 -26 11 -13 23 12 13 33 7 33 -8z m-1299 -8 c-1 -12 -15 -9
-19 4 -3 6 1 10 8 8 6 -3 11 -8 11 -12z m379 -8 c0 -6 -4 -7 -10 -4 -5 3 -10
11 -10 16 0 6 5 7 10 4 6 -3 10 -11 10 -16z m1363 15 c11 -11 -3 -24 -18 -18
-8 4 -12 10 -9 15 6 11 18 12 27 3z m-1193 -24 c0 -5 -4 -10 -9 -10 -6 0 -13
5 -16 10 -3 6 1 10 9 10 9 0 16 -4 16 -10z m860 -81 c0 -24 -23 -21 -28 4 -2
10 3 17 12 17 10 0 16 -9 16 -21z m-1274 -30 c35 -36 45 -124 21 -181 -29 -70
-119 -87 -173 -33 -21 21 -24 33 -24 98 0 83 18 119 72 142 40 16 71 9 104
-26z m804 19 c57 -29 82 -72 82 -139 -1 -64 -31 -111 -88 -139 -166 -81 -315
101 -197 241 52 61 128 75 203 37z m284 -3 c8 -23 -4 -45 -25 -45 -11 0 -22 7
-25 15 -9 23 3 45 25 45 10 0 21 -7 25 -15z m154 -63 c2 -7 -6 -12 -17 -12
-21 0 -27 11 -14 24 9 9 26 2 31 -12z m-48 -61 c0 -4 -7 -17 -16 -29 -13 -18
-19 -21 -30 -11 -19 16 -18 36 3 47 17 10 43 6 43 -7z m-128 -83 c-16 -16 -37
4 -28 28 6 16 8 16 23 1 13 -13 15 -19 5 -29z m153 -28 c3 -6 -1 -13 -10 -16
-19 -8 -30 0 -20 15 8 14 22 14 30 1z m-247 -48 c2 -7 -6 -12 -17 -12 -21 0
-27 11 -14 24 9 9 26 2 31 -12z m172 -36 c0 -22 -25 -37 -38 -24 -13 13 -16
41 -6 51 10 9 44 -12 44 -27z m-1320 -11 c10 -12 9 -16 -5 -21 -19 -8 -40 9
-31 25 10 15 21 14 36 -4z m1175 -55 c15 -16 15 -22 5 -35 -26 -32 -56 -12
-46 31 8 29 17 30 41 4z m-1100 -50 c8 -24 -1 -40 -21 -40 -8 0 -14 10 -14 23
0 40 24 51 35 17z m945 -26 c0 -7 -8 -18 -18 -23 -33 -18 -58 29 -30 57 9 9
16 8 30 -5 10 -9 18 -22 18 -29z m-402 17 c133 -8 159 -14 132 -31 -20 -13
-521 -13 -540 0 -55 34 123 48 408 31z"/>
<path d="M2117 3174 c-12 -12 -8 -51 7 -63 18 -15 39 9 34 41 -3 22 -27 35
-41 22z"/>
<path d="M3177 4021 c-7 -27 3 -68 19 -82 22 -18 64 4 64 34 0 26 -38 67 -62
67 -9 0 -18 -9 -21 -19z"/>
<path d="M1814 3955 c-19 -29 -12 -55 14 -55 31 0 47 26 34 55 -15 32 -27 32
-48 0z"/>
<path d="M3656 3949 c-32 -25 -35 -51 -4 -47 19 3 24 -4 36 -46 17 -60 32 -46
32 31 0 87 -15 101 -64 62z"/>
<path d="M2526 3938 c-20 -28 -20 -52 0 -72 21 -22 57 -20 79 4 14 16 16 26 9
52 -8 27 -15 34 -41 36 -23 2 -35 -3 -47 -20z m62 -37 c-5 -24 -38 -27 -38 -3
0 10 3 21 6 25 11 11 35 -5 32 -22z"/>
<path d="M2190 3935 c-10 -12 -10 -18 0 -30 21 -25 54 -15 58 18 3 23 0 27
-21 27 -14 0 -30 -7 -37 -15z"/>
<path d="M2370 3916 c-19 -50 16 -80 51 -45 18 18 19 23 6 42 -21 32 -45 33
-57 3z"/>
<path d="M3322 3928 c-23 -23 -11 -46 55 -101 77 -65 125 -91 153 -82 53 17 6
82 -112 152 -70 42 -81 46 -96 31z"/>
<path d="M977 3879 c-23 -13 -56 -84 -57 -118 0 -14 10 -35 21 -48 20 -20 20
-23 5 -29 -24 -9 -19 -33 9 -40 30 -7 32 -20 5 -34 -24 -13 -18 -30 11 -30 20
0 26 -24 9 -35 -18 -11 -10 -25 14 -25 31 0 40 -14 21 -30 -8 -7 -15 -19 -15
-26 0 -10 6 -11 26 -4 14 6 34 10 46 10 l20 0 -21 -35 c-23 -40 -11 -46 29
-15 14 11 30 20 37 20 32 0 45 100 18 136 -8 10 -15 26 -15 35 0 9 -9 24 -20
34 -16 14 -17 21 -8 32 9 11 6 17 -11 29 -15 11 -20 22 -16 35 9 26 -14 88
-44 122 -27 29 -37 32 -64 16z"/>
<path d="M3200 3790 c0 -32 4 -40 18 -40 10 0 27 7 38 15 19 15 18 16 -9 40
-39 34 -47 32 -47 -15z"/>
<path d="M3853 3819 c-46 -17 -58 -90 -22 -140 16 -23 28 -29 58 -29 46 0 91
32 91 63 0 33 -45 93 -77 105 -16 5 -38 6 -50 1z m55 -61 c14 -14 16 -64 4
-72 -15 -9 -52 25 -52 48 0 36 24 48 48 24z"/>
<path d="M3600 3688 c-64 -33 -93 -80 -87 -142 4 -41 11 -55 41 -83 84 -77
206 -11 206 111 0 56 -10 78 -47 104 -46 32 -66 34 -113 10z"/>
<path d="M4020 3620 c-45 -45 -8 -140 55 -140 33 0 75 41 75 74 0 13 -12 38
-26 55 -31 37 -74 41 -104 11z m70 -40 c13 -25 4 -60 -16 -60 -23 0 -40 46
-24 65 17 20 27 19 40 -5z"/>
<path d="M3863 3534 c-13 -35 85 -231 130 -258 24 -15 39 9 32 49 -8 45 -71
172 -99 200 -29 28 -54 32 -63 9z"/>
<path d="M742 3483 c-7 -3 -19 -17 -27 -32 -18 -35 -7 -125 15 -127 31 -2 33
-4 15 -17 -24 -18 -11 -38 23 -35 28 3 32 -8 16 -46 -8 -20 -11 -20 57 0 19 6
20 4 14 -40 -8 -51 -1 -56 38 -26 45 36 58 19 32 -42 -11 -26 12 -22 47 8 40
33 61 18 36 -26 -14 -25 -15 -30 -3 -30 15 0 38 68 50 147 6 40 5 42 -27 59
-51 26 -178 125 -178 139 0 16 -66 75 -83 74 -7 0 -18 -3 -25 -6z"/>
<path d="M4152 3407 c-35 -37 -41 -59 -14 -56 33 3 41 -1 62 -36 21 -34 52
-46 65 -25 6 10 -63 150 -74 150 -4 0 -21 -15 -39 -33z"/>
<path d="M3738 3389 c-36 -20 -9 -89 35 -89 15 0 47 35 47 52 0 13 -39 48 -52
48 -7 0 -21 -5 -30 -11z"/>
<path d="M3453 3363 c-25 -9 -12 -46 51 -146 70 -113 115 -199 171 -329 42
-99 66 -128 90 -108 22 18 19 49 -16 142 -67 182 -176 381 -236 428 -26 20
-37 23 -60 13z"/>
<path d="M3320 3201 c-8 -16 -2 -36 32 -100 66 -123 104 -173 131 -169 35 5
33 43 -8 125 -36 72 -110 163 -133 163 -6 0 -16 -9 -22 -19z"/>
<path d="M3827 3199 c-26 -15 -21 -51 22 -178 22 -64 54 -181 72 -261 38 -174
52 -213 76 -208 57 11 -12 410 -102 589 -30 57 -45 71 -68 58z"/>
<path d="M4030 3168 c0 -13 14 -75 30 -138 49 -187 59 -241 75 -407 8 -87 15
-168 15 -179 0 -12 9 -32 19 -45 19 -23 20 -23 38 -6 16 15 18 34 17 150 -2
211 -48 458 -108 579 -26 52 -36 64 -58 66 -24 3 -28 0 -28 -20z"/>
<path d="M4246 3164 c-10 -9 -16 -33 -16 -58 0 -67 32 -94 87 -71 63 26 68 90
10 125 -39 24 -60 25 -81 4z m64 -50 c11 -29 6 -44 -15 -44 -16 0 -31 43 -20
59 11 18 25 12 35 -15z"/>
<path d="M642 3088 c6 -18 28 -21 28 -4 0 9 -7 16 -16 16 -9 0 -14 -5 -12 -12z"/>
<path d="M625 2979 c-4 -5 -18 -15 -32 -20 l-26 -10 22 -23 c18 -20 20 -27 10
-55 -13 -37 -6 -50 19 -35 43 26 69 135 36 148 -21 8 -22 8 -29 -5z"/>
<path d="M4322 2925 c-38 -32 -40 -45 -7 -45 20 0 25 -6 30 -37 10 -59 16 -74
26 -68 14 9 11 139 -4 159 -12 17 -15 16 -45 -9z"/>
<path d="M824 2855 c-4 -8 -3 -22 0 -30 8 -22 112 -66 161 -68 34 -2 40 1 43
19 4 28 -36 60 -101 79 -64 19 -96 19 -103 0z"/>
<path d="M3506 2844 c-20 -19 -20 -38 -1 -54 28 -23 95 -8 95 21 0 16 -40 49
-59 49 -11 0 -27 -7 -35 -16z"/>
<path d="M3374 2756 c-10 -25 0 -61 18 -64 12 -2 19 5 24 22 10 39 -29 77 -42
42z"/>
<path d="M568 2717 c-30 -25 -35 -41 -25 -80 19 -70 137 -49 137 25 0 33 -39
78 -67 78 -10 -1 -30 -11 -45 -23z m56 -33 c18 -7 21 -39 5 -50 -14 -8 -53 31
-45 45 8 12 17 14 40 5z"/>
<path d="M2592 2650 c-49 -44 -207 -124 -324 -164 -61 -21 -236 -56 -280 -56
-52 0 128 -86 254 -120 145 -39 238 -25 238 36 0 38 -11 54 -52 75 -51 26 -40
38 43 45 89 7 153 -12 157 -49 2 -14 -5 -46 -16 -69 -52 -115 -128 -172 -248
-187 -74 -9 -106 -30 -84 -55 7 -9 20 -16 29 -16 35 0 39 -19 18 -81 -15 -46
-17 -63 -9 -71 9 -9 24 -1 61 36 27 27 54 45 60 42 6 -4 11 -34 11 -67 0 -69
19 -80 48 -28 37 67 37 67 72 34 31 -29 32 -29 46 -11 8 11 14 34 14 52 0 48
12 72 74 144 147 170 173 332 73 446 -44 50 -113 104 -131 104 -6 -1 -30 -18
-54 -40z m86 -74 c3 -13 -1 -17 -14 -14 -11 2 -20 11 -22 22 -3 13 1 17 14 14
11 -2 20 -11 22 -22z m80 -94 c2 -15 -2 -22 -12 -22 -11 0 -16 9 -16 26 0 31
23 28 28 -4z m-478 -102 c0 -13 -37 -13 -45 0 -3 6 -3 15 0 20 7 12 45 -5 45
-20z m120 -24 c0 -16 -19 -25 -37 -18 -23 8 -14 32 12 32 15 0 25 -6 25 -14z"/>
<path d="M3220 2674 c0 -9 5 -14 12 -12 18 6 21 28 4 28 -9 0 -16 -7 -16 -16z"/>
<path d="M3774 2679 c-4 -7 -11 -113 -15 -238 -5 -124 -13 -273 -19 -331 -15
-158 -14 -202 6 -198 26 5 53 48 70 108 30 109 39 600 12 653 -10 19 -43 23
-54 6z"/>
<path d="M3046 2665 c-3 -9 1 -18 10 -22 19 -7 28 2 21 22 -8 19 -23 19 -31 0z"/>
<path d="M3572 2664 c-31 -22 -30 -69 3 -90 23 -15 27 -15 50 0 30 20 32 45 4
80 -24 30 -27 31 -57 10z"/>
<path d="M4340 2667 c-51 -26 -51 -108 -1 -134 20 -9 30 -9 51 2 59 31 70 83
26 122 -31 26 -41 28 -76 10z m50 -67 c0 -23 -5 -30 -19 -30 -20 0 -37 32 -26
50 3 5 15 10 26 10 14 0 19 -7 19 -30z"/>
<path d="M803 2634 c-3 -8 -1 -20 6 -27 14 -14 47 15 37 32 -10 16 -36 13 -43
-5z"/>
<path d="M3399 2613 c-10 -11 -14 -42 -13 -97 2 -158 21 -213 62 -172 14 14
17 38 17 137 0 108 -2 122 -19 135 -25 18 -31 18 -47 -3z"/>
<path d="M3212 2558 c-25 -25 -1 -88 35 -88 20 0 44 39 41 67 -2 23 -8 29 -33
31 -17 2 -36 -3 -43 -10z"/>
<path d="M3037 2542 c-22 -24 -21 -45 2 -66 26 -24 52 -17 71 17 14 27 14 29
-9 48 -29 24 -43 24 -64 1z"/>
<path d="M998 2495 c-14 -31 1 -130 37 -242 35 -109 57 -143 95 -143 37 0 38
12 6 106 -13 38 -33 111 -45 162 -12 51 -26 104 -31 117 -13 33 -47 33 -62 0z"/>
<path d="M575 2478 c-54 -42 -53 -104 3 -127 67 -28 118 42 78 104 -27 41 -50
48 -81 23z m53 -66 c4 -28 -24 -40 -45 -19 -21 21 -9 49 19 45 15 -2 24 -11
26 -26z"/>
<path d="M3594 2479 c-27 -30 -27 -138 1 -169 l20 -22 22 27 c28 32 32 127 7
163 -19 27 -26 27 -50 1z"/>
<path d="M776 2468 c-23 -33 -20 -74 6 -92 70 -50 147 34 85 92 -30 29 -71 28
-91 0z m72 -40 c-3 -25 -34 -36 -51 -19 -14 14 9 41 35 41 14 0 19 -6 16 -22z"/>
<path d="M3969 2443 c-7 -16 -14 -97 -17 -180 -5 -151 -4 -153 16 -153 43 0
55 41 60 191 3 102 1 143 -8 154 -19 23 -39 18 -51 -12z"/>
<path d="M4315 2429 c-33 -29 -39 -56 -10 -45 21 8 32 -15 37 -76 5 -66 11
-76 33 -58 12 10 15 35 15 111 0 92 -1 99 -20 99 -10 0 -35 -14 -55 -31z"/>
<path d="M1698 2408 c-27 -21 -38 -63 -38 -150 0 -76 3 -87 46 -175 26 -52 54
-124 63 -160 9 -37 21 -68 26 -70 6 -2 20 16 31 39 l21 42 35 -54 c45 -70 65
-89 74 -66 6 16 0 72 -13 125 -5 22 -4 22 18 10 13 -7 41 -26 62 -42 28 -23
40 -28 49 -19 8 8 4 25 -16 65 -31 64 -31 67 -8 67 24 0 64 29 59 43 -2 6 -40
16 -85 23 -91 13 -123 29 -152 77 -29 46 -25 94 10 147 l30 45 -60 28 c-72 35
-128 44 -152 25z m82 -83 c0 -8 -9 -15 -20 -15 -20 0 -26 11 -13 23 12 13 33
7 33 -8z m0 -144 c0 -24 -25 -34 -40 -16 -15 18 -5 35 21 35 12 0 19 -7 19
-19z"/>
<path d="M3216 2388 c-17 -28 -30 -148 -18 -166 5 -8 20 -12 33 -10 18 2 25
13 36 53 19 75 17 122 -6 135 -27 14 -29 13 -45 -12z"/>
<path d="M3017 2333 c-30 -69 -75 -209 -79 -249 -2 -24 1 -30 20 -32 13 -2 30
2 38 9 34 28 86 185 88 264 1 54 -1 60 -20 63 -17 2 -26 -8 -47 -55z"/>
<path d="M4146 2262 c-8 -15 -17 -46 -21 -67 -4 -22 -16 -83 -27 -136 -24
-118 -22 -174 7 -174 28 0 59 68 85 182 22 104 26 193 8 211 -19 19 -36 14
-52 -16z"/>
<path d="M717 2273 c-4 -3 -7 -17 -7 -31 0 -21 -4 -23 -22 -18 -13 4 -38 10
-57 13 l-34 6 6 -38 c4 -21 13 -46 22 -54 14 -14 16 -14 21 7 7 25 19 27 54 7
34 -20 47 -18 60 5 18 34 -21 126 -43 103z"/>
<path d="M877 2243 c-13 -12 -7 -54 9 -60 8 -3 22 1 31 9 12 12 13 20 4 37
-12 21 -31 27 -44 14z"/>
<path d="M3392 2237 c-24 -28 -72 -188 -72 -237 0 -40 27 -51 51 -21 46 57 85
225 59 256 -15 18 -24 19 -38 2z"/>
<path d="M3593 2238 c-31 -39 -44 -153 -21 -176 7 -7 20 -12 31 -12 40 0 64
132 31 178 -17 25 -27 27 -41 10z"/>
<path d="M4296 2154 c-38 -38 -31 -96 15 -120 37 -19 60 -12 82 25 23 39 22
53 -8 85 -27 29 -66 34 -89 10z m67 -48 c3 -8 -1 -22 -8 -33 -13 -17 -15 -17
-31 -1 -9 9 -14 24 -11 32 8 20 43 21 50 2z"/>
<path d="M3140 2125 c-24 -29 20 -85 56 -71 19 7 18 40 -3 58 -31 26 -40 28
-53 13z"/>
<path d="M930 2100 c-13 -25 -5 -40 21 -40 25 0 35 25 19 45 -17 20 -27 19
-40 -5z"/>
<path d="M745 2090 c-3 -6 -3 -20 0 -32 6 -18 4 -20 -16 -14 -13 4 -45 10 -71
13 -53 6 -63 -7 -25 -31 28 -19 145 -49 157 -41 15 10 12 68 -6 93 -16 24 -29
28 -39 12z"/>
<path d="M1185 2036 c-13 -10 -16 -20 -11 -40 10 -41 159 -186 257 -249 140
-92 335 -174 436 -184 44 -5 54 -3 59 12 13 32 -12 50 -118 85 -177 59 -322
145 -483 286 -128 112 -119 106 -140 90z"/>
<path d="M3927 2013 c-14 -25 -38 -157 -33 -178 8 -33 40 -33 62 -1 24 38 41
151 25 170 -14 17 -47 22 -54 9z"/>
<path d="M3534 2000 c-61 -24 -84 -111 -39 -155 51 -52 155 -18 155 50 0 38
-24 79 -57 95 -38 19 -35 19 -59 10z m54 -84 c4 -35 -9 -50 -36 -42 -26 9 -35
32 -21 57 16 31 53 21 57 -15z"/>
<path d="M990 1975 c0 -15 6 -25 14 -25 22 0 30 19 16 35 -18 22 -30 18 -30
-10z"/>
<path d="M2874 1986 c-9 -23 0 -51 16 -51 10 0 15 10 15 29 0 32 -21 47 -31
22z"/>
<path d="M3072 1978 c-26 -29 -52 -78 -52 -100 0 -53 90 -78 131 -37 18 18 20
30 17 70 -8 81 -53 112 -96 67z m56 -75 c3 -22 -22 -48 -38 -38 -14 8 -13 38
2 53 16 16 32 10 36 -15z"/>
<path d="M646 1909 c-28 -22 -26 -39 5 -39 15 0 26 -14 41 -50 23 -55 44 -61
42 -13 -2 35 -39 123 -52 123 -5 0 -21 -9 -36 -21z"/>
<path d="M846 1908 c-19 -26 -13 -38 20 -38 29 0 42 24 24 45 -17 20 -26 19
-44 -7z"/>
<path d="M4263 1898 c-6 -7 -14 -23 -17 -35 -6 -18 -3 -23 12 -23 24 0 45 23
40 46 -4 22 -22 28 -35 12z"/>
<path d="M2755 1884 c-38 -19 -105 -84 -105 -101 0 -7 9 -17 21 -23 40 -22
154 67 147 114 -4 27 -25 30 -63 10z"/>
<path d="M1054 1875 c-8 -21 2 -45 19 -45 20 0 40 27 33 45 -7 19 -45 20 -52
0z"/>
<path d="M3256 1867 c-27 -20 -17 -59 17 -71 50 -18 88 31 52 68 -20 19 -45
21 -69 3z"/>
<path d="M3687 1802 c-24 -27 -77 -148 -77 -177 0 -32 29 -34 58 -2 28 30 84
152 80 174 -4 25 -41 28 -61 5z"/>
<path d="M2886 1788 c-22 -31 -20 -60 5 -92 37 -47 109 -25 109 34 0 31 -47
80 -76 80 -13 0 -30 -10 -38 -22z m74 -55 c0 -17 -21 -17 -45 1 -17 12 -17 16
-6 30 13 15 15 15 32 0 11 -10 19 -23 19 -31z"/>
<path d="M917 1783 c-4 -3 -7 -17 -7 -30 0 -16 6 -23 20 -23 25 0 36 25 20 45
-14 16 -23 19 -33 8z"/>
<path d="M1157 1762 c-15 -15 -27 -38 -27 -49 0 -24 44 -63 71 -63 46 0 67 96
27 124 -31 22 -40 20 -71 -12z m48 -48 c0 -10 -8 -20 -17 -22 -18 -3 -26 27
-11 42 12 11 28 0 28 -20z"/>
<path d="M3404 1761 c-17 -10 -38 -35 -48 -55 -16 -35 -16 -39 -1 -62 22 -34
96 -69 128 -60 32 8 69 67 65 102 -3 28 -55 77 -93 88 -11 3 -33 -2 -51 -13z
m70 -60 c37 -40 -5 -82 -45 -45 -22 20 -24 35 -7 52 17 17 32 15 52 -7z"/>
<path d="M2530 1730 c-23 -43 11 -80 49 -54 29 21 27 52 -5 64 -33 13 -32 13
-44 -10z"/>
<path d="M3141 1721 c-12 -12 -21 -25 -21 -30 0 -17 29 -33 50 -26 24 7 27 46
6 64 -12 10 -19 8 -35 -8z"/>
<path d="M4064 1729 c-31 -11 -64 -58 -64 -89 0 -35 30 -73 75 -94 32 -16 38
-16 69 -1 67 32 72 93 11 151 -38 36 -62 44 -91 33z m63 -83 c24 -21 26 -26
14 -40 -19 -23 -53 -16 -67 13 -25 50 7 67 53 27z"/>
<path d="M3827 1683 c-77 -121 -100 -203 -58 -203 40 0 129 138 134 207 2 24
-2 28 -25 31 -22 3 -31 -4 -51 -35z"/>
<path d="M736 1689 c-18 -14 -26 -30 -26 -53 0 -40 15 -56 55 -56 63 0 100 81
53 114 -30 21 -50 20 -82 -5z m61 -35 c4 -13 -23 -44 -38 -44 -16 0 -22 29 -9
46 14 16 41 15 47 -2z"/>
<path d="M991 1682 c-6 -11 -6 -24 -1 -33 8 -12 12 -12 26 3 17 17 13 48 -5
48 -6 0 -15 -8 -20 -18z"/>
<path d="M2379 1677 c-16 -8 -24 -21 -24 -37 0 -20 6 -26 30 -28 37 -4 71 19
62 41 -10 27 -40 37 -68 24z"/>
<path d="M2735 1666 c-28 -28 -26 -46 5 -46 11 0 29 -13 42 -30 42 -58 64 -30
29 39 -31 60 -46 67 -76 37z"/>
<path d="M1286 1639 c-26 -20 -35 -61 -18 -85 13 -19 50 -34 69 -27 55 19 70
74 30 111 -29 27 -47 28 -81 1z m59 -45 c0 -12 -8 -20 -22 -22 -25 -4 -31 16
-11 36 17 17 33 10 33 -14z"/>
<path d="M2212 1643 c-22 -9 -35 -43 -21 -59 15 -18 53 -18 69 1 10 12 9 20
-4 40 -17 25 -21 27 -44 18z"/>
<path d="M3034 1616 c-10 -26 4 -48 28 -44 17 2 23 10 23 28 0 18 -6 26 -23
28 -13 2 -25 -3 -28 -12z"/>
<path d="M2034 1605 c-14 -35 24 -68 51 -45 19 16 19 25 -1 44 -20 20 -43 20
-50 1z"/>
<path d="M1471 1593 c-6 -12 -6 -25 -1 -34 12 -19 45 1 45 27 0 25 -31 30 -44
7z"/>
<path d="M2536 1565 c-70 -29 -96 -51 -96 -78 0 -18 5 -19 56 -14 31 3 77 16
102 29 40 20 47 27 47 53 0 40 -30 43 -109 10z"/>
<path d="M1054 1569 c-3 -6 1 -18 10 -27 15 -15 17 -15 32 0 19 19 11 38 -16
38 -10 0 -22 -5 -26 -11z"/>
<path d="M3226 1549 c-33 -39 -35 -88 -3 -116 56 -52 105 -56 148 -14 41 41
38 72 -11 121 -52 52 -96 55 -134 9z m97 -52 c19 -25 20 -29 5 -43 -29 -29
-76 14 -62 58 8 25 32 19 57 -15z"/>
<path d="M1608 1535 c-8 -19 -8 -28 2 -40 26 -31 56 -12 46 29 -9 35 -34 41
-48 11z"/>
<path d="M2810 1501 c-58 -26 -141 -60 -185 -76 -132 -46 -172 -69 -154 -91
24 -29 66 -26 176 11 118 40 306 125 318 144 4 7 4 23 1 37 -9 35 -35 31 -156
-25z"/>
<path d="M891 1494 c-52 -43 -33 -114 30 -114 61 0 95 91 47 124 -31 22 -41
20 -77 -10z m56 -40 c8 -21 -10 -36 -36 -32 -20 3 -21 4 -6 26 19 26 33 28 42
6z"/>
<path d="M1388 1489 c-20 -11 -23 -41 -8 -70 7 -13 21 -19 43 -19 40 0 57 15
57 50 0 14 -5 31 -12 38 -15 15 -57 15 -80 1z"/>
<path d="M3908 1483 c-9 -10 -21 -28 -27 -41 -33 -64 97 -150 170 -112 14 8
19 21 19 57 0 39 -5 50 -36 79 -41 39 -100 47 -126 17z m92 -53 c24 -24 25
-43 5 -60 -12 -10 -21 -6 -51 24 -19 19 -33 40 -29 46 10 17 54 11 75 -10z"/>
<path d="M1160 1475 c-16 -19 -3 -72 21 -85 15 -9 24 -6 44 14 14 14 25 34 25
45 0 36 -66 55 -90 26z"/>
<path d="M1744 1475 c-10 -25 4 -47 28 -43 17 2 24 11 26 31 3 23 0 27 -23 27
-14 0 -28 -7 -31 -15z"/>
<path d="M3534 1446 c-42 -42 -45 -82 -8 -125 33 -40 80 -42 122 -6 54 46 50
108 -10 145 -46 28 -65 25 -104 -14z m66 -26 c0 -5 -4 -10 -10 -10 -5 0 -10 5
-10 10 0 6 5 10 10 10 6 0 10 -4 10 -10z m8 -73 c2 -10 -3 -17 -12 -17 -10 0
-16 9 -16 21 0 24 23 21 28 -4z"/>
<path d="M1882 1458 c-34 -34 5 -63 112 -83 104 -20 180 -20 201 1 33 33 -11
53 -160 74 -44 6 -94 13 -110 15 -17 3 -36 0 -43 -7z"/>
<path d="M2284 1419 c-23 -26 -9 -53 30 -57 50 -6 78 46 37 68 -29 15 -46 12
-67 -11z"/>
<path d="M3091 1374 c-26 -33 -26 -49 -1 -74 54 -54 119 15 74 78 -20 29 -48
28 -73 -4z"/>
<path d="M1552 1378 c-31 -31 6 -75 98 -117 54 -25 89 -27 97 -5 8 22 -30 58
-107 98 -78 41 -72 40 -88 24z"/>
<path d="M2916 1329 c-31 -37 -32 -42 -5 -85 29 -47 66 -55 96 -20 31 36 30
77 -3 110 -35 34 -56 33 -88 -5z m64 -28 c14 -28 12 -51 -5 -51 -18 0 -38 37
-31 56 8 20 23 17 36 -5z"/>
<path d="M1306 1324 c-39 -40 -34 -79 12 -103 38 -20 70 -6 81 35 22 80 -37
124 -93 68z m49 -44 c0 -13 -5 -25 -11 -27 -14 -5 -25 22 -17 42 8 23 28 12
28 -15z"/>
<path d="M1039 1311 c-51 -51 -29 -123 38 -123 33 0 73 42 73 78 0 28 -41 74
-65 74 -9 0 -30 -13 -46 -29z m60 -57 c-12 -14 -49 -20 -49 -7 0 3 7 15 17 25
12 14 19 15 30 7 10 -9 10 -15 2 -25z"/>
<path d="M2320 1306 c-18 -22 -5 -48 22 -44 17 2 23 10 23 28 0 29 -26 38 -45
16z"/>
<path d="M3395 1303 c-38 -20 -128 -91 -138 -108 -8 -15 17 -45 36 -45 24 0
114 59 145 95 56 64 31 98 -43 58z"/>
<path d="M1822 1287 c-46 -49 -10 -129 51 -113 40 10 64 95 35 124 -19 19 -63
14 -86 -11z m58 -36 c0 -26 -27 -48 -42 -33 -9 9 -7 17 7 32 23 25 35 26 35 1z"/>
<path d="M3755 1285 c-39 -38 -35 -94 10 -134 20 -17 46 -31 59 -31 34 0 76
37 76 67 0 49 -63 123 -105 123 -9 0 -27 -11 -40 -25z m69 -50 c21 -21 30 -55
18 -67 -15 -15 -38 -4 -58 27 -13 20 -14 28 -4 40 16 19 25 19 44 0z"/>
<path d="M2761 1274 c-12 -15 -21 -36 -21 -48 0 -25 48 -76 71 -76 59 0 82 90
33 129 -36 28 -58 26 -83 -5z m67 -52 c3 -27 0 -32 -17 -32 -17 0 -21 6 -21
36 0 28 3 35 18 32 11 -2 18 -14 20 -36z"/>
<path d="M1994 1256 c-16 -13 -17 -18 -6 -35 6 -12 12 -36 12 -55 0 -19 4 -37
10 -41 13 -8 40 48 40 84 0 59 -18 75 -56 47z"/>
<path d="M2134 1227 c-32 -28 -37 -76 -9 -107 29 -32 54 -35 81 -9 33 31 32
82 -1 114 -30 31 -37 31 -71 2z m51 -63 c0 -19 -5 -29 -15 -29 -16 0 -25 28
-16 51 10 25 31 10 31 -22z"/>
<path d="M1473 1230 c-46 -18 -16 -118 30 -104 33 10 57 35 57 59 0 37 -46 61
-87 45z"/>
<path d="M2622 1218 c-10 -10 -48 -12 -139 -10 -129 2 -187 -7 -197 -33 -3 -8
2 -21 10 -30 21 -20 173 -20 240 0 68 20 69 20 89 -25 10 -22 22 -40 26 -40
14 0 22 68 12 106 -9 41 -22 51 -41 32z"/>
<path d="M3546 1159 c-32 -25 -33 -55 -3 -100 18 -26 31 -35 59 -37 45 -4 68
18 68 63 0 47 -8 64 -41 80 -37 20 -51 19 -83 -6z m66 -36 c21 -19 24 -63 5
-63 -21 0 -37 22 -37 52 0 32 6 35 32 11z"/>
<path d="M2988 1130 c-32 -34 -38 -48 -38 -83 0 -39 19 -82 44 -99 6 -4 36 -8
67 -8 67 0 103 23 118 76 16 59 -7 106 -64 134 -61 29 -83 26 -127 -20z m97
-70 c7 -22 0 -40 -16 -40 -11 0 -29 41 -22 53 8 14 32 7 38 -13z"/>
<path d="M1218 1144 c-51 -27 -50 -103 1 -124 36 -14 64 -7 83 23 28 43 28 56
2 87 -29 33 -46 36 -86 14z m50 -61 c-4 -34 -48 -48 -48 -16 0 22 18 43 38 43
9 0 12 -9 10 -27z"/>
<path d="M1692 1107 c-29 -31 -29 -77 1 -105 29 -27 51 -28 77 -2 28 28 26 81
-3 108 -30 28 -48 28 -75 -1z"/>
<path d="M1416 1029 c-57 -45 -57 -87 1 -114 42 -20 73 -9 92 32 16 34 14 47
-10 77 -25 31 -47 33 -83 5z m60 -44 c7 -18 -13 -45 -33 -45 -17 0 -27 24 -19
45 7 20 45 19 52 0z"/>
<path d="M1870 1020 c-15 -28 8 -55 59 -70 91 -27 270 -51 411 -57 163 -6 216
1 234 31 18 28 -16 44 -107 50 -329 23 -403 31 -554 62 -26 5 -33 2 -43 -16z"/>
<path d="M3391 1021 c-27 -27 -27 -51 -1 -51 13 0 28 -13 41 -34 46 -79 70
-29 25 54 -28 53 -38 58 -65 31z"/>
<path d="M2735 1016 c-63 -15 -75 -22 -75 -46 0 -42 100 -55 158 -20 38 23 41
43 10 64 -26 18 -26 18 -93 2z"/>
<path d="M3196 924 c-29 -28 -17 -123 18 -146 40 -27 106 18 106 72 0 63 -85
114 -124 74z m63 -38 c15 -18 10 -68 -7 -74 -14 -4 -42 55 -35 75 7 17 28 17
42 -1z"/>
<path d="M1593 914 c-3 -10 4 -25 20 -40 23 -21 24 -26 14 -59 -20 -67 16 -56
48 15 17 38 17 41 1 59 -10 11 -31 24 -47 30 -24 8 -31 7 -36 -5z"/>
<path d="M1827 879 c-23 -14 -47 -62 -47 -97 0 -42 35 -82 70 -82 39 0 65 40
65 98 0 36 -5 48 -28 68 -31 27 -35 28 -60 13z m39 -91 c-9 -35 -22 -51 -35
-44 -15 10 -14 69 1 84 18 18 42 -10 34 -40z"/>
<path d="M2983 855 c-48 -34 -33 -142 22 -167 59 -26 106 41 85 121 -15 56
-63 77 -107 46z m65 -57 c15 -31 6 -58 -19 -58 -26 0 -39 28 -27 62 12 34 28
32 46 -4z"/>
<path d="M2050 827 c-45 -23 -61 -82 -39 -146 21 -61 73 -64 109 -7 47 77 -3
186 -70 153z m48 -70 c6 -29 -6 -64 -23 -71 -24 -9 -41 37 -26 70 13 29 44 29
49 1z"/>
<path d="M2764 830 c-57 -23 -80 -100 -49 -160 30 -58 82 -66 126 -19 34 37
39 94 12 139 -13 22 -54 53 -66 49 -1 0 -12 -4 -23 -9z m44 -62 c17 -17 15
-77 -3 -84 -23 -9 -45 15 -45 51 0 45 21 60 48 33z"/>
<path d="M2265 777 c-20 -17 -28 -35 -32 -70 -7 -62 14 -97 60 -97 74 0 104
96 51 159 -31 37 -44 38 -79 8z m53 -72 c2 -17 -4 -39 -12 -50 -14 -20 -15
-19 -25 8 -6 16 -8 40 -5 53 9 35 38 27 42 -11z"/>
<path d="M2489 771 c-57 -58 -27 -161 47 -161 49 0 74 29 74 86 0 37 -5 51
-29 75 -37 37 -55 37 -92 0z m69 -54 c10 -20 10 -32 2 -47 -26 -48 -75 5 -51
56 14 31 31 27 49 -9z"/>
</g>
</svg>
