<?xml version="1.0" standalone="no"?>
<!DOCTYPE svg PUBLIC "-//W3C//DTD SVG 20010904//EN"
 "http://www.w3.org/TR/2001/REC-SVG-20010904/DTD/svg10.dtd">
<svg version="1.0" xmlns="http://www.w3.org/2000/svg"
 width="500.000000pt" height="500.000000pt" viewBox="0 0 500.000000 500.000000"
 preserveAspectRatio="xMidYMid meet">

<g transform="translate(0.000000,500.000000) scale(0.100000,-0.100000)"
fill="#000000" stroke="none">
<path d="M2488 3155 c-1 -564 -2 -1053 -3 -1087 l0 -63 58 -3 57 -3 0 1091 0
1090 -55 0 -55 0 -2 -1025z"/>
<path d="M2250 3030 l0 -1030 54 0 53 0 5 258 c5 266 5 787 1 1430 l-3 372
-55 0 -55 0 0 -1030z"/>
<path d="M2730 3771 l0 -290 41 -11 c22 -6 47 -14 55 -17 13 -5 14 35 12 298
l-3 304 -52 3 -53 3 0 -290z"/>
<path d="M2050 3859 c-380 -133 -709 -456 -863 -849 -29 -74 -77 -299 -77
-360 l0 -40 230 0 229 0 6 38 c29 193 112 374 238 522 49 58 194 176 258 210
l59 31 0 235 c0 181 -3 234 -12 233 -7 0 -38 -9 -68 -20z m-252 -415 c28 -19
28 -58 1 -85 -36 -36 -99 -6 -99 47 0 24 34 54 60 54 9 0 26 -7 38 -16z m-316
-381 c10 -9 18 -27 18 -40 0 -28 -33 -63 -60 -63 -11 0 -29 9 -40 20 -55 55
24 135 82 83z m-70 -240 c38 -34 15 -93 -36 -93 -38 0 -58 19 -58 55 0 51 55
74 94 38z"/>
<path d="M2960 3643 l0 -238 53 -28 c120 -63 272 -205 362 -341 63 -96 135
-306 135 -397 l0 -29 236 0 237 0 -7 77 c-13 165 -104 423 -201 573 -156 243
-311 386 -565 523 -72 39 -217 97 -242 97 -5 0 -8 -107 -8 -237z m220 -61 c25
-20 30 -63 10 -87 -19 -23 -76 -19 -94 7 -22 31 -20 45 9 73 29 30 45 31 75 7z
m202 -139 c38 -34 11 -96 -43 -96 -53 0 -78 56 -42 95 20 22 61 23 85 1z m170
-180 c22 -20 23 -42 2 -71 -30 -44 -106 -20 -106 33 0 50 65 74 104 38z m138
-203 c11 -11 20 -29 20 -40 0 -24 -34 -60 -55 -60 -20 0 -65 45 -65 65 0 21
36 55 60 55 11 0 29 -9 40 -20z m72 -237 c37 -33 8 -93 -46 -93 -40 0 -56 15
-56 55 0 17 5 36 12 43 17 17 68 15 90 -5z"/>
<path d="M2729 3148 c-1 -57 -3 -338 -4 -625 l-3 -523 59 0 59 0 0 625 0 625
-55 0 -55 0 -1 -102z"/>
<path d="M2010 3135 l0 -85 60 0 60 0 0 85 0 85 -60 0 -60 0 0 -85z"/>
<path d="M2960 2585 l0 -585 478 0 479 0 15 55 15 55 -438 0 -439 0 0 530 0
530 -55 0 -55 0 0 -585z"/>
<path d="M3190 2595 l0 -365 389 0 389 0 6 23 c3 12 6 37 6 55 l0 32 -340 0
-340 0 0 310 0 310 -55 0 -55 0 0 -365z"/>
<path d="M1790 2610 l0 -270 -341 0 -340 0 3 -52 3 -53 393 -3 392 -2 0 325 0
325 -55 0 -55 0 0 -270z"/>
<path d="M2015 2427 l0 -422 58 -3 57 -3 0 426 0 425 -57 0 -58 0 0 -423z"/>
<path d="M1100 2470 l0 -50 285 0 285 0 0 50 0 50 -285 0 -285 0 0 -50z"/>
<path d="M3410 2470 l0 -50 290 0 290 0 0 50 0 50 -290 0 -290 0 0 -50z"/>
<path d="M1144 2093 c3 -10 8 -35 12 -55 l6 -38 369 0 369 0 0 55 0 55 -381 0
c-358 0 -380 -1 -375 -17z"/>
<path d="M1220 1885 c0 -3 11 -28 25 -55 l25 -50 145 0 c87 0 154 5 169 11 58
27 106 -61 58 -104 -20 -19 -67 -23 -77 -7 -4 6 -55 10 -120 10 l-114 0 21
-36 21 -35 284 2 c304 2 303 3 303 -46 0 -49 -1 -49 -272 -46 l-253 2 65 -66
c134 -138 338 -269 525 -338 200 -74 368 -101 580 -94 180 6 300 30 470 92
177 65 369 191 510 335 l70 72 -273 -4 c-261 -2 -275 -2 -288 17 -18 24 -18
36 0 60 12 17 33 18 320 19 l307 1 21 33 21 33 -119 -5 c-66 -3 -137 -6 -158
-8 -34 -3 -42 1 -55 23 -31 56 15 110 77 88 15 -5 93 -8 172 -7 l144 3 23 53
23 52 -1325 0 c-729 0 -1325 -2 -1325 -5z m2085 -87 c30 -36 28 -68 -7 -105
-22 -24 -81 -32 -93 -13 -9 14 -1337 14 -1352 -1 -19 -19 -66 -6 -82 22 -29
52 19 110 74 88 11 -4 313 -8 672 -8 l652 -1 25 25 c36 36 77 33 111 -7z
m-1125 -219 c0 -5 142 -9 333 -9 283 0 339 2 365 16 68 33 135 -25 111 -96 -6
-17 -19 -35 -29 -40 -28 -15 -76 -12 -90 5 -11 13 -63 15 -356 15 -218 0 -345
-4 -349 -10 -3 -5 -19 -10 -34 -10 -85 0 -114 113 -38 145 32 13 87 3 87 -16z
m-226 -169 c37 -36 20 -101 -32 -121 -34 -13 -90 13 -98 45 -20 83 70 135 130
76z m1354 -16 c12 -14 22 -36 22 -49 0 -13 -10 -36 -22 -50 l-23 -26 -425 -2
c-234 -2 -437 -7 -452 -11 -48 -15 -92 61 -54 93 11 9 118 12 411 11 l396 -1
34 37 c29 30 39 35 62 30 16 -4 38 -18 51 -32z m-1085 -61 c43 -40 5 -133 -55
-133 -34 0 -78 39 -78 69 0 75 78 113 133 64z m384 -135 c13 -12 23 -33 23
-48 0 -34 -34 -70 -66 -70 -30 0 -74 41 -74 70 0 28 43 70 71 70 13 0 33 -10
46 -22z"/>
</g>
</svg>
