<?xml version="1.0" standalone="no"?>
<!DOCTYPE svg PUBLIC "-//W3C//DTD SVG 20010904//EN"
 "http://www.w3.org/TR/2001/REC-SVG-20010904/DTD/svg10.dtd">
<svg version="1.0" xmlns="http://www.w3.org/2000/svg"
 width="1024.000000pt" height="1024.000000pt" viewBox="0 0 1024.000000 1024.000000"
 preserveAspectRatio="xMidYMid meet">

<g transform="translate(0.000000,1024.000000) scale(0.100000,-0.100000)"
fill="#000000" stroke="none">
<path d="M4730 7540 c-378 -55 -685 -193 -990 -447 -217 -180 -438 -475 -548
-729 l-39 -91 161 -6 c231 -9 377 -36 597 -113 387 -133 807 -427 1224 -855
72 -74 137 -149 144 -166 38 -92 -51 -190 -151 -167 -24 5 -78 51 -203 173
-193 189 -277 264 -423 380 -298 235 -640 410 -912 465 -416 84 -818 -10
-1165 -272 -353 -267 -593 -627 -676 -1010 -26 -123 -37 -411 -20 -533 21
-150 72 -312 142 -451 181 -362 469 -612 850 -739 222 -74 36 -69 2422 -69
l2152 0 94 25 c354 95 603 255 817 523 139 176 253 429 300 668 27 135 24 406
-5 542 -43 205 -107 366 -210 532 -119 191 -309 380 -480 478 -54 30 -54 31
-78 114 -98 339 -370 656 -669 777 -127 52 -198 65 -351 67 l-143 2 -49 74
c-71 106 -226 281 -325 367 -287 250 -578 391 -939 456 -163 30 -343 31 -527
5z m336 -1303 c168 -111 277 -193 404 -303 118 -102 331 -318 359 -365 59 -96
-19 -213 -131 -194 -34 6 -56 24 -151 122 -218 225 -389 367 -649 541 -113 76
-138 106 -138 164 0 45 19 78 59 105 62 42 91 34 247 -70z m1825 -270 c44 -29
73 -87 65 -130 -4 -19 -35 -67 -77 -117 -39 -47 -121 -146 -182 -220 -356
-430 -758 -819 -1090 -1053 -383 -271 -716 -418 -1134 -498 -156 -31 -497 -38
-660 -15 -294 42 -545 128 -778 267 -235 140 -528 387 -541 455 -9 49 2 82 41
121 28 28 40 33 83 33 55 0 59 -2 182 -109 271 -234 552 -393 816 -461 187
-49 275 -60 463 -60 344 0 617 65 949 225 482 233 977 676 1622 1450 45 55 95
108 109 117 36 25 91 23 132 -5z m459 -462 c46 -24 70 -62 70 -112 0 -56 -4
-64 -109 -192 -160 -197 -295 -326 -448 -429 -83 -56 -252 -145 -338 -177 -68
-26 -308 -95 -329 -95 -5 0 33 29 85 64 250 170 573 482 826 796 59 74 119
140 133 147 33 17 75 16 110 -2z m-4436 -46 c14 -7 76 -75 138 -153 307 -384
606 -622 971 -772 79 -32 80 -34 42 -34 -67 0 -244 29 -344 55 -227 61 -452
183 -646 350 -66 57 -221 233 -289 328 -35 49 -46 74 -46 101 0 96 92 162 174
125z m912 -11 c16 -12 72 -61 124 -108 208 -189 372 -313 564 -425 96 -56 302
-158 395 -195 l46 -18 -50 -22 c-27 -12 -100 -37 -161 -55 l-112 -34 -53 20
c-238 90 -527 280 -798 526 -149 135 -169 166 -151 231 6 21 16 44 23 52 42
54 123 66 173 28z m3945 -383 c41 -22 69 -71 69 -123 0 -41 -5 -48 -119 -170
-298 -319 -482 -465 -775 -618 -271 -141 -527 -218 -876 -266 -124 -16 -550
-14 -640 4 l-65 13 65 34 c36 19 121 69 190 111 l125 77 145 6 c435 18 886
179 1226 436 102 77 313 272 412 380 48 52 101 103 117 113 37 22 86 23 126 3z
m57 -731 c48 -34 67 -116 38 -172 -23 -45 -287 -283 -401 -363 -492 -342
-1115 -440 -1667 -263 -60 19 -108 36 -108 38 0 2 40 1 88 -2 141 -8 512 23
692 58 234 45 545 169 726 290 118 79 253 189 386 316 l119 114 52 0 c31 0 62
-6 75 -16z m-4948 -416 c185 -114 497 -232 734 -278 215 -41 501 -55 736 -36
74 6 75 6 40 -9 -81 -37 -253 -87 -360 -106 -390 -67 -749 -12 -1119 174 -176
88 -201 109 -201 169 0 24 7 54 16 66 32 46 99 54 154 20z"/>
</g>
</svg>
