<?xml version="1.0" standalone="no"?>
<!DOCTYPE svg PUBLIC "-//W3C//DTD SVG 20010904//EN"
 "http://www.w3.org/TR/2001/REC-SVG-20010904/DTD/svg10.dtd">
<svg version="1.0" xmlns="http://www.w3.org/2000/svg"
 width="500.000000pt" height="500.000000pt" viewBox="0 0 500.000000 500.000000"
 preserveAspectRatio="xMidYMid meet">

<g transform="translate(0.000000,500.000000) scale(0.100000,-0.100000)"
fill="#000000" stroke="none">
<path d="M2157 4354 c-369 -54 -706 -204 -985 -439 -191 -160 -324 -325 -446
-551 -115 -214 -141 -284 -197 -534 -22 -96 -24 -128 -24 -365 l0 -260 39
-154 c124 -494 427 -911 867 -1194 210 -135 470 -232 753 -282 115 -20 397
-20 528 0 130 19 279 57 418 106 337 119 698 399 894 693 154 233 240 440 302
731 38 178 44 418 15 620 -43 294 -101 468 -230 682 -141 234 -235 347 -425
510 -251 215 -631 386 -976 438 -120 19 -401 18 -533 -1z m360 -219 c28 -19
67 -99 59 -121 -3 -9 11 -32 34 -58 41 -44 47 -60 30 -86 -8 -12 -17 -7 -53
28 l-44 43 -37 -22 c-42 -25 -95 -22 -128 7 -18 17 -20 16 -61 -24 -34 -33
-46 -39 -55 -30 -20 20 -14 42 23 78 30 29 35 40 35 81 0 101 111 160 197 104z
m231 -82 c-3 -30 -25 -42 -34 -19 -9 22 2 46 21 46 12 0 15 -8 13 -27z m480
-99 l31 -31 -30 -29 c-17 -16 -38 -42 -46 -58 l-15 -30 -13 31 c-7 17 -29 43
-49 58 l-36 27 53 57 52 57 11 -25 c7 -14 26 -40 42 -57z m-1100 54 c-3 -22
-8 -23 -102 -26 -87 -2 -98 -1 -92 13 3 9 6 21 6 26 0 5 43 9 96 9 93 0 95 -1
92 -22z m-360 -24 c50 -35 44 -101 -10 -127 -37 -18 -62 -12 -88 21 -27 34
-25 59 9 93 33 33 56 36 89 13z m1155 -34 c45 -36 44 -94 -4 -139 -35 -32 -85
-28 -120 10 -16 17 -29 42 -29 56 0 29 25 79 42 86 31 13 87 6 111 -13z m-775
-113 c3 -23 0 -27 -22 -27 -21 0 -26 5 -26 23 0 13 3 27 7 31 15 14 38 0 41
-27z m-652 -32 c76 -58 84 -157 17 -227 -56 -59 -145 -62 -208 -6 -86 75 -63
192 50 253 39 21 99 12 141 -20z m1504 -86 c0 -18 -5 -29 -14 -29 -19 0 -28
28 -15 51 14 26 29 15 29 -22z m120 5 c0 -20 -4 -25 -22 -22 -28 4 -33 21 -13
42 21 20 35 12 35 -20z m263 14 c14 -21 2 -48 -22 -48 -22 0 -33 30 -19 54 11
19 27 17 41 -6z m145 -22 c-2 -23 -8 -31 -22 -31 -26 0 -40 40 -20 59 23 24
46 9 42 -28z m-1668 9 c0 -18 -5 -25 -20 -25 -20 0 -28 28 -13 43 15 16 33 6
33 -18z m98 3 c-2 -13 -10 -23 -18 -23 -8 0 -16 10 -18 23 -3 17 2 22 18 22
16 0 21 -5 18 -22z m-238 -63 c0 -25 -23 -35 -35 -15 -10 16 2 40 20 40 9 0
15 -9 15 -25z m976 -10 c283 -68 562 -250 712 -465 57 -80 63 -99 32 -101 -11
-1 -24 -2 -29 -3 -4 -1 -43 40 -85 90 -89 106 -240 232 -259 216 -11 -9 -101
-49 -164 -73 l-22 -8 37 -78 c20 -43 48 -118 63 -168 28 -99 36 -104 93 -63
32 23 46 14 46 -34 0 -23 -6 -29 -42 -39 -24 -7 -46 -15 -50 -18 -4 -3 2 -49
13 -101 11 -52 24 -157 29 -234 5 -76 11 -140 12 -141 2 -2 75 -1 164 2 l161
6 1 38 2 39 -105 0 -105 0 0 44 c0 70 -35 305 -57 380 -4 16 -1 18 21 14 18
-4 26 -1 26 9 0 12 4 12 22 -1 13 -9 43 -16 70 -16 l49 0 -16 30 c-21 40 -19
47 14 65 l30 15 13 -48 c13 -46 14 -47 57 -50 46 -3 45 -6 25 44 -3 7 9 11 33
10 36 -1 39 -3 60 -57 12 -30 28 -76 35 -102 11 -41 10 -48 -6 -66 -23 -25
-32 -20 -41 22 -4 17 -14 45 -22 60 -13 27 -17 28 -56 22 -23 -4 -43 -8 -44
-9 -1 0 9 -44 22 -97 13 -53 26 -132 29 -175 4 -43 9 -101 12 -129 l5 -50 299
3 300 3 0 -36 0 -35 -299 0 -298 0 -7 -31 c-3 -17 -6 -49 -6 -70 0 -37 2 -39
25 -33 21 5 25 3 25 -14 0 -11 3 -27 6 -36 5 -13 -1 -16 -29 -16 -35 0 -36 -1
-42 -47 -12 -82 -64 -281 -90 -338 -13 -30 -21 -55 -17 -55 23 0 160 245 189
338 16 50 18 52 50 50 18 -1 33 -7 33 -13 0 -27 -53 -164 -91 -234 -120 -223
-297 -409 -501 -524 -162 -92 -385 -149 -578 -148 -304 1 -594 111 -838 319
-93 80 -206 230 -277 372 -32 64 -34 70 -16 70 11 0 23 5 26 10 12 19 25 10
46 -32 34 -68 123 -208 132 -208 5 0 42 16 83 35 40 19 79 35 85 35 7 0 9 9 6
23 -47 212 -59 281 -70 400 -12 138 -13 141 -37 147 -20 5 -25 12 -25 35 0 25
4 30 25 30 22 0 25 5 28 43 l3 42 -36 0 c-34 0 -36 2 -33 28 2 22 9 28 38 32
32 5 35 8 38 40 1 19 12 88 23 154 11 65 18 120 17 122 -2 1 -31 0 -66 -3
l-62 -6 -11 -41 c-21 -78 -39 -171 -39 -206 -1 -63 -8 -77 -41 -72 -22 3 -29
10 -29 26 0 21 44 242 56 284 6 21 3 22 -44 22 -42 0 -52 -3 -57 -21 -6 -17
-12 -19 -38 -13 -18 3 -33 8 -35 9 -7 7 70 172 103 222 19 29 35 54 35 55 0 2
-155 2 -344 0 l-343 -3 -7 23 c-13 52 -32 49 364 47 l370 -2 108 104 c123 120
208 180 354 248 184 87 281 108 498 110 133 1 169 -3 256 -24z m971 -67 c29
-27 29 -37 -2 -67 l-26 -24 -28 29 -28 28 26 28 c14 15 28 27 30 28 3 0 15
-10 28 -22z m-289 -15 c3 -21 -1 -23 -36 -23 -22 0 -60 -3 -85 -6 -38 -5 -48
-4 -53 10 -15 39 2 47 88 44 77 -3 83 -5 86 -25z m-2270 -6 c4 -20 -25 -34
-40 -19 -15 15 -1 44 19 40 10 -2 19 -11 21 -21z m2 -182 l0 -25 -105 0 -105
0 0 25 0 25 105 0 105 0 0 -25z m138 -2 c3 -19 -1 -23 -22 -23 -21 0 -26 5
-26 26 0 21 4 25 23 22 14 -2 23 -11 25 -25z m242 2 c0 -25 -1 -25 -80 -25
-71 0 -80 2 -80 18 0 29 8 32 87 32 71 0 73 -1 73 -25z m2020 0 c0 -18 -5 -25
-20 -25 -20 0 -28 28 -13 43 15 16 33 6 33 -18z m310 -4 c34 -24 60 -79 53
-114 -7 -34 -55 -84 -86 -89 -71 -11 -147 43 -147 105 0 68 71 134 130 121 14
-3 36 -13 50 -23z m-739 -146 c32 -72 36 -106 14 -125 -9 -7 -17 -11 -18 -9
-8 12 -67 155 -67 163 0 8 29 35 38 36 2 0 16 -29 33 -65z m913 9 c8 -21 -1
-34 -25 -34 -22 0 -23 4 -9 31 13 23 26 24 34 3z m-385 -132 c64 -107 88 -169
75 -190 -21 -32 -33 -21 -73 63 -22 47 -61 117 -86 154 -25 38 -45 72 -45 76
0 4 8 14 18 21 15 12 20 10 39 -13 12 -15 44 -65 72 -111z m196 -72 c-8 -12
-45 1 -45 16 0 7 8 17 18 23 13 7 19 5 25 -11 4 -11 5 -24 2 -28z m161 -267
c-3 -7 -14 -13 -25 -13 -17 0 -19 10 -23 128 -4 125 -4 127 21 154 l26 26 3
-141 c1 -78 0 -147 -2 -154z m-3106 252 c0 -29 -34 -36 -44 -9 -8 21 1 34 25
34 14 0 19 -7 19 -25z m380 -10 c0 -25 0 -25 -95 -25 -95 0 -95 0 -95 25 0 25
0 25 95 25 95 0 95 0 95 -25z m2588 -162 c-3 -82 -4 -86 -25 -88 -22 -2 -23 2
-23 73 0 60 4 78 18 88 9 7 21 14 25 14 4 0 6 -39 5 -87z m-2698 47 l0 -30
-165 0 -165 0 0 25 0 24 128 4 c70 1 144 4 165 5 35 2 37 0 37 -28z m-390 14
c0 -3 -5 -14 -10 -25 -13 -24 -55 -27 -46 -3 3 9 6 20 6 25 0 5 11 9 25 9 14
0 25 -3 25 -6z m3340 -119 c0 -18 -5 -25 -20 -25 -35 0 -24 45 13 49 4 1 7
-10 7 -24z m-3010 -105 l0 -100 -25 0 -25 0 0 100 0 100 25 0 25 0 0 -100z
m256 61 c-3 -14 -11 -61 -18 -103 l-12 -78 -33 0 c-38 0 -37 -3 -19 101 18
100 28 118 62 111 22 -4 25 -9 20 -31z m-586 -80 c0 -23 -14 -41 -30 -41 -23
0 -32 13 -24 34 6 17 54 23 54 7z m190 -10 c0 -14 -10 -21 -36 -25 -51 -10
-94 1 -94 25 0 17 8 19 65 19 57 0 65 -2 65 -19z m2753 2 c14 -14 41 -19 111
-21 82 -3 93 -2 110 17 27 30 70 27 95 -5 12 -15 21 -34 21 -44 0 -10 -9 -29
-21 -44 -26 -33 -68 -34 -98 -2 -20 21 -31 24 -104 24 -72 0 -85 -3 -110 -24
-43 -36 -78 -30 -102 17 -20 38 -19 46 10 74 28 29 61 32 88 8z m-2735 -255
c-2 -28 -8 -34 -30 -36 -26 -3 -28 -1 -28 32 0 33 2 36 31 36 28 0 30 -2 27
-32z m530 -75 l3 -103 33 0 c28 0 34 -4 38 -25 3 -14 3 -27 -1 -29 -3 -2 -59
-3 -123 -2 -125 1 -127 0 -108 -48 9 -24 14 -25 92 -28 l83 -3 38 -117 38
-117 -21 -21 c-12 -12 -24 -20 -26 -17 -8 8 -62 156 -69 188 l-7 29 -167 0
c-155 0 -169 -2 -186 -20 -22 -24 -62 -26 -93 -4 -18 12 -22 24 -20 52 2 31 9
40 40 57 36 19 37 19 58 0 16 -15 40 -21 96 -23 l74 -4 0 36 0 36 -75 0 -75 0
0 30 0 30 65 0 65 0 0 48 c0 91 0 91 -103 94 -79 3 -92 5 -95 21 -9 47 -6 48
225 45 l218 -3 3 -102z m-748 -97 c0 -20 -16 -36 -36 -36 -2 0 -4 14 -4 30 0
23 4 30 20 30 14 0 20 -7 20 -24z m120 -1 c0 -18 -5 -25 -20 -25 -15 0 -20 7
-20 25 0 18 5 25 20 25 15 0 20 -7 20 -25z m110 0 c0 -18 -5 -25 -20 -25 -15
0 -20 7 -20 25 0 18 5 25 20 25 15 0 20 -7 20 -25z m2928 -2 c35 -30 38 -68 8
-97 -14 -15 -35 -26 -47 -26 -31 0 -69 38 -69 69 0 31 8 44 35 59 28 16 50 15
73 -5z m227 -48 c0 -14 -6 -19 -20 -17 -26 5 -29 8 -21 27 8 23 41 14 41 -10z
m-347 -229 c2 -10 -1 -23 -7 -29 -15 -15 -46 16 -37 38 8 21 40 15 44 -9z
m112 -2 c0 -33 -33 -30 -38 4 -3 17 2 22 17 22 16 0 21 -6 21 -26z m155 -32
c-3 -3 -15 4 -27 16 l-22 21 25 9 c21 8 24 6 27 -15 2 -14 1 -28 -3 -31z
m-3147 18 c28 -37 28 -38 -4 -71 l-27 -28 -27 37 -28 37 26 28 c14 15 29 27
32 27 3 0 16 -13 28 -30z m309 4 c6 -16 -12 -34 -34 -34 -14 0 -18 32 -6 43
12 12 34 7 40 -9z m-152 -493 l-25 -26 0 202 c0 198 0 202 23 218 l22 15 3
-192 2 -192 -25 -25z m3015 349 l0 -30 -220 0 c-187 0 -222 2 -226 15 -4 8 -4
22 0 30 4 13 39 15 226 15 l220 0 0 -30z m-2850 -88 c0 -96 -1 -99 -25 -110
l-25 -12 0 110 0 110 25 0 c25 0 25 0 25 -98z m-285 27 c8 -25 -3 -39 -15 -19
-7 10 -10 11 -10 3 0 -7 -4 -13 -10 -13 -11 0 -14 33 -3 43 13 14 32 7 38 -14z
m488 -120 c22 -33 61 -84 89 -114 50 -55 50 -56 32 -78 -10 -12 -20 -24 -21
-25 -6 -12 -137 153 -180 227 l-26 43 24 19 c21 17 25 17 34 3 6 -9 27 -42 48
-75z m2307 26 c0 -24 -2 -25 -65 -25 -56 0 -65 2 -65 18 0 28 8 32 72 32 55 0
58 -1 58 -25z m210 0 c0 -24 -3 -25 -60 -25 -57 0 -60 1 -60 25 0 24 3 25 60
25 57 0 60 -1 60 -25z m-340 -189 c0 -21 -6 -25 -49 -31 -27 -4 -70 -3 -95 0
l-47 7 -69 -75 c-81 -87 -173 -158 -284 -218 l-79 -42 -19 22 c-10 13 -18 26
-18 30 0 4 36 24 81 46 103 49 185 112 274 208 l70 75 118 1 117 1 0 -24z
m270 -1 c0 -20 -5 -25 -25 -25 -18 0 -25 5 -25 18 0 24 8 32 32 32 13 0 18 -7
18 -25z m-2561 1 c80 -42 80 -153 1 -200 -37 -21 -68 -20 -104 3 -38 25 -55
57 -56 101 0 44 23 78 64 96 40 17 61 17 95 0z m2451 -6 c0 -16 -7 -20 -30
-20 -23 0 -30 4 -30 20 0 16 7 20 30 20 23 0 30 -4 30 -20z m-236 -197 l26
-21 -63 -64 -63 -64 -27 39 c-15 21 -43 47 -62 58 -19 12 -35 23 -35 24 0 2
25 27 55 56 30 28 57 60 60 70 5 16 12 12 45 -30 21 -26 50 -57 64 -68z
m-1801 27 c6 0 2 -10 -10 -21 l-21 -21 -33 23 c-19 13 -36 25 -38 26 -2 2 4
12 14 23 18 19 18 19 47 -5 16 -14 35 -25 41 -25z m1981 41 c10 -16 -5 -41
-25 -41 -21 0 -25 20 -7 38 14 14 25 15 32 3z m-2173 -130 c45 -45 36 -97 -22
-126 -25 -13 -34 -14 -56 -3 -63 30 -68 103 -10 138 43 26 53 25 88 -9z m249
-56 c13 -12 49 -15 178 -15 l162 0 0 -30 0 -30 -161 0 c-147 0 -162 -2 -177
-20 -27 -30 -64 -34 -95 -10 -54 43 -18 139 47 126 16 -4 37 -13 46 -21z m761
-96 c90 -63 67 -225 -37 -259 -116 -39 -235 92 -180 198 44 85 144 112 217 61z
m529 -48 c5 -11 10 -29 10 -40 0 -17 -6 -21 -30 -21 -27 0 -30 3 -30 33 0 19
3 37 7 40 12 13 32 7 43 -12z m-230 -26 c0 -31 -3 -35 -25 -35 -22 0 -25 4
-25 35 0 31 3 35 25 35 22 0 25 -4 25 -35z m370 -1 c0 -31 -3 -35 -22 -32 -39
5 -37 68 2 68 16 0 20 -6 20 -36z m-1072 -46 c-3 -22 -7 -23 -135 -26 l-133
-3 0 26 0 25 136 0 c135 0 135 0 132 -22z"/>
<path d="M2395 4080 c-53 -59 24 -165 86 -117 21 16 39 51 39 75 0 52 -89 82
-125 42z"/>
<path d="M3154 3936 c-7 -19 3 -36 22 -36 10 0 14 8 12 22 -4 26 -26 36 -34
14z"/>
<path d="M1704 3936 c-8 -32 2 -46 32 -46 18 0 24 5 24 23 0 46 -45 64 -56 23z"/>
<path d="M1351 3751 c-31 -31 -36 -65 -14 -108 16 -34 22 -38 61 -41 36 -3 47
1 72 27 56 56 26 127 -58 138 -32 4 -44 1 -61 -16z"/>
<path d="M2125 3555 c-106 -32 -245 -92 -245 -105 0 -4 10 -12 23 -18 30 -15
151 -62 152 -59 26 54 122 164 170 193 53 31 33 29 -100 -11z"/>
<path d="M2319 3542 c-68 -44 -147 -121 -170 -165 -8 -14 -4 -19 18 -28 31
-11 149 -28 205 -29 l37 0 3 135 c2 95 0 135 -8 135 -6 0 -45 -22 -85 -48z"/>
<path d="M2480 3454 l0 -136 103 7 c127 8 169 17 175 34 10 29 -227 230 -270
231 -5 0 -8 -61 -8 -136z"/>
<path d="M2678 3561 c37 -28 117 -116 152 -169 l15 -23 65 29 c36 15 76 33 90
39 24 10 20 13 -70 56 -78 36 -257 97 -286 97 -4 0 11 -13 34 -29z"/>
<path d="M1734 3354 c-38 -29 -99 -85 -134 -125 -57 -63 -62 -72 -46 -81 10
-6 26 -18 35 -27 14 -14 37 -15 172 -11 l157 5 51 99 c28 55 50 101 48 102 -1
0 -28 11 -60 23 -31 11 -79 32 -105 45 l-47 24 -71 -54z m85 -108 c15 -18 3
-46 -20 -46 -22 0 -34 22 -25 45 7 19 30 19 45 1z"/>
<path d="M2075 3266 c-24 -36 -89 -191 -105 -249 -8 -29 -9 -52 -4 -57 14 -14
278 -58 369 -61 l80 -4 -4 170 c-2 110 -8 173 -15 177 -6 4 -25 8 -42 8 -28 0
-141 18 -231 36 -26 5 -34 2 -48 -20z m115 -115 c12 -24 4 -48 -22 -62 -16 -9
-24 -7 -41 9 -19 20 -19 22 -3 46 20 31 51 34 66 7z m140 -10 c0 -24 -3 -28
-20 -24 -31 8 -25 53 7 53 8 0 13 -12 13 -29z m0 -126 c0 -18 -5 -25 -20 -25
-20 0 -28 28 -13 43 15 16 33 6 33 -18z"/>
<path d="M2727 3275 c-26 -7 -76 -16 -110 -19 -34 -4 -79 -9 -99 -12 l-38 -6
0 -104 0 -104 125 0 125 0 0 -24 c0 -23 -3 -24 -94 -31 -51 -4 -107 -4 -125 0
-31 7 -31 6 -31 -36 l0 -42 108 6 c99 5 311 40 339 55 15 9 -39 177 -87 271
-33 66 -35 67 -113 46z m-17 -124 c0 -16 -9 -21 -44 -26 -60 -9 -80 -4 -84 23
-3 21 0 22 62 22 59 0 66 -2 66 -19z"/>
<path d="M1452 3036 c-18 -34 -32 -65 -32 -69 0 -4 15 -7 33 -7 28 0 35 6 60
52 23 40 26 53 15 60 -42 28 -43 28 -76 -36z"/>
<path d="M1690 3060 c0 -5 5 -10 11 -10 5 0 7 5 4 10 -3 6 -8 10 -11 10 -2 0
-4 -4 -4 -10z"/>
<path d="M1775 3039 c-9 -14 -2 -20 53 -41 62 -24 62 -24 62 17 l0 35 -54 0
c-30 0 -58 -5 -61 -11z"/>
<path d="M1578 2994 l-16 -34 71 0 c76 0 76 3 6 43 l-45 26 -16 -35z"/>
<path d="M1736 2883 c-34 -152 -47 -296 -44 -473 l3 -175 63 -3 63 -3 -3 73
-3 73 -32 3 c-29 3 -33 7 -33 33 0 26 3 29 34 29 41 0 46 13 46 121 0 68 20
248 35 324 6 30 5 31 -48 48 -29 9 -56 17 -60 17 -3 0 -12 -30 -21 -67z"/>
<path d="M3220 2882 c0 -8 6 -40 14 -71 8 -31 20 -95 27 -143 l12 -88 69 0
c66 0 68 1 64 23 -3 12 -15 77 -27 143 -12 67 -24 126 -28 132 -3 5 -34 11
-68 14 -50 3 -63 1 -63 -10z"/>
<path d="M1917 2779 c-10 -63 -17 -133 -17 -156 l0 -43 94 0 94 0 7 78 c9 108
11 111 46 109 29 -2 30 -4 25 -37 -3 -19 -8 -92 -12 -162 l-7 -128 132 0 131
0 0 40 0 40 -65 0 -65 0 0 29 c0 36 23 46 86 36 l44 -6 0 124 0 124 -112 6
c-62 4 -156 16 -208 27 -52 12 -109 23 -126 26 l-30 6 -17 -113z"/>
<path d="M2873 2875 c-63 -20 -243 -45 -324 -45 l-70 0 3 -122 3 -123 148 -3
c138 -2 148 -1 143 15 -3 10 -8 51 -12 90 -6 72 -6 73 20 83 15 5 29 10 30 10
2 0 6 -30 10 -67 4 -38 9 -83 12 -100 l6 -33 79 0 c44 0 79 1 79 3 0 15 -23
187 -32 240 -13 75 -16 77 -95 52z"/>
<path d="M1900 2480 l0 -40 95 0 95 0 0 40 0 40 -95 0 -95 0 0 -40z"/>
<path d="M2480 2480 l0 -40 148 0 148 0 1 40 2 40 -150 0 -149 0 0 -40z"/>
<path d="M2842 2478 l3 -43 80 0 80 0 3 43 3 42 -86 0 -86 0 3 -42z"/>
<path d="M2608 2373 l-128 -4 0 -69 0 -70 144 0 c164 0 156 -5 156 91 0 55 -1
59 -22 57 -13 -1 -80 -4 -150 -5z"/>
<path d="M2840 2303 l0 -73 79 0 c90 0 91 1 91 85 l0 54 -85 3 -85 3 0 -72z"/>
<path d="M1890 2353 c0 -10 3 -42 6 -70 l7 -53 93 0 c94 0 94 0 94 25 0 15 6
25 14 25 8 0 21 3 30 6 13 5 16 -1 16 -25 l0 -31 130 0 130 0 0 70 0 70 -260
0 c-241 0 -260 -1 -260 -17z"/>
<path d="M3070 2300 l0 -70 65 0 c62 0 65 1 65 24 0 13 3 44 6 70 l7 46 -72 0
-71 0 0 -70z"/>
<path d="M3270 2300 l0 -71 68 3 67 3 3 68 3 67 -71 0 -70 0 0 -70z"/>
<path d="M1705 2118 c11 -85 45 -250 56 -270 7 -12 17 -17 26 -14 9 4 35 11
59 17 49 13 47 5 19 114 -8 28 -16 73 -20 100 -13 111 -9 105 -82 105 l-65 0
7 -52z"/>
<path d="M1900 2166 c0 -30 56 -273 65 -284 1 -1 36 6 76 18 64 17 253 39 342
40 23 0 27 4 27 30 l0 30 -155 0 -155 0 0 30 0 30 154 0 154 0 6 45 c4 25 4
49 1 55 -6 9 -515 15 -515 6z"/>
<path d="M2480 2114 l0 -54 139 0 138 0 7 38 c12 73 21 68 -139 69 l-145 1 0
-54z"/>
<path d="M2830 2138 c0 -18 -3 -43 -6 -55 -6 -22 -4 -23 74 -23 l79 0 7 38
c12 74 14 72 -74 72 l-80 0 0 -32z"/>
<path d="M3055 2113 c-4 -32 -16 -100 -26 -152 -11 -52 -18 -95 -17 -97 9 -8
119 -31 122 -25 5 8 42 162 52 214 5 28 10 37 21 33 8 -3 21 -6 29 -6 20 0 17
-39 -14 -163 l-28 -107 34 -20 c18 -11 39 -20 46 -20 27 0 98 218 112 343 l7
57 -166 0 -166 0 -6 -57z"/>
<path d="M2806 1969 c-4 -23 -3 -45 1 -49 8 -8 135 -42 139 -37 1 1 6 28 11
60 l10 57 -63 0 c-34 0 -69 2 -77 6 -10 4 -16 -6 -21 -37z"/>
<path d="M2480 1971 l0 -28 92 -7 c165 -11 165 -11 170 29 l4 35 -133 0 -133
0 0 -29z"/>
<path d="M2210 1859 c-36 -5 -102 -16 -148 -25 -76 -15 -82 -18 -76 -38 14
-49 105 -226 117 -226 6 0 46 6 87 14 41 8 108 17 148 21 l72 7 0 129 0 129
-67 -1 c-38 -1 -97 -5 -133 -10z m-24 -115 c17 -25 16 -26 -10 -52 l-27 -27
-20 24 c-24 29 -24 36 1 61 26 26 36 25 56 -6z"/>
<path d="M2480 1740 c0 -97 3 -130 13 -130 52 -1 212 -22 254 -33 39 -10 55
-11 62 -3 11 14 112 238 109 241 -25 19 -282 54 -400 55 l-38 0 0 -130z m108
-23 c3 -22 -1 -27 -17 -27 -17 0 -21 6 -21 31 0 24 4 30 18 27 10 -2 18 -14
20 -31z m102 8 c0 -18 -5 -25 -20 -25 -15 0 -20 7 -20 25 0 18 5 25 20 25 15
0 20 -7 20 -25z m100 2 c0 -31 -9 -38 -30 -27 -23 13 -15 50 11 50 13 0 19 -7
19 -23z"/>
<path d="M2965 1737 c-16 -40 -41 -98 -57 -129 l-28 -58 37 -15 c21 -9 66 -28
101 -41 l62 -26 53 43 c28 24 69 58 90 76 l37 33 -100 0 c-55 0 -100 3 -100 8
0 4 12 35 27 70 14 34 24 64 22 65 -2 2 -29 13 -60 24 l-56 21 -28 -71z"/>
<path d="M1835 1783 c-21 -7 -41 -15 -42 -17 -2 -2 6 -25 17 -52 l21 -48 -23
-17 c-22 -17 -23 -17 -52 37 -16 30 -33 54 -38 54 -14 0 -126 -58 -132 -69 -6
-9 151 -161 202 -197 19 -13 25 -13 59 4 21 11 68 29 106 41 37 13 67 25 67
27 0 2 -20 44 -44 92 -24 48 -49 104 -55 125 -14 41 -23 43 -86 20z"/>
<path d="M3161 1718 c-5 -13 -7 -26 -4 -30 6 -11 113 -10 113 0 0 7 -83 52
-96 52 -2 0 -8 -10 -13 -22z"/>
<path d="M2215 1519 c-33 -5 -64 -10 -70 -12 -26 -9 142 -156 253 -221 9 -6
12 21 12 118 l0 126 -67 -1 c-38 -1 -95 -5 -128 -10z"/>
<path d="M2480 1411 c0 -68 3 -121 8 -119 89 39 262 174 262 205 0 15 -36 21
-162 29 l-108 7 0 -122z"/>
<path d="M1973 1457 c-46 -16 -83 -33 -83 -37 0 -16 236 -106 329 -125 32 -7
30 -3 -42 60 -43 36 -77 69 -77 73 -1 4 -11 19 -23 33 l-22 26 -82 -30z"/>
<path d="M2819 1468 c-18 -34 -108 -126 -146 -149 -19 -12 -33 -23 -31 -25 12
-11 220 55 326 104 43 19 43 19 20 34 -21 13 -137 58 -151 58 -4 0 -12 -10
-18 -22z"/>
<path d="M3733 3342 c-17 -11 -33 -59 -26 -78 3 -8 17 -20 31 -25 58 -22 101
60 50 95 -25 18 -37 19 -55 8z"/>
<path d="M1290 2338 c0 -18 3 -50 6 -70 l7 -38 58 0 59 0 0 39 c0 21 -3 53 -6
70 -6 30 -7 31 -65 31 l-59 0 0 -32z"/>
<path d="M1216 1388 c-21 -30 -20 -51 3 -72 26 -24 62 -17 80 16 15 25 14 29
-8 52 -30 32 -55 33 -75 4z"/>
<path d="M3390 1255 l-23 -37 20 -20 c18 -17 23 -18 42 -6 33 21 36 47 8 75
l-24 25 -23 -37z"/>
<path d="M1452 1168 c-6 -6 -12 -25 -12 -41 0 -25 3 -28 26 -25 35 4 53 31 38
56 -14 22 -36 26 -52 10z"/>
<path d="M2399 990 c-29 -17 -43 -66 -29 -100 13 -31 49 -60 76 -60 9 0 32 16
51 35 30 30 35 40 29 68 -3 17 -16 40 -27 50 -23 18 -74 22 -100 7z"/>
</g>
</svg>
